<?xml version="1.0" encoding="utf-8" ?>
<svg xmlns="http://www.w3.org/2000/svg" xmlns:xlink="http://www.w3.org/1999/xlink" width="1023" height="1023">
	<path fill="#7B1A19" d="M511.521 36.4142C522.344 50.3818 533.414 68.2629 543.186 83.2592C551.42 95.8966 560.318 108.435 567.78 121.54C554.326 122.676 540.42 121.992 526.902 121.996L455.07 121.968C459.496 112.65 467.409 102.583 473.247 93.8321L511.521 36.4142Z"/>
	<path fill="#FE3232" d="M567.78 121.54C572.954 123.247 577.541 124.054 580.303 129.329C582.046 132.659 582.381 136.648 581.17 140.21C580.052 143.497 577.673 146.201 574.532 147.692C569.232 150.208 561.708 149.515 555.97 149.569C555.778 158.114 555.699 166.781 555.948 175.325C546.911 176.382 532.898 175.269 523.315 175.255L490.592 175.296C483.649 175.334 476.459 175.785 469.565 174.898C469.467 166.604 469.539 158.302 469.543 150.006C462.608 150.086 454.727 150.852 448.456 147.346C445.093 145.465 442.561 142.577 441.652 138.776C440.78 135.126 441.584 131.17 443.701 128.091C446.576 123.908 450.372 122.827 455.07 121.968L526.902 121.996C540.42 121.992 554.326 122.676 567.78 121.54Z"/>
	<path fill="#7B1A19" d="M469.543 150.006C498.331 149.419 527.188 150.809 555.97 149.569C555.778 158.114 555.699 166.781 555.948 175.325C546.911 176.382 532.898 175.269 523.315 175.255L490.592 175.296C483.649 175.334 476.459 175.785 469.565 174.898C469.467 166.604 469.539 158.302 469.543 150.006Z"/>
	<path fill="#FE3232" d="M706.499 538.385C711.066 552.544 715.955 566.943 725.144 578.87C732.04 587.821 741.336 593.628 749.258 601.434C766.333 618.257 770.755 642.143 759.721 663.628C755.243 672.348 748.708 678.949 741.555 685.48C735.829 686.702 723.818 685.791 717.445 685.791C702.312 685.79 686.549 686.784 671.519 685.428C665.06 681.122 659.806 676.437 655.423 669.971C647.122 657.723 644.162 643.107 647.061 628.583C650.198 612.863 660.777 600.522 673.825 591.741C690.153 578.696 701.844 558.71 706.499 538.385Z"/>
	<path fill="#7B1A19" d="M648.385 525.351C655.267 542.523 663 559.201 669.135 576.704C670.787 581.417 673.064 586.839 673.825 591.741C660.777 600.522 650.198 612.863 647.061 628.583C644.162 643.107 647.122 657.723 655.423 669.971C659.806 676.437 665.06 681.122 671.519 685.428C686.549 686.784 702.312 685.79 717.445 685.791C723.818 685.791 735.829 686.702 741.555 685.48C752.827 685.711 764.205 685.884 775.475 685.593L775.445 715.298C768.549 715.09 761.361 714.475 754.485 714.913C754.167 729.635 754.431 744.254 754.449 758.97L754.47 836.371C745.609 835.206 731.836 836.192 722.505 836.189L656.914 836.248C656.09 836.207 655.465 836.075 654.671 835.876C652.746 832.245 653.998 823.502 653.86 819.276C653.829 819.23 653.797 819.184 653.766 819.137C650.504 814.169 645.482 809.766 641.431 805.373L613.591 775.303C608.004 769.279 602.359 763.287 596.937 757.114C591.329 750.728 585.952 744.163 579.749 738.331C586.664 728.4 592.14 717.61 597.732 706.903C620.054 664.168 636.209 619.305 643.969 571.636C645.219 563.952 646.252 556.068 646.674 548.289C647.078 540.849 646.943 533.366 648.262 526.005L648.385 525.351Z"/>
	<path fill="#7B1A19" d="M340.188 836.538C354.796 837.404 369.765 836.709 384.42 836.694L477.13 836.656C487.443 836.636 497.842 835.859 508.127 836.065L508.746 836.084C517.819 836.818 527.013 836.524 536.112 836.521L578.359 836.505L622.651 836.529C634.1 836.589 645.469 836.903 656.914 836.248L722.505 836.189C731.836 836.192 745.609 835.206 754.47 836.371C772.662 837.189 789.519 835.218 802.973 850.072C810.134 857.976 813.293 868.059 812.653 878.639C812.117 887.507 808.692 895.722 801.968 901.659C799.328 903.99 796.344 905.948 793.408 907.881C802.078 908.246 810.745 908.356 819.413 908.66C825.075 916.225 832 923.228 838.332 930.249C851.838 945.226 865.726 960.015 878.775 975.386L367.871 975.441L233.472 975.407C203.845 975.257 173.985 974.136 144.384 975.556C153.136 964.541 163.591 954.496 173.265 944.275C184.706 932.189 195.875 919.724 207.717 908.031C217.264 908.214 226.973 908.564 236.499 907.916C231.483 905.922 226.398 903.617 222.332 899.989C215.527 893.917 211.561 885.067 211.154 875.995C210.712 866.146 214.5 856.409 221.154 849.184C233.019 836.3 248.988 837.227 265.039 836.543C281.772 836.421 298.49 836.626 315.221 836.687C323.541 836.717 331.869 836.373 340.188 836.538Z"/>
	<path fill="#FE6600" d="M340.188 836.538C354.796 837.404 369.765 836.709 384.42 836.694L477.13 836.656C487.443 836.636 497.842 835.859 508.127 836.065L508.746 836.084C517.819 836.818 527.013 836.524 536.112 836.521L578.359 836.505L622.651 836.529C634.1 836.589 645.469 836.903 656.914 836.248L722.505 836.189C731.836 836.192 745.609 835.206 754.47 836.371C772.662 837.189 789.519 835.218 802.973 850.072C810.134 857.976 813.293 868.059 812.653 878.639C812.117 887.507 808.692 895.722 801.968 901.659C799.328 903.99 796.344 905.948 793.408 907.881C784.458 908.585 775.098 907.376 766.079 907.512C736.589 907.957 707.108 907.871 677.612 907.873L378.333 907.883L282.687 907.873C267.629 907.87 251.377 906.797 236.499 907.916C231.483 905.922 226.398 903.617 222.332 899.989C215.527 893.917 211.561 885.067 211.154 875.995C210.712 866.146 214.5 856.409 221.154 849.184C233.019 836.3 248.988 837.227 265.039 836.543C281.772 836.421 298.49 836.626 315.221 836.687C323.541 836.717 331.869 836.373 340.188 836.538Z"/>
	<path fill="#FE3232" d="M580.102 215.86C607.373 197.913 635.247 181.09 663.058 164.006C676.116 155.985 689.656 148.334 702.255 139.628L668.337 260.497C665.729 269.725 663.179 278.977 660.365 288.145C658.369 294.644 655.789 301.127 654.592 307.83C653.533 313.761 654.098 320.042 654.386 326.031C655.789 354.91 664.443 384.797 686.513 404.705C696.615 413.818 710.697 421.391 724.263 423.357C720.1 424.937 714.342 426.246 710.539 428.432C710.437 428.528 710.337 428.628 710.232 428.722C705.954 432.587 681.656 440.225 675.046 442.266C678.124 443.349 698.108 438.17 702.946 437.296C709.789 436.206 716.504 434.542 723.148 432.582C712.542 442.504 701.56 450.417 688.238 456.38C683.361 458.563 678.283 460.28 673.41 462.455C670.576 463.72 669.994 465.826 667.073 466.866L664.871 468.475L664.869 469.225L665.934 469.982C671.335 468.53 676.866 467.022 682.464 466.662C685.743 467.541 690.458 465.159 693.539 464.01C689.379 467.985 685.089 471.704 680.549 475.239C675.197 479.407 646.532 498.83 645.111 502.105L645.057 502.95C646.181 510.462 646.133 518.039 648.385 525.351L648.262 526.005C646.943 533.366 647.078 540.849 646.674 548.289C646.252 556.068 645.219 563.952 643.969 571.636C636.209 619.305 620.054 664.168 597.732 706.903C592.14 717.61 586.664 728.4 579.749 738.331C585.952 744.163 591.329 750.728 596.937 757.114C602.359 763.287 608.004 769.279 613.591 775.303L641.431 805.373C645.482 809.766 650.504 814.169 653.766 819.137C653.797 819.184 653.829 819.23 653.86 819.276C653.998 823.502 652.746 832.245 654.671 835.876C655.465 836.075 656.09 836.207 656.914 836.248C645.469 836.903 634.1 836.589 622.651 836.529L578.359 836.505L536.112 836.521C527.013 836.524 517.819 836.818 508.746 836.084L508.127 836.065C497.842 835.859 487.443 836.636 477.13 836.656L384.42 836.694C369.765 836.709 354.796 837.404 340.188 836.538C331.869 836.373 323.541 836.717 315.221 836.687C298.49 836.626 281.772 836.421 265.039 836.543C271.184 816.435 278.709 796.517 285.578 776.626L321.336 672.584L355.503 572.851C362.519 552.188 369.118 531.401 376.799 510.971L380.062 502.593L351.317 480.86C345.361 476.414 339.072 472.165 333.436 467.325L332.774 466.341C334.156 463.885 340.008 462.279 342.391 459.879C327.557 453.636 310.225 441.241 300.464 428.152L299.309 426.958L299.429 425.779C300.445 424.619 301.39 424.148 302.752 423.515C312.853 420.156 322.341 415.37 330.832 408.919C360.842 386.123 364.844 360.689 369.434 325.989C370.488 321.874 371.425 317.74 370.699 313.487C369.53 306.651 367.084 299.856 365.065 293.233L355.655 262.053C343.679 221.428 331.193 180.904 320.096 140.029C326.428 143.222 332.514 147.217 338.588 150.885L370.224 170.067C394.993 185.134 420.198 199.665 444.404 215.633C448.759 202.409 451.75 188.781 455.423 175.362C460.145 175.283 464.849 175.176 469.565 174.898C476.459 175.785 483.649 175.334 490.592 175.296L523.315 175.255C532.898 175.269 546.911 176.382 555.948 175.325C560.355 175.292 564.774 175.187 569.177 175.376C572.435 188.926 575.448 202.705 580.102 215.86ZM636.183 471.315C637.423 471.476 638.406 471.733 639.57 472.191C638.955 472.836 638.64 473.108 638.354 473.97C645.292 473.447 653.509 473.688 660.213 472.043C662.118 471.575 664.07 470.635 665.934 469.982L664.869 469.225L664.871 468.475L667.073 466.866C667.965 466.123 668.75 465.512 669.441 464.566L669.124 463.615L669.721 464.038L669.503 463.636C658.463 466.472 647.453 469.514 636.183 471.315Z"/>
	<path fill="#FEFEFE" fill-opacity="0.98431373" d="M636.183 471.315C647.453 469.514 658.463 466.472 669.503 463.636L669.721 464.038L669.124 463.615L669.441 464.566C668.75 465.512 667.965 466.123 667.073 466.866L664.871 468.475L664.869 469.225L665.934 469.982C664.07 470.635 662.118 471.575 660.213 472.043C653.509 473.688 645.292 473.447 638.354 473.97C638.64 473.108 638.955 472.836 639.57 472.191C638.406 471.733 637.423 471.476 636.183 471.315Z"/>
	<path fill="#FEFEFE" d="M665.934 469.982C671.335 468.53 676.866 467.022 682.464 466.662L682.12 467.655C677.882 469.361 673.079 470.22 668.614 471.19C646.933 475.9 625.22 477.121 603.122 478.054C595.799 478.363 588.228 479.176 580.924 478.544C599.168 475.413 617.87 474.407 636.183 471.315C637.423 471.476 638.406 471.733 639.57 472.191C638.955 472.836 638.64 473.108 638.354 473.97C645.292 473.447 653.509 473.688 660.213 472.043C662.118 471.575 664.07 470.635 665.934 469.982Z"/>
	<path fill="#FEFEFE" d="M342.391 459.879C365.789 467.725 396.593 472.041 421.2 474.957C425.581 475.477 429.999 475.96 434.402 476.249C438.403 476.512 443.191 476.099 447.043 477.242L447.068 477.742C437.319 479.136 420.27 476.683 410.194 475.899C385.216 473.953 357.665 473.917 333.436 467.325L332.774 466.341C334.156 463.885 340.008 462.279 342.391 459.879Z"/>
	<path fill="#FEFEFE" d="M702.946 437.296L703.154 437.845C668.748 446.807 633.912 454.128 599.304 462.275C592.609 463.851 585.802 465.28 579.205 467.222C575.006 468.459 566.592 471.402 562.57 471.861L562.819 471.328C566.2 469.664 570.138 469.024 573.727 467.832C586.404 463.621 599.064 459.718 611.928 456.106C635.744 449.42 659.754 443.458 683.561 436.742C692.617 434.187 701.514 431.091 710.539 428.432C710.437 428.528 710.337 428.628 710.232 428.722C705.954 432.587 681.656 440.225 675.046 442.266C678.124 443.349 698.108 438.17 702.946 437.296Z"/>
	<path fill="#FEFEFE" d="M300.464 428.152L299.309 426.958L299.429 425.779C300.445 424.619 301.39 424.148 302.752 423.515C315.339 427.378 328.059 430.743 340.707 434.397L405.856 453.495C419.169 457.407 443.112 463.476 454.734 469.323C426.885 462.545 399.321 454.399 371.505 447.427C350.03 442.044 319.654 437.827 300.464 428.152Z"/>
	<path fill="#7B1A19" d="M641.243 345.576C642.23 345.471 642.772 345.41 643.683 345.837C643.627 347.264 642.605 348.135 641.766 349.263L648.186 360.591C643.716 359.468 633.16 357.659 629.02 359.844C628.893 359.911 628.116 360.362 627.997 360.608C626.316 364.068 626.739 372.642 626.138 376.836C625.621 380.447 624.577 384.035 623.141 387.385C619.552 395.751 612.93 403.016 604.37 406.393C594.306 410.364 584.845 408.6 575.248 404.354C575.027 404.239 574.805 404.128 574.587 404.009C568.046 400.451 562.871 393.395 560.863 386.26C559.535 381.541 559.636 376.737 562.211 372.461C565.199 367.5 570.619 363.263 575.301 359.972C590.132 349.547 605.855 347.575 623.504 347.263C629.157 347.163 635.287 347.285 640.758 345.723C640.92 345.677 641.081 345.625 641.243 345.576Z"/>
	<path fill="#FEFEFE" d="M596.698 365.742C606.19 361.701 616.648 360.768 626.575 358.238C625.583 365.488 624.453 370.655 619.236 376.163C613.778 378.479 609.388 377.802 603.743 376.915C600.64 373.497 598.255 370.15 596.698 365.742Z"/>
	<path fill="#FE6600" d="M619.236 376.163C618.752 378.516 618.303 380.912 617.576 383.205C615.323 390.3 610.279 396.409 603.579 399.716C596.994 402.967 589.303 403.441 582.405 400.882C574.829 398.072 568.752 391.593 565.523 384.263C564.444 381.814 563.648 378.709 564.912 376.164C566.71 372.546 573.777 371.188 577.399 370.073C576.898 375.374 576.766 381.198 579.832 385.813C581.723 388.659 584.66 390.581 588.034 391.143C591.395 391.702 594.93 390.753 597.61 388.665C601.211 385.859 603.256 381.376 603.743 376.915C609.388 377.802 613.778 378.479 619.236 376.163Z"/>
	<path fill="#7B1A19" d="M401.471 346.709C415.729 345.493 431.651 349.112 443.974 356.379C451.333 360.719 460.091 367.669 462.144 376.396C463.758 383.259 461.104 390.14 457.396 395.888C452.245 403.873 444.016 407.097 435.145 409.108C425.064 409.746 416.246 406.786 408.558 400.235C396.412 389.886 393.063 375.586 391.912 360.398C385.597 357.114 378.713 354.946 372.349 351.653C382.028 348.861 391.466 347.491 401.471 346.709Z"/>
	<path fill="#FEFEFE" d="M399.868 373.962C398.634 370.012 397.179 365.637 397.361 361.466L397.932 360.399C403.952 359.356 423.093 363.699 428.222 366.788C428.276 366.821 428.33 366.852 428.384 366.883C425.599 371.625 423.311 375.021 418.536 377.993C411.329 378.81 406.069 377.772 399.868 373.962Z"/>
	<path fill="#FE6600" d="M445.35 371C448.631 371.942 452.558 372.719 455.586 374.304C456.85 374.967 457.548 375.563 457.942 376.972C458.808 380.072 456.255 385.983 454.762 388.821C451.507 395.008 446.226 399.828 439.407 401.736C431.863 403.846 423.811 402.483 417.087 398.612C407.418 393.045 402.697 384.406 399.868 373.962C406.069 377.772 411.329 378.81 418.536 377.993C419.96 382.238 421.806 386.41 425.564 389.086C428.447 391.139 431.976 391.929 435.455 391.234C439.097 390.507 442.209 388.155 444.08 384.973C446.714 380.492 446.486 375.853 445.35 371Z"/>
	<path fill="#7B1A19" d="M376.799 510.971C379.084 518.641 377.936 535.648 378.426 544.556C379.145 557.626 380.571 570.706 382.481 583.653C389.062 628.258 406.265 668.547 426.518 708.491C431.403 718.126 437.495 726.981 442.114 736.812C428.94 750.533 416.14 764.753 402.631 778.127C388.41 792.206 373.306 805.469 358.566 818.999C352.324 824.729 346.427 830.823 340.188 836.538C331.869 836.373 323.541 836.717 315.221 836.687C298.49 836.626 281.772 836.421 265.039 836.543C271.184 816.435 278.709 796.517 285.578 776.626L321.336 672.584L355.503 572.851C362.519 552.188 369.118 531.401 376.799 510.971Z"/>
	<path fill="#F5B678" d="M383.602 506.402C413.978 529.999 445.373 547.684 484.177 552.412C528.022 557.754 572.622 551.5 610.56 527.902C622.917 520.215 633.705 511.051 645.111 502.105L645.057 502.95C646.181 510.462 646.133 518.039 648.385 525.351L648.262 526.005C646.943 533.366 647.078 540.849 646.674 548.289C646.252 556.068 645.219 563.952 643.969 571.636C636.209 619.305 620.054 664.168 597.732 706.903C592.14 717.61 586.664 728.4 579.749 738.331C585.952 744.163 591.329 750.728 596.937 757.114C602.359 763.287 608.004 769.279 613.591 775.303L641.431 805.373C645.482 809.766 650.504 814.169 653.766 819.137C653.797 819.184 653.829 819.23 653.86 819.276C653.998 823.502 652.746 832.245 654.671 835.876C655.465 836.075 656.09 836.207 656.914 836.248C645.469 836.903 634.1 836.589 622.651 836.529L578.359 836.505L536.112 836.521C527.013 836.524 517.819 836.818 508.746 836.084L508.127 836.065C505.178 831.659 501.341 827.626 498.049 823.458C493.732 817.993 489.767 812.246 485.775 806.543C470.005 784.017 455.991 760.714 442.308 736.883C449.082 727.919 458.533 719.807 466.18 711.401C481.363 694.711 495.937 677.555 510.412 660.251C466.967 609.861 422.539 560.45 383.602 506.402Z"/>
	<path fill="#FE3232" d="M511.355 660.422C524.055 647.857 535.378 633.513 547.205 620.11C568.783 595.656 590.627 571.309 611.244 546.033C617.081 538.878 622.874 531.6 628.385 524.193C633.599 517.185 638.206 508.444 645.057 502.95C646.181 510.462 646.133 518.039 648.385 525.351L648.262 526.005C646.943 533.366 647.078 540.849 646.674 548.289C646.252 556.068 645.219 563.952 643.969 571.636C636.209 619.305 620.054 664.168 597.732 706.903C592.14 717.61 586.664 728.4 579.749 738.331C585.952 744.163 591.329 750.728 596.937 757.114C602.359 763.287 608.004 769.279 613.591 775.303L641.431 805.373C645.482 809.766 650.504 814.169 653.766 819.137C653.797 819.184 653.829 819.23 653.86 819.276C653.998 823.502 652.746 832.245 654.671 835.876C655.465 836.075 656.09 836.207 656.914 836.248C645.469 836.903 634.1 836.589 622.651 836.529L578.359 836.505L536.112 836.521C527.013 836.524 517.819 836.818 508.746 836.084C534.698 805.367 558.049 772.298 579.537 738.338C556.909 712.3 533.322 687.04 511.355 660.422Z"/>
	<path fill="#7B1A19" d="M580.102 215.86C607.373 197.913 635.247 181.09 663.058 164.006C676.116 155.985 689.656 148.334 702.255 139.628L668.337 260.497C665.729 269.725 663.179 278.977 660.365 288.145C658.369 294.644 655.789 301.127 654.592 307.83C653.533 313.761 654.098 320.042 654.386 326.031C616.723 327.482 578.698 326.47 541.002 326.133L541.028 428.909C540.949 438.48 542.109 454.562 540.737 463.201C539.951 468.15 537.413 472.538 534.801 476.731C528.59 486.702 519.083 498.462 517.311 510.21C516.653 514.572 516.976 519.036 517.148 523.426C521.557 524.787 525.766 526.506 530.287 527.558C546.315 531.29 562.718 528.927 578.61 525.772C575.301 527.248 571.896 528.629 568.454 529.761C550.527 535.655 529.009 536.588 511.866 527.883C510.418 528.404 508.968 528.916 507.509 529.404C487.394 536.137 464.149 535.438 445.005 525.91C467.247 530.562 484.072 530.138 505.909 523.701C505.999 518.129 505.962 512.551 505.973 506.978C499.981 497.756 484.586 472.798 482.204 463.452C481.044 458.9 481.946 436.214 481.945 429.759L482.023 326.158C444.536 325.848 406.899 327.046 369.434 325.989C370.488 321.874 371.425 317.74 370.699 313.487C369.53 306.651 367.084 299.856 365.065 293.233L355.655 262.053C343.679 221.428 331.193 180.904 320.096 140.029C326.428 143.222 332.514 147.217 338.588 150.885L370.224 170.067C394.993 185.134 420.198 199.665 444.404 215.633C448.759 202.409 451.75 188.781 455.423 175.362C460.145 175.283 464.849 175.176 469.565 174.898C476.459 175.785 483.649 175.334 490.592 175.296L523.315 175.255C532.898 175.269 546.911 176.382 555.948 175.325C560.355 175.292 564.774 175.187 569.177 175.376C572.435 188.926 575.448 202.705 580.102 215.86Z"/>
	<path fill="#FE6600" d="M593.139 260.904C604.538 249.56 615.137 237.4 625.987 225.535L663.329 185.316C672.661 175.119 681.696 164.611 691.197 154.574C688.797 162.92 685.096 171.001 682.026 179.13C677.102 192.166 672.476 205.335 667.774 218.453C663.522 230.317 659.255 242.182 655.176 254.105C652.671 261.427 650.56 269.351 647.241 276.328L597.427 276.027C596.073 270.963 594.754 265.893 593.139 260.904Z"/>
	<path fill="#FE6600" d="M333.114 159.846C352.727 182.215 373.734 203.443 394.578 224.655C406.944 237.24 419.005 250.128 431.624 262.465C430.041 268.96 428.238 275.422 426.797 281.948C410.64 282.771 394.087 282.036 377.887 282.021L349.394 202.688C344.088 188.362 337.872 174.363 333.114 159.846Z"/>
	<path fill="#FE3232" d="M469.565 174.898C476.459 175.785 483.649 175.334 490.592 175.296L523.315 175.255C532.898 175.269 546.911 176.382 555.948 175.325C560.355 175.292 564.774 175.187 569.177 175.376C572.435 188.926 575.448 202.705 580.102 215.86C582.576 225.366 585.285 234.816 587.981 244.261C589.517 249.641 590.904 255.809 593.139 260.904C594.754 265.893 596.073 270.963 597.427 276.027C599.357 282.864 601.24 289.719 603.29 296.521L482.529 296.503C468.225 296.506 453.93 296.702 439.627 296.541C434.158 296.48 428.544 296.774 423.099 296.288C424.416 291.647 426.168 286.736 426.797 281.948C428.238 275.422 430.041 268.96 431.624 262.465C437.116 247.445 439.741 230.991 444.404 215.633C448.759 202.409 451.75 188.781 455.423 175.362C460.145 175.283 464.849 175.176 469.565 174.898Z"/>
	<path fill="#FBCC30" d="M508.734 211.556C514.389 211.079 519.515 211.546 524.57 214.37C530.089 217.453 534.336 222.94 535.915 229.065C537.497 235.203 536.471 241.824 533.147 247.215C529.175 253.657 523.44 256.638 516.365 258.425C511.076 258.966 505.227 258.244 500.54 255.666C494.936 252.583 490.846 247.082 489.206 240.928C487.58 234.828 488.565 228.127 491.846 222.737C495.756 216.313 501.673 213.246 508.734 211.556Z"/>
</svg>
