<?xml version="1.0" encoding="utf-8" ?>
<svg xmlns="http://www.w3.org/2000/svg" xmlns:xlink="http://www.w3.org/1999/xlink" width="1024" height="1024">
	<path fill="#FE6600" d="M503.862 97.6506C499.582 95.2732 495.57 92.7121 492.417 88.8899C487.639 83.0972 485.313 76.0175 486.11 68.5167C486.827 61.7717 490.148 55.6788 495.586 51.5887C501.451 47.1771 509.199 45.1187 516.459 46.3647C523.256 47.5313 529.525 51.4853 533.456 57.1574C537.466 62.9423 538.957 70.3718 537.571 77.2607C535.372 88.1917 528.436 91.8641 520.005 97.4517C514.905 99.2074 509.052 98.8512 503.862 97.6506Z"/>
	<path fill="#C70C00" d="M520.005 97.4517C526.485 110.762 533.038 124.032 539.946 137.127C544.732 146.2 550.156 155.241 554.331 164.599C548.6 165.304 542.662 165.058 536.886 165.077L507.6 165.061C499.792 165.05 491.979 165.008 484.171 165.112C478.944 165.182 473.616 165.55 468.406 165.206C472.343 156.96 476.994 148.941 481.302 140.878C488.967 126.533 496.547 112.179 503.862 97.6506C509.052 98.8512 514.905 99.2074 520.005 97.4517Z"/>
	<path fill="#FE3232" d="M392.749 285.321C388.388 276.992 383.31 269.218 379.255 260.666C366.229 233.194 360.708 202.257 358.621 172.131C358.23 166.496 357.005 149.64 358.019 144.767L359.001 145.067C368.988 159.52 383.683 171.917 394.796 185.851C402.842 195.939 409.848 206.49 416.31 217.654C419.358 222.92 421.966 228.568 425.258 233.664C415.074 243.793 404.648 255.877 398.558 268.993C396.138 274.203 394.468 279.845 392.749 285.321Z"/>
	<path fill="#FE3232" d="M666.938 144.2L667.678 144.582C668.627 150.11 667.2 159.397 666.817 165.255C664.833 195.59 658.069 226.442 645.891 254.353C641.678 264.009 636.603 273.37 631.902 282.801C628.661 273.32 624.112 263.982 618.921 255.413C615.973 250.546 601.9 230.839 597.119 229.675L598.325 229.346C599.95 227.062 600.927 224.539 602.325 222.127C605.189 217.185 608.384 212.381 611.513 207.603C623.783 188.87 638.208 172.244 654.555 156.944C658.423 153.323 664.346 148.818 666.938 144.2Z"/>
	<path fill="#FE6600" d="M557.227 169.653C562.104 161.437 567.573 153.589 572.65 145.494C578.257 136.553 583.526 127.11 589.854 118.681C588.359 125.697 587.818 132.97 587.036 140.093C585.416 154.839 584.125 169.685 583.163 184.488C582.737 191.042 582.823 197.866 581.93 204.359C575.649 202.956 553.868 203.899 546.185 203.897L443.332 204.309L442.614 203.501C442.477 190.702 440.358 177.317 438.796 164.591C436.927 149.37 435.326 134.007 432.537 118.926C438.002 126.852 443.356 134.822 448.524 142.945C454.044 151.623 459.311 160.525 465.865 168.477L468.406 165.206C473.616 165.55 478.944 165.182 484.171 165.112C491.979 165.008 499.792 165.05 507.6 165.061L536.886 165.077C542.662 165.058 548.6 165.304 554.331 164.599L557.227 169.653Z"/>
	<path fill="#7B1A19" d="M581.625 211.492C585.65 206.523 589.297 201.343 593.572 196.559C608.767 179.555 627.438 166.012 646.904 154.343C653.026 150.673 660.032 146.009 666.938 144.2C664.346 148.818 658.423 153.323 654.555 156.944C638.208 172.244 623.783 188.87 611.513 207.603C608.384 212.381 605.189 217.185 602.325 222.127C600.927 224.539 599.95 227.062 598.325 229.346L597.119 229.675C577.045 227.218 552.262 238.766 536.682 251.001C527.301 258.367 519.437 267.081 512.47 276.723C497.689 259.216 482.436 244.5 460.844 235.608C454.158 232.855 446.908 230.532 439.672 229.879C433.817 229.351 430.081 230.644 425.258 233.664C421.966 228.568 419.358 222.92 416.31 217.654C409.848 206.49 402.842 195.939 394.796 185.851C383.683 171.917 368.988 159.52 359.001 145.067C383.594 155.724 428.6 191.729 443.096 214.325C443.017 210.719 443.024 207.087 442.614 203.501L443.332 204.309L546.185 203.897C553.868 203.899 575.649 202.956 581.93 204.359C581.556 206.726 581.628 209.101 581.625 211.492Z"/>
	<path fill="#7B1A19" d="M623.603 465.969C676.419 507.062 708.946 561.335 717.242 628.093C723.758 680.525 713.374 735.073 689.714 782.168C683.933 793.675 676.116 803.966 670.179 815.282C665.769 808.867 662 801.686 658.119 794.919C651.501 783.382 644.88 771.866 638.874 759.993C655.463 737.176 668.073 712.484 675.732 685.288C681.444 665.004 684.011 644.106 684.06 623.06C684.175 574.168 672.39 541.22 647.59 499.365C644.095 493.467 640.34 487.444 636.073 482.078C632.012 476.97 626.975 472.146 623.834 466.404C623.755 466.26 623.68 466.114 623.603 465.969Z"/>
	<path fill="#FE3232" d="M445.46 388.162L446.115 388.633C451.621 392.635 456.555 397.422 461.772 401.788C478.24 415.568 497.796 428.363 520.231 424.861C541.893 421.479 562.656 403.293 578.005 388.57C582.651 392.145 587.31 395.692 592.058 399.131C601.485 405.957 617.7 415.995 619.303 428.69C620.136 435.288 616.461 441.403 612.413 446.293C603.416 457.159 591.262 463.731 579.256 470.616C578.796 473.517 578.535 476.669 577.782 479.495C537.013 499.185 490.818 497.507 448.829 482.859L446.282 481.956C445.582 478.738 445.208 475.552 444.876 472.278C442.956 470.395 438.76 468.772 436.324 467.41C426.918 462.15 418.653 455.275 412.37 446.436C408.251 440.643 405.364 433.723 406.736 426.492C409.953 409.538 432.22 397.005 445.46 388.162Z"/>
	<path fill="#7B1A19" d="M444.876 472.278C449.548 474.625 455.433 476.153 460.473 477.65C489.599 486.303 519.597 486.829 549.142 479.977C559.305 477.62 568.721 473.493 578.706 470.762L579.256 470.616C578.796 473.517 578.535 476.669 577.782 479.495C537.013 499.185 490.818 497.507 448.829 482.859L446.282 481.956C445.582 478.738 445.208 475.552 444.876 472.278Z"/>
	<path fill="#C70C00" d="M512.47 276.723C519.437 267.081 527.301 258.367 536.682 251.001C552.262 238.766 577.045 227.218 597.119 229.675C601.9 230.839 615.973 250.546 618.921 255.413C624.112 263.982 628.661 273.32 631.902 282.801C634.891 306.481 629.325 329.272 618.74 350.38C633.918 345.987 648.666 340.877 663.492 335.423C638.496 359.303 616.509 366.988 583.335 372.807C600.126 376.376 640.374 370.211 657.396 367.05C639.229 379.619 619.932 387.135 597.657 388.354C591.112 388.712 584.532 388.24 578.005 388.57C562.656 403.293 541.893 421.479 520.231 424.861C497.796 428.363 478.24 415.568 461.772 401.788C456.555 397.422 451.621 392.635 446.115 388.633L445.46 388.162C438.599 387.106 431.509 386.924 424.596 386.115C404.062 383.71 382.886 377.989 365.42 366.734C381.298 371.613 421.581 373.157 439.077 372.907C415.386 367.738 389.972 362.44 371.271 345.867C366.881 341.976 363.212 337.5 359.471 333.006C374.383 340.607 389.306 346.168 405.556 350.189C394.189 331.34 391.31 306.94 392.749 285.321C394.468 279.845 396.138 274.203 398.558 268.993C404.648 255.877 415.074 243.793 425.258 233.664C430.081 230.644 433.817 229.351 439.672 229.879C446.908 230.532 454.158 232.855 460.844 235.608C482.436 244.5 497.689 259.216 512.47 276.723Z"/>
	<path d="M411.79 276.072C431.585 275.821 454.804 270.709 470.542 286.124C477.623 293.059 484.362 305.708 484.343 315.777C484.341 316.41 484.283 316.989 484.209 317.62C480.974 307.279 476.828 297.914 468.388 290.76C457.366 281.417 447.284 280.98 433.548 282.094C425.688 282.168 419.091 278.52 411.79 276.072Z"/>
	<path d="M541.184 315.607C541.095 314.974 541 314.342 541.01 313.701C541.135 305.332 549.137 290.856 555.164 285.099C569.855 271.066 595.619 275.294 614.257 275.573C607.918 278.368 601.442 280.83 594.99 283.347L594.428 283.348C589.486 283.312 584.654 282.192 579.749 281.737C570.269 280.858 561.834 284.939 555.202 291.41C548.242 298.201 544.284 306.5 541.184 315.607Z"/>
	<defs>
		<linearGradient id="gradient_0" gradientUnits="userSpaceOnUse" x1="511.00931" y1="404.20215" x2="510.72186" y2="359.42154">
			<stop offset="0" stop-color="black"/>
			<stop offset="1" stop-color="#320A00"/>
		</linearGradient>
	</defs>
	<path fill="url(#gradient_0)" d="M497.261 357.787C504.687 353.911 514.652 354.247 522.467 356.7C523.355 356.978 524.212 357.303 525.062 357.68C525.374 362.228 515.171 377.068 512.872 383.126C514.489 388.265 516.491 393.006 520.744 396.569C530.21 404.498 543.629 402.494 554.908 401.409C547.821 404.128 541.283 406.116 533.611 405.15C523.69 403.901 517.292 399.231 511.323 391.447C508.178 396.081 504.789 399.823 499.653 402.332C488.684 407.691 478.519 404.842 467.617 401.175C477.665 401.17 487.867 403.847 497.414 399.247C504.667 395.752 507.713 389.068 510.134 381.884C505.304 374.656 499.421 366.246 497.261 357.787Z"/>
	<path fill="#FEFEFE" d="M497.261 357.787C504.687 353.911 514.652 354.247 522.467 356.7C523.355 356.978 524.212 357.303 525.062 357.68C523.353 358.492 521.629 359.301 519.86 359.978C511.754 363.078 504.852 361.147 497.261 357.787Z"/>
	<path fill="#FE6600" d="M541.184 315.607C544.284 306.5 548.242 298.201 555.202 291.41C561.834 284.939 570.269 280.858 579.749 281.737C584.654 282.192 589.486 283.312 594.428 283.348L594.99 283.347C597.896 289.348 597.021 294.45 594.944 300.552C592.273 308.4 585.75 314.431 578.417 317.985C567.131 323.454 551.936 324.66 539.76 322.03L541.184 315.607Z"/>
	<path d="M563.943 291.835C567.15 292.602 569.416 293.519 571.607 296.095C573.551 298.382 574.706 301.203 574.303 304.231C573.912 307.171 572.316 308.824 570.047 310.554C567.352 310.573 565.193 310.395 563.023 308.601C560.988 306.92 559.918 304.471 559.781 301.863C559.563 297.717 561.315 294.847 563.943 291.835Z"/>
	<path fill="#FE6600" d="M433.548 282.094C447.284 280.98 457.366 281.417 468.388 290.76C476.828 297.914 480.974 307.279 484.209 317.62C484.434 319.236 484.74 320.687 484.283 322.293C483.641 322.696 483.027 322.996 482.278 323.159C479.486 323.767 476.365 323.565 473.512 323.535C462.287 323.416 450.417 321.994 440.814 315.724C433.241 310.779 427.74 303.169 426.023 294.229C425.505 291.535 424.837 286.172 426.857 283.937C428.498 282.122 431.301 282.244 433.548 282.094Z"/>
	<path d="M460.499 292.454C461.697 292.628 462.566 292.83 463.553 293.557C464.932 294.571 465.61 296.495 465.854 298.115C466.341 301.34 465.251 305.06 463.301 307.646C461.69 309.783 459.994 310.389 457.423 310.782C455.081 309.689 453.462 308.667 452.282 306.284C451.34 304.382 451.329 302.318 452.05 300.337C453.556 296.198 456.71 294.185 460.499 292.454Z"/>
	<path fill="#7B1A19" d="M326.255 822.141C332.703 822.098 339.149 822.02 345.595 822.222C351.764 823.453 358.858 822.71 365.171 822.706L401.16 822.709L541.699 822.839L631.909 822.854L658.41 822.848C663.41 822.845 668.68 823.194 673.636 822.526C679.953 824.674 688.85 822.943 695.601 823.341C695.959 828.884 695.74 834.462 695.648 840.013C695.512 856.25 694.758 872.758 696.019 888.94C700.293 894.543 704.397 899.939 706.929 906.598C708.11 908.134 719.139 910.648 721.806 911.618C750.868 922.196 773.912 945.198 780.552 975.749C737.259 976.466 693.844 975.819 650.539 975.805L395.736 975.776C345.894 975.772 296.036 975.336 246.2 976.026C249.109 954.871 260.092 936.772 277.023 923.878C286.303 916.811 296.357 912.835 307.51 909.77C308.422 909.519 310.902 909.245 311.079 908.109C314.428 900.191 319.207 894.225 326.494 889.594C326.449 885.1 326.443 880.619 326.555 876.125C326.293 870.382 326.382 864.583 326.509 858.837C325.645 852.08 326.282 844.191 326.278 837.334C326.432 832.279 326.291 827.198 326.255 822.141Z"/>
	<path fill="#FE6600" d="M326.494 889.594C338.979 888.453 351.572 888.969 364.091 888.972L423.162 888.972L623.222 889.232L667.356 889.261C675.619 889.327 688.336 890.788 696.019 888.94C700.293 894.543 704.397 899.939 706.929 906.598C702.02 908.017 692.629 906.848 687.197 906.856L636.884 907.028L410.524 907.025L334.144 906.726C330.523 906.74 312.589 908.796 311.079 908.109C314.428 900.191 319.207 894.225 326.494 889.594Z"/>
	<path fill="#7B1A19" d="M326.255 822.141C332.703 822.098 339.149 822.02 345.595 822.222C351.764 823.453 358.858 822.71 365.171 822.706L401.16 822.709L541.699 822.839L631.909 822.854L658.41 822.848C663.41 822.845 668.68 823.194 673.636 822.526C679.953 824.674 688.85 822.943 695.601 823.341C695.959 828.884 695.74 834.462 695.648 840.013C695.512 856.25 694.758 872.758 696.019 888.94C688.336 890.788 675.619 889.327 667.356 889.261L623.222 889.232L423.162 888.972L364.091 888.972C351.572 888.969 338.979 888.453 326.494 889.594C326.449 885.1 326.443 880.619 326.555 876.125C326.293 870.382 326.382 864.583 326.509 858.837C325.645 852.08 326.282 844.191 326.278 837.334C326.432 832.279 326.291 827.198 326.255 822.141Z"/>
	<path fill="#FE6600" d="M326.255 822.141C332.703 822.098 339.149 822.02 345.595 822.222C351.764 823.453 358.858 822.71 365.171 822.706L401.16 822.709L541.699 822.839L631.909 822.854L658.41 822.848C663.41 822.845 668.68 823.194 673.636 822.526C679.953 824.674 688.85 822.943 695.601 823.341C695.959 828.884 695.74 834.462 695.648 840.013C661.769 840.015 328.325 840.706 326.677 839.647L326.278 837.334C326.432 832.279 326.291 827.198 326.255 822.141Z"/>
	<path fill="#FE3232" d="M610.231 453.541C614.847 457.44 619.728 461.309 623.603 465.969C623.68 466.114 623.755 466.26 623.834 466.404C626.975 472.146 632.012 476.97 636.073 482.078C640.34 487.444 644.095 493.467 647.59 499.365C672.39 541.22 684.175 574.168 684.06 623.06C684.011 644.106 681.444 665.004 675.732 685.288C668.073 712.484 655.463 737.176 638.874 759.993C644.88 771.866 651.501 783.382 658.119 794.919C662 801.686 665.769 808.867 670.179 815.282C671.102 817.858 672.319 820.138 673.636 822.526C668.68 823.194 663.41 822.845 658.41 822.848L631.909 822.854L541.699 822.839L401.16 822.709L365.171 822.706C358.858 822.71 351.764 823.453 345.595 822.222C346.463 821.746 346.279 821.971 346.827 821.254C350.403 816.579 353.484 811.292 356.689 806.35C364.707 793.987 372.315 781.534 379.572 768.709C419.201 698.677 447.92 616.855 449.505 535.809C449.859 517.701 448.246 499.928 446.282 481.956L448.829 482.859C490.818 497.507 537.013 499.185 577.782 479.495C574.274 504.319 572.288 529.243 573.621 554.323C576.753 613.27 600.105 688.826 628.151 740.812C642.291 718.356 652.052 693.748 657.356 667.726C669.424 608.516 658.182 550.614 633.19 496.322C626.415 481.604 619.165 467.084 610.231 453.541Z"/>
	<path fill="#FE6600" d="M511.702 624.043C515.962 627.003 519.76 631.396 523.421 635.088L540.763 652.529C563.46 675.235 586.453 697.475 608.201 721.12C595.776 732.782 516.025 816.193 511.71 817.265C497.912 806.5 486.298 792.849 473.836 780.599L439.737 747.015C430.993 738.526 422.013 730.223 413.568 721.436L511.702 624.043Z"/>
</svg>
