<?xml version="1.0" encoding="utf-8" ?>
<svg xmlns="http://www.w3.org/2000/svg" xmlns:xlink="http://www.w3.org/1999/xlink" width="1023" height="1024">
	<path fill="#C73200" d="M511.603 41.7302C517.724 43.197 523.082 45.2238 526.605 50.8592C528.95 54.6096 529.649 59.1276 528.477 63.3999C527.322 67.6057 524.325 70.9035 520.509 72.9196C517.722 74.3921 514.637 75.1411 511.553 75.688C510.857 64.5022 511.52 52.9475 511.603 41.7302Z"/>
	<path fill="#7B1A19" d="M511.553 75.688C507.367 75.2577 503.717 74.7029 500.085 72.3498C496.44 69.9886 493.745 66.289 492.885 62.0079C492.037 57.7823 493.093 53.3368 495.582 49.8394C499.602 44.1894 505.179 42.796 511.603 41.7302C511.52 52.9475 510.857 64.5022 511.553 75.688Z"/>
	<path fill="#7B1A19" d="M830.465 752.768C836.773 758.758 841.203 767.108 845.584 774.576C833.727 799.595 816.917 820.731 795.856 838.65C795.37 831.302 793.266 815.537 791.65 808.373C792.591 804.814 803.199 794.683 806.231 791.005C816.513 778.537 821.953 767.474 829.732 753.762L830.465 752.768Z"/>
	<path fill="#FE6600" d="M831.438 581.955C840.291 597.356 848.206 612.954 854.059 629.767C866.221 664.706 868.498 704.185 858.841 739.974C855.599 751.991 851.142 763.448 845.584 774.576C841.203 767.108 836.773 758.758 830.465 752.768C833.595 743.793 837.097 735.106 839.566 725.9C848.588 692.264 847.242 652.937 834.451 620.391C830.526 610.403 825.304 601.497 819.986 592.226C824.029 589.055 827.746 585.523 831.438 581.955Z"/>
	<path fill="#7B1A19" d="M719.744 78.8565C711.726 112.096 703.225 145.318 694.543 178.388L686.618 207.68C684.774 214.533 682.485 221.532 681.948 228.63C677.547 223.408 673.735 217.663 669.053 212.689C674.428 200.889 676.731 187.287 680.2 174.81C686.671 151.541 693.588 128.374 699.349 104.917C691.964 108.661 684.857 113.248 677.654 117.351L639.784 138.54C628.697 144.864 617.699 151.613 606.334 157.414C602.969 155.205 599.575 153.045 596.174 150.891L595.451 150.378C609.639 138.666 631.683 127.887 648.014 118.734C671.859 105.368 695.572 91.614 719.744 78.8565Z"/>
	<path fill="#C73200" d="M775.024 433.148C774.974 438.232 765.179 447.544 762.066 452.122C737.195 488.693 739.514 535.84 754.997 575.371C757.888 582.751 761.442 589.859 764.984 596.943C766.659 600.294 768.707 603.72 770.057 607.205L770.361 607.408C779.291 621.79 785.253 636.344 789.073 652.872C790.247 657.954 790.115 663.699 791.932 668.568C792.465 693.785 789.742 722.754 775.418 744.31C773.385 738.368 770.875 732.588 768.695 726.696C766.74 721.408 765.081 715.611 762.614 710.566C760.341 706.564 758.817 701.535 756.952 697.276C754.807 692.375 748.756 681.126 747.804 676.564C750.694 653.864 746.308 632.091 738.537 610.834C727.142 579.662 710.156 551.063 716.575 516.454C722.878 482.469 747.198 452.375 775.024 433.148Z"/>
	<path fill="#7B1A19" d="M761.941 605.392L770.057 607.205L770.361 607.408C779.291 621.79 785.253 636.344 789.073 652.872C790.247 657.954 790.115 663.699 791.932 668.568C792.465 693.785 789.742 722.754 775.418 744.31C773.385 738.368 770.875 732.588 768.695 726.696C766.74 721.408 765.081 715.611 762.614 710.566C762.524 707.434 765.273 702.126 766.274 699.01C773.11 677.725 776.336 646.26 770.432 624.827C768.533 617.931 765.184 611.722 761.941 605.392Z"/>
	<path fill="#7B1A19" d="M471.312 96.2261C470.387 96.6836 469.466 97.1293 468.5 97.4944C464.806 98.8898 460.574 99.1321 456.94 97.4286C453.804 95.9584 451.494 93.0022 450.408 89.758C449.18 86.0881 449.531 82.0634 451.331 78.6378C452.891 75.67 455.507 73.4312 458.768 72.5717C462.412 71.6114 467.01 72.3064 470.176 74.3611C472.852 76.0981 474.648 78.8993 475.292 82.0084C476.223 86.4988 474.991 90.9604 472.554 94.7491C472.45 94.9109 472.342 95.0705 472.237 95.2312C477.753 94.8785 480.392 96.4271 484.745 99.6257L484.778 99.2022C485.338 92.7422 487.407 86.6204 492.655 82.4447C498.332 77.9271 506.744 76.5864 513.837 77.2896L512.101 77.7294C511.026 86.0891 512.18 95.6292 512.513 104.082C512.928 114.601 512.915 125.548 512.207 136.059C526.046 135.54 540.109 135.276 553.937 136.197C514.604 146.974 485.541 171.314 465.543 206.401C465.125 207.135 465.273 206.85 464.946 207.582C453.072 190.389 442.218 173.162 426.942 158.659C424.595 156.807 422.206 154.991 419.909 153.079C417.992 154.137 416.338 155.216 414.671 156.637C402.344 148.754 388.969 141.962 376.244 134.699C359.205 124.973 342.165 114.496 324.476 106.005C330.189 131.052 336.91 156 343.318 180.879C346.581 193.547 351.341 207.158 352.364 220.155C349.185 225.072 345.821 229.932 341.767 234.177C340.121 225.728 337.341 217.315 335.323 208.921L319.743 144.832L309.516 103.443C307.568 95.4473 305.927 87.1697 303.411 79.3414C312.989 83.6625 321.999 89.1542 331.148 94.2956L368.283 114.934L405.968 135.812C414.079 140.246 422.495 144.369 430.221 149.452C440.926 142.876 452.55 139.201 464.548 135.822C461.032 131.138 458.666 125.718 458.643 119.768C458.604 109.898 464.925 102.89 471.312 96.2261Z"/>
	<path fill="#C20500" d="M545.773 84.6201C546.995 80.1541 548.621 76.2537 552.807 73.7531C556.079 71.7988 559.823 70.8749 563.567 71.8786C567.35 72.8925 570.421 75.6907 572.218 79.1163C573.995 82.5047 574.508 86.4834 573.217 90.1295C572.065 93.3816 569.594 95.796 566.431 97.0998C563.049 98.494 559.066 98.6066 555.505 98.0007L554.692 97.8671C554.529 97.8387 554.368 97.8052 554.206 97.7743C559.87 105.469 565.314 113.011 563.661 123.195C562.908 127.84 560.917 131.687 558.662 135.732C571.434 139.782 583.679 143.899 595.451 150.378L596.174 150.891C587.486 162.351 578.727 173.707 570.777 185.704C548.236 219.721 524.542 266.651 512.338 305.664C504.493 283.284 492.837 257.936 481.611 237.053C476.277 227.13 470.118 217.552 464.946 207.582C465.273 206.85 465.125 207.135 465.543 206.401C485.541 171.314 514.604 146.974 553.937 136.197C540.109 135.276 526.046 135.54 512.207 136.059C512.915 125.548 512.928 114.601 512.513 104.082C512.18 95.6292 511.026 86.0891 512.101 77.7294L513.837 77.2896C521.503 77.8926 529.143 79.7465 534.464 85.7941C538.019 89.8337 539.296 94.4736 540.482 99.5559C543.431 97.5545 546.735 96.1037 549.987 94.6657C547.767 91.4379 546.562 88.4157 545.773 84.6201Z"/>
	<path fill="#FDB474" d="M775.024 433.148C777.026 431.55 778.894 430.37 781.527 430.479C782.928 431.212 783.664 431.729 784.117 433.303C785.047 436.535 783.899 438.27 782.323 440.924C780.62 448.43 778.932 456.042 778.278 463.723C775.891 491.798 785.644 518.033 800.42 541.443C805.158 548.949 810.287 556.554 816.014 563.345C821.225 569.523 827.283 574.954 831.438 581.955C827.746 585.523 824.029 589.055 819.986 592.226C825.304 601.497 830.526 610.403 834.451 620.391C847.242 652.937 848.588 692.264 839.566 725.9C837.097 735.106 833.595 743.793 830.465 752.768L829.732 753.762C827.903 753.543 825.938 752.663 824.394 751.686C811.642 743.62 822.214 725.675 819.581 714.329C819.549 714.193 819.512 714.059 819.477 713.923C819.54 712.977 819.88 711.981 820.104 711.056C816.319 706.933 813.601 701.419 810.725 696.627C804.985 687.062 799.174 677.077 791.932 668.568C790.115 663.699 790.247 657.954 789.073 652.872C785.253 636.344 779.291 621.79 770.361 607.408L770.057 607.205C768.707 603.72 766.659 600.294 764.984 596.943C761.442 589.859 757.888 582.751 754.997 575.371C739.514 535.84 737.195 488.693 762.066 452.122C765.179 447.544 774.974 438.232 775.024 433.148Z"/>
	<path fill="#C73200" d="M800.521 600.587C819.176 637.364 826.347 669.865 820.104 711.056C816.319 706.933 813.601 701.419 810.725 696.627C804.985 687.062 799.174 677.077 791.932 668.568C790.115 663.699 790.247 657.954 789.073 652.872C785.253 636.344 779.291 621.79 770.361 607.408C771.226 607.176 770.953 607.197 771.703 607.153C781.813 606.555 791.014 603.861 800.521 600.587Z"/>
	<path fill="#FE6600" d="M775.024 433.148C777.026 431.55 778.894 430.37 781.527 430.479C782.928 431.212 783.664 431.729 784.117 433.303C785.047 436.535 783.899 438.27 782.323 440.924C769.062 453.466 763.743 481.22 763.197 498.642C762.248 528.866 774.925 554.901 789.267 580.502C792.955 587.086 797.377 593.755 800.521 600.587C791.014 603.861 781.813 606.555 771.703 607.153C770.953 607.197 771.226 607.176 770.361 607.408L770.057 607.205C768.707 603.72 766.659 600.294 764.984 596.943C761.442 589.859 757.888 582.751 754.997 575.371C739.514 535.84 737.195 488.693 762.066 452.122C765.179 447.544 774.974 438.232 775.024 433.148Z"/>
	<path fill="#C73200" d="M324.476 106.005C342.165 114.496 359.205 124.973 376.244 134.699C388.969 141.962 402.344 148.754 414.671 156.637C416.338 155.216 417.992 154.137 419.909 153.079C422.206 154.991 424.595 156.807 426.942 158.659C390.338 220.954 370.393 287.996 389.157 359.855C393.216 375.399 399.095 390.616 406.897 404.672C411.074 412.197 416.773 419.82 419.709 427.878C390.621 419.51 366.06 412.034 337.993 400.064C330.759 396.978 323.678 393.72 316.675 390.136C310.605 387.028 304.249 382.683 297.715 380.874C295.249 377.061 280.368 369.63 275.219 365.895C267.354 360.189 260.754 353.639 253.955 346.747C279.483 346.584 304.099 344.251 329.469 341.733C300.39 334.893 278.811 323.997 260.985 299.404C276.858 299.48 292.703 299.519 308.544 298.334C319.408 297.521 330.172 295.886 341.004 294.78C312.026 283.226 299.562 275.192 285.058 246.641C286.493 247.517 287.944 248.381 289.434 249.161C298.752 254.046 309.902 256.88 320.214 253.646C329.731 250.661 337.217 242.856 341.767 234.177C345.821 229.932 349.185 225.072 352.364 220.155C351.341 207.158 346.581 193.547 343.318 180.879C336.91 156 330.189 131.052 324.476 106.005Z"/>
	<path fill="#FE6600" d="M338.483 124.209C347.703 127.047 358.231 134.822 366.765 139.723C380.25 147.466 394.174 154.593 407.223 163.068C399.001 170.61 390.258 177.554 382.058 185.182C374.148 193.337 367.378 202.178 360.388 211.092C356.003 196.17 353.105 180.701 349.259 165.618C345.761 151.898 341.086 138.09 338.483 124.209Z"/>
	<path fill="#7B1A19" d="M297.715 380.874C304.249 382.683 310.605 387.028 316.675 390.136C323.678 393.72 330.759 396.978 337.993 400.064C366.06 412.034 390.621 419.51 419.709 427.878C424.837 428.554 430.318 430.356 435.428 431.433C445.955 433.652 456.607 435.514 467.291 436.793C535.768 444.991 605.014 434.422 668.97 409.122C680.543 404.544 691.918 399.014 702.935 393.235C709.473 389.806 715.915 385.765 722.829 383.14L723.454 382.91C713.791 402.467 703.325 421.707 692.99 440.917C687.985 450.219 682.343 459.528 678.032 469.16C685.373 472.488 691.593 476.32 694.64 484.253C696.952 490.273 696.502 496.992 693.698 502.769C690.501 509.357 684.446 514.236 677.48 516.371C675.527 516.969 673.465 517.283 671.441 517.535L554.205 517.603L523.253 517.489C517.954 517.469 511.471 516.757 506.34 517.92C499.862 518.622 492.666 517.864 486.103 517.848L442.884 517.693C434.043 517.598 424.641 517.008 415.852 517.652C410.179 518.311 403.862 518.887 398.173 518.787C393.552 518.705 388.952 518.095 384.324 518.039C373.033 517.9 361.723 518.032 350.43 518.035C347.407 517.712 344.029 516.803 341.219 515.627C334.948 513 329.545 507.728 327.123 501.334C324.849 495.332 325.141 488.704 327.973 482.947C331.706 475.36 338.147 471.02 345.856 468.236C330.052 438.981 314.196 409.755 297.715 380.874Z"/>
	<path fill="#C20500" d="M415.852 517.652C409.705 514.067 403.889 510.924 399.512 505.128C395.885 500.325 394.085 494.26 395.029 488.27C396.023 481.964 399.771 476.359 404.891 472.624C409.573 469.209 413.949 468.383 419.555 467.932C433.733 466.792 448.575 467.754 462.83 467.733L552.637 467.738L628.566 467.738C644.051 467.717 662.964 466.595 678.032 469.16C685.373 472.488 691.593 476.32 694.64 484.253C696.952 490.273 696.502 496.992 693.698 502.769C690.501 509.357 684.446 514.236 677.48 516.371C675.527 516.969 673.465 517.283 671.441 517.535L554.205 517.603L523.253 517.489C517.954 517.469 511.471 516.757 506.34 517.92C499.862 518.622 492.666 517.864 486.103 517.848L442.884 517.693C434.043 517.598 424.641 517.008 415.852 517.652Z"/>
	<path fill="#C20500" d="M544.851 645.048C564.982 644.004 585.203 644.99 605.36 645.013L732.921 644.857C738.337 655.256 743.471 665.658 747.804 676.564C748.756 681.126 754.807 692.375 756.952 697.276C758.817 701.535 760.341 706.564 762.614 710.566C765.081 715.611 766.74 721.408 768.695 726.696C770.875 732.588 773.385 738.368 775.418 744.31C789.742 722.754 792.465 693.785 791.932 668.568C799.174 677.077 804.985 687.062 810.725 696.627C813.601 701.419 816.319 706.933 820.104 711.056C819.88 711.981 819.54 712.977 819.477 713.923C819.512 714.059 819.549 714.193 819.581 714.329C822.214 725.675 811.642 743.62 824.394 751.686C825.938 752.663 827.903 753.543 829.732 753.762C821.953 767.474 816.513 778.537 806.231 791.005C803.199 794.683 792.591 804.814 791.65 808.373C793.266 815.537 795.37 831.302 795.856 838.65L795.419 839.986C796.163 845.29 796.746 850.555 796.591 855.919C796.983 860.313 796.923 864.677 796.88 869.082C794.95 868.232 632.58 869.265 613.972 868.912L613.771 866.571C609.366 857.37 606.079 847.442 602.584 837.861C596.643 821.577 590.883 805.205 585.625 788.688L585.285 788.041C582.447 775.209 576.772 762.815 573.638 749.986L573.206 749.755C569.398 740.137 566.96 729.166 564.138 719.186C557.184 694.596 550.907 669.87 544.851 645.048Z"/>
	<path fill="#9A8266" d="M819.477 713.923C819.512 714.059 819.549 714.193 819.581 714.329C822.214 725.675 811.642 743.62 824.394 751.686C825.938 752.663 827.903 753.543 829.732 753.762C821.953 767.474 816.513 778.537 806.231 791.005C803.199 794.683 792.591 804.814 791.65 808.373C790.02 797.517 787.435 786.789 784.886 776.119C803.034 759.586 811.557 736.587 819.477 713.923Z"/>
	<path fill="#FDB474" d="M573.638 749.986L698.501 749.954C715.026 749.878 731.488 749.64 748.016 749.741C757.674 749.801 767.223 749.713 776.857 750.571C779.831 758.915 783.27 767.395 784.886 776.119C787.435 786.789 790.02 797.517 791.65 808.373C793.266 815.537 795.37 831.302 795.856 838.65L795.419 839.986C796.163 845.29 796.746 850.555 796.591 855.919C796.983 860.313 796.923 864.677 796.88 869.082C794.95 868.232 632.58 869.265 613.972 868.912L613.771 866.571C609.366 857.37 606.079 847.442 602.584 837.861C596.643 821.577 590.883 805.205 585.625 788.688L585.285 788.041C582.447 775.209 576.772 762.815 573.638 749.986Z"/>
	<path fill="#FE6600" d="M585.625 788.688C598.879 794.878 611.897 801.713 625.436 807.26C668.93 825.079 719.511 837.276 766.48 839.865C776.07 840.393 785.813 840.036 795.419 839.986C796.163 845.29 796.746 850.555 796.591 855.919C796.983 860.313 796.923 864.677 796.88 869.082C794.95 868.232 632.58 869.265 613.972 868.912L613.771 866.571C609.366 857.37 606.079 847.442 602.584 837.861C596.643 821.577 590.883 805.205 585.625 788.688Z"/>
	<path fill="#C73200" d="M796.591 855.919C796.983 860.313 796.923 864.677 796.88 869.082C794.95 868.232 632.58 869.265 613.972 868.912L613.771 866.571C629.018 866.034 644.253 864.851 659.5 864.429C687.359 863.657 715.129 863.754 742.989 863.787C760.773 863.808 778.729 863.532 796.489 864.458C796.44 861.601 796.463 858.774 796.591 855.919Z"/>
	<path fill="#C20500" d="M415.852 517.652C424.641 517.008 434.043 517.598 442.884 517.693L486.103 517.848C492.666 517.864 499.862 518.622 506.34 517.92C511.471 516.757 517.954 517.469 523.253 517.489L554.205 517.603L671.441 517.535C673.623 521.942 675.82 526.342 677.91 530.794C680.518 536.073 683.111 541.357 685.87 546.559C692.615 559.184 698.485 572.229 704.668 585.131C710.596 597.502 716.793 609.754 722.584 622.189C726.086 629.709 729.27 637.413 732.921 644.857L605.36 645.013C585.203 644.99 564.982 644.004 544.851 645.048C550.907 669.87 557.184 694.596 564.138 719.186C566.96 729.166 569.398 740.137 573.206 749.755C559.474 751.042 545.076 749.817 531.25 750.056L529.68 749.916C526.825 745.891 521.611 742.426 517.995 738.917C512.289 733.383 506.874 727.509 501.541 721.617C479.414 697.167 459.132 671.88 440.116 644.945C442.479 644.95 444.803 644.79 447.157 644.607C444.547 644.588 441.876 644.428 439.293 644.84L419.851 645.04L419.637 644.942C400.232 645.669 380.54 644.996 361.108 645.002C341.094 645.007 320.816 645.748 300.851 644.292C296.486 643.151 291.273 644.449 286.65 643.531C305.488 603.741 326.628 565.407 350.444 528.394L350.43 518.035C361.723 518.032 373.033 517.9 384.324 518.039C388.952 518.095 393.552 518.705 398.173 518.787C403.862 518.887 410.179 518.311 415.852 517.652Z"/>
	<path fill="#7B1A19" d="M506.34 517.92C511.471 516.757 517.954 517.469 523.253 517.489L554.205 517.603L671.441 517.535C673.623 521.942 675.82 526.342 677.91 530.794C673.452 531.738 668.391 531.29 663.845 531.304L634.766 531.193L515.496 531.005C516.653 536.247 518.429 541.522 519.409 546.765C496.34 547.723 473.324 546.714 450.261 547.008C448.324 557.782 444.772 568.69 441.705 579.207C437.03 595.233 432.324 611.213 427 627.038C429.697 630.583 438.752 641.114 439.293 644.84L419.851 645.04L419.637 644.942C421.54 638.845 424.293 632.908 426.926 627.099C421.775 619.408 416.193 612.012 411.044 604.314C398.921 586.189 388.068 567.083 379.846 546.868C403.21 545.914 426.801 546.455 450.169 547.022C451.508 541.755 452.717 536.522 453.6 531.156C473.424 529.843 494.627 531.258 514.768 530.89C515.108 527.072 513.446 521.811 511.434 518.588C509.969 517.609 508.041 517.889 506.34 517.92Z"/>
	<path fill="#3E0000" d="M415.852 517.652C424.641 517.008 434.043 517.598 442.884 517.693L486.103 517.848C492.666 517.864 499.862 518.622 506.34 517.92C508.041 517.889 509.969 517.609 511.434 518.588C513.446 521.811 515.108 527.072 514.768 530.89C494.627 531.258 473.424 529.843 453.6 531.156C452.717 536.522 451.508 541.755 450.169 547.022C426.801 546.455 403.21 545.914 379.846 546.868C388.068 567.083 398.921 586.189 411.044 604.314C416.193 612.012 421.775 619.408 426.926 627.099C424.293 632.908 421.54 638.845 419.637 644.942C400.232 645.669 380.54 644.996 361.108 645.002C341.094 645.007 320.816 645.748 300.851 644.292C296.486 643.151 291.273 644.449 286.65 643.531C305.488 603.741 326.628 565.407 350.444 528.394L350.43 518.035C361.723 518.032 373.033 517.9 384.324 518.039C388.952 518.095 393.552 518.705 398.173 518.787C403.862 518.887 410.179 518.311 415.852 517.652Z"/>
	<path fill="#FDB474" d="M685.87 546.559C692.615 559.184 698.485 572.229 704.668 585.131C710.596 597.502 716.793 609.754 722.584 622.189C726.086 629.709 729.27 637.413 732.921 644.857L605.36 645.013C585.203 644.99 564.982 644.004 544.851 645.048C550.907 669.87 557.184 694.596 564.138 719.186C566.96 729.166 569.398 740.137 573.206 749.755C559.474 751.042 545.076 749.817 531.25 750.056L529.68 749.916C526.825 745.891 521.611 742.426 517.995 738.917C512.289 733.383 506.874 727.509 501.541 721.617C479.414 697.167 459.132 671.88 440.116 644.945C442.479 644.95 444.803 644.79 447.157 644.607C459.172 644.176 471.263 644.967 483.29 645.01C503.627 645.083 523.977 644.659 544.315 644.514C535.55 612.229 527.794 579.573 519.638 547.124C532.1 545.608 549.917 546.761 562.986 546.763L652.055 546.728C663.173 546.696 674.888 548.195 685.87 546.559Z"/>
	<path fill="#7B1A19" d="M286.65 643.531C291.273 644.449 296.486 643.151 300.851 644.292C320.816 645.748 341.094 645.007 361.108 645.002C380.54 644.996 400.232 645.669 419.637 644.942L419.851 645.04L439.293 644.84C441.876 644.428 444.547 644.588 447.157 644.607C444.803 644.79 442.479 644.95 440.116 644.945C459.132 671.88 479.414 697.167 501.541 721.617C506.874 727.509 512.289 733.383 517.995 738.917C521.611 742.426 526.825 745.891 529.68 749.916L531.25 750.056C545.076 749.817 559.474 751.042 573.206 749.755L573.638 749.986C576.772 762.815 582.447 775.209 585.285 788.041L585.625 788.688C590.883 805.205 596.643 821.577 602.584 837.861C606.079 847.442 609.366 857.37 613.771 866.571L613.972 868.912C606.911 869.936 599.425 869.677 592.288 869.788C575.953 870.042 559.603 869.803 543.268 869.589C529.833 869.413 515.938 870.285 502.564 869.457C476.954 870.058 451.196 869.495 425.573 869.497L292.583 869.438C278.032 868.505 260.037 869.51 245.216 869.725C237.734 869.833 229.887 870.185 222.472 869.061C223.923 861.963 224.146 854.23 225.022 847.009C226.578 834.178 228.581 821.391 231.068 808.708C239.114 767.69 250.708 732.705 265.699 694.067C272.296 677.063 279.026 660.107 286.65 643.531Z"/>
	<path fill="#C73200" d="M300.851 644.292C320.816 645.748 341.094 645.007 361.108 645.002C380.54 644.996 400.232 645.669 419.637 644.942L419.851 645.04C407.579 676.695 392.789 707.892 376.764 737.824C374.615 741.837 371.973 745.565 369.823 749.545L369.376 749.969C360.106 749.839 350.83 749.929 341.559 749.952C323.642 722.472 309.712 689.313 302.114 657.486C301.214 653.718 299.172 648.656 299.445 644.811L300.851 644.292Z"/>
	<path fill="#C20500" d="M439.293 644.84C441.876 644.428 444.547 644.588 447.157 644.607C444.803 644.79 442.479 644.95 440.116 644.945C459.132 671.88 479.414 697.167 501.541 721.617C506.874 727.509 512.289 733.383 517.995 738.917C521.611 742.426 526.825 745.891 529.68 749.916L531.25 750.056C545.076 749.817 559.474 751.042 573.206 749.755L573.638 749.986C576.772 762.815 582.447 775.209 585.285 788.041L585.625 788.688C590.883 805.205 596.643 821.577 602.584 837.861C606.079 847.442 609.366 857.37 613.771 866.571L613.972 868.912C606.911 869.936 599.425 869.677 592.288 869.788C575.953 870.042 559.603 869.803 543.268 869.589C529.833 869.413 515.938 870.285 502.564 869.457C498.686 866.403 474.201 858.467 467.171 855.495C430.785 840.109 398.802 817.973 371.724 789.2C366.219 783.351 360.37 777.672 356.187 770.766C360.743 763.914 364.988 756.923 369.376 749.969L369.823 749.545C371.973 745.565 374.615 741.837 376.764 737.824C392.789 707.892 407.579 676.695 419.851 645.04L439.293 644.84Z"/>
	<path fill="#C73200" d="M531.25 750.056C545.076 749.817 559.474 751.042 573.206 749.755L573.638 749.986C576.772 762.815 582.447 775.209 585.285 788.041C574.09 784.06 540.389 758.947 531.25 750.056Z"/>
	<path fill="#FE6600" d="M439.293 644.84C441.876 644.428 444.547 644.588 447.157 644.607C444.803 644.79 442.479 644.95 440.116 644.945C459.132 671.88 479.414 697.167 501.541 721.617C506.874 727.509 512.289 733.383 517.995 738.917C521.611 742.426 526.825 745.891 529.68 749.916C513.37 750.448 496.903 750.006 480.576 749.985L369.823 749.545C371.973 745.565 374.615 741.837 376.764 737.824C392.789 707.892 407.579 676.695 419.851 645.04L439.293 644.84Z"/>
	<path fill="#7B1A19" d="M613.972 868.912C632.58 869.265 794.95 868.232 796.88 869.082C799.103 870.975 814.54 869.57 818.53 869.619C818.57 876.912 818.668 884.211 818.608 891.504C827.759 890.71 837.286 891.156 846.476 891.11L846.493 932.538L861.224 933.137C863.831 936.041 866.488 938.913 869.032 941.872C872.062 944.407 874.872 947.981 877.571 950.881C885.502 959.405 893.311 967.981 900.635 977.038C848.004 976.083 795.364 976.74 742.728 976.792L492.924 976.804L196.28 977.05C171.337 977.216 146.347 976.397 121.4 976.915C132.183 964.125 144.488 952.447 156.018 940.318C159.175 936.948 162.316 933.947 166.205 931.428C168.789 931.418 171.39 931.586 173.973 931.68C174.769 925.688 174.392 919.489 174.346 913.459L174.36 891.282C184.167 890.713 194.152 891.062 203.981 891.04L204.054 869.484C210.3 869.77 216.264 870.042 222.472 869.061C229.887 870.185 237.734 869.833 245.216 869.725C260.037 869.51 278.032 868.505 292.583 869.438L425.573 869.497C451.196 869.495 476.954 870.058 502.564 869.457C515.938 870.285 529.833 869.413 543.268 869.589C559.603 869.803 575.953 870.042 592.288 869.788C599.425 869.677 606.911 869.936 613.972 868.912Z"/>
	<path fill="#3E0000" d="M222.472 869.061C229.887 870.185 237.734 869.833 245.216 869.725C260.037 869.51 278.032 868.505 292.583 869.438C292.828 876.616 292.957 883.774 292.938 890.957L290.35 891.341C285.862 894.846 281.723 898.757 277.531 902.605C286.057 912.158 293.348 922.387 301.235 932.43C313.301 933.167 325.315 932.814 337.391 932.761L384.679 932.753L546.385 932.772L743.653 932.772L807.599 932.778C820.541 932.783 833.562 933.072 846.493 932.538L861.224 933.137C863.831 936.041 866.488 938.913 869.032 941.872C865.585 943.401 861.021 943.141 857.288 943.294C831.19 944.364 804.749 943.544 778.619 943.316L693.503 943.287L327.365 942.995L212.064 943.297L177.498 942.964C172.321 942.943 166.842 943.564 161.711 942.988C159.079 942.692 157.708 942.421 156.018 940.318C159.175 936.948 162.316 933.947 166.205 931.428C168.789 931.418 171.39 931.586 173.973 931.68C174.769 925.688 174.392 919.489 174.346 913.459L174.36 891.282C184.167 890.713 194.152 891.062 203.981 891.04L204.054 869.484C210.3 869.77 216.264 870.042 222.472 869.061Z"/>
	<path fill="#7B1A19" d="M222.472 869.061C229.887 870.185 237.734 869.833 245.216 869.725C260.037 869.51 278.032 868.505 292.583 869.438C292.828 876.616 292.957 883.774 292.938 890.957L290.35 891.341C285.862 894.846 281.723 898.757 277.531 902.605C286.057 912.158 293.348 922.387 301.235 932.43C291.47 930.737 280.707 931.919 270.798 931.969L204.596 931.731C194.674 931.718 183.777 932.975 173.973 931.68C174.769 925.688 174.392 919.489 174.346 913.459L174.36 891.282C184.167 890.713 194.152 891.062 203.981 891.04L204.054 869.484C210.3 869.77 216.264 870.042 222.472 869.061Z"/>
	<path fill="#C73200" d="M222.472 869.061C229.887 870.185 237.734 869.833 245.216 869.725C260.037 869.51 278.032 868.505 292.583 869.438C292.828 876.616 292.957 883.774 292.938 890.957L290.35 891.341C286.211 890.329 270.067 891.461 264.299 891.471C244.195 891.506 224.095 890.981 203.981 891.04L204.054 869.484C210.3 869.77 216.264 870.042 222.472 869.061Z"/>
	<path fill="#C20500" d="M613.972 868.912C632.58 869.265 794.95 868.232 796.88 869.082C799.103 870.975 814.54 869.57 818.53 869.619C818.57 876.912 818.668 884.211 818.608 891.504C827.759 890.71 837.286 891.156 846.476 891.11L846.493 932.538C833.562 933.072 820.541 932.783 807.599 932.778L743.653 932.772L546.385 932.772L384.679 932.753L337.391 932.761C325.315 932.814 313.301 933.167 301.235 932.43C293.348 922.387 286.057 912.158 277.531 902.605C281.723 898.757 285.862 894.846 290.35 891.341L292.938 890.957C292.957 883.774 292.828 876.616 292.583 869.438L425.573 869.497C451.196 869.495 476.954 870.058 502.564 869.457C515.938 870.285 529.833 869.413 543.268 869.589C559.603 869.803 575.953 870.042 592.288 869.788C599.425 869.677 606.911 869.936 613.972 868.912Z"/>
	<path fill="#FE6600" d="M613.972 868.912C632.58 869.265 794.95 868.232 796.88 869.082C799.103 870.975 814.54 869.57 818.53 869.619C818.57 876.912 818.668 884.211 818.608 891.504C813.59 892.08 807.779 891.41 802.678 891.351L772.089 891.264L658.378 891.274L292.938 890.957C292.957 883.774 292.828 876.616 292.583 869.438L425.573 869.497C451.196 869.495 476.954 870.058 502.564 869.457C515.938 870.285 529.833 869.413 543.268 869.589C559.603 869.803 575.953 870.042 592.288 869.788C599.425 869.677 606.911 869.936 613.972 868.912Z"/>
	<path fill="#FE6600" d="M606.334 157.414C617.699 151.613 628.697 144.864 639.784 138.54L677.654 117.351C684.857 113.248 691.964 108.661 699.349 104.917C693.588 128.374 686.671 151.541 680.2 174.81C676.731 187.287 674.428 200.889 669.053 212.689C673.735 217.663 677.547 223.408 681.948 228.63C683.226 236.423 684.435 243.533 691.251 248.529C700.098 255.013 712.111 255.244 722.478 253.426C727.751 252.501 732.978 251.235 738.185 249.994C729.668 265.695 717.464 279.394 702.22 288.829C697.062 292.022 691.569 294.501 686.325 297.502C711.404 298.673 736.461 299.586 761.569 299.532C742.035 321.613 719.566 334.39 692.23 344.53C699.409 344.635 706.583 345.442 713.754 345.843C733.36 346.938 753.077 348.25 772.706 348.682C763.324 356.15 753.968 363.516 743.907 370.064C737.249 374.398 729.697 378.076 723.454 382.91L722.829 383.14C715.915 385.765 709.473 389.806 702.935 393.235C691.918 399.014 680.543 404.544 668.97 409.122C605.014 434.422 535.768 444.991 467.291 436.793C456.607 435.514 445.955 433.652 435.428 431.433C430.318 430.356 424.837 428.554 419.709 427.878C416.773 419.82 411.074 412.197 406.897 404.672C399.095 390.616 393.216 375.399 389.157 359.855C370.393 287.996 390.338 220.954 426.942 158.659C442.218 173.162 453.072 190.389 464.946 207.582C470.118 217.552 476.277 227.13 481.611 237.053C492.837 257.936 504.493 283.284 512.338 305.664C524.542 266.651 548.236 219.721 570.777 185.704C578.727 173.707 587.486 162.351 596.174 150.891C599.575 153.045 602.969 155.205 606.334 157.414Z"/>
	<path fill="#FEFEFE" d="M587.427 299.487C585.008 299.216 582.995 297.509 581.359 295.787C577.96 292.207 576.476 286.589 576.72 281.748C576.995 276.279 579.762 270.268 584.002 266.738C586.583 264.588 589.243 263.324 592.617 263.621C586.502 267.143 581.659 270.923 579.71 278.109C578.304 283.293 579.208 288.663 581.967 293.238C583.411 295.634 585.311 297.674 587.427 299.487Z"/>
	<path fill="#C73200" d="M426.727 216.595C426.985 216.565 427.243 216.532 427.502 216.504C432.555 215.962 437.232 216.375 441.272 219.79C443.058 221.3 444.908 223.697 444.903 226.16C444.898 228.145 444.02 229.869 442.64 231.261C436.46 237.495 424.182 236.535 416.093 236.536L397.98 237.553C398.609 236.23 399.257 234.917 400.045 233.679C406.383 223.713 415.56 219.229 426.727 216.595Z"/>
	<path fill="#C73200" d="M590.636 215.473C596.213 215.797 601.486 216.572 606.79 218.393C617.147 221.95 624.164 227.074 629.036 237.014L621.191 236.739C612.148 236.654 602.424 237.646 593.505 236.162C590.001 235.578 585.846 234.347 583.787 231.194C582.479 229.191 582.328 226.62 582.854 224.335C583.829 220.098 587.184 217.653 590.636 215.473Z"/>
	<path fill="#180000" d="M424.133 262.1C428.349 261.8 432.644 262.266 436.485 264.121C440.996 266.298 444.213 270.101 445.812 274.83C447.675 280.341 447.261 286.604 444.547 291.761C441.286 297.957 435.842 300.756 429.426 302.618C424.017 302.914 419.17 302.586 414.471 299.523C409.937 296.567 406.758 291.812 405.673 286.517C404.611 281.331 405.547 275.953 408.497 271.539C412.214 265.979 417.836 263.483 424.133 262.1Z"/>
	<path fill="#FEFEFE" d="M434.596 269.956C435.236 269.974 435.875 269.995 436.513 270.045C438.928 270.233 441.009 270.912 442.563 272.872C443.633 274.221 444.102 275.868 443.899 277.579C443.511 280.849 441.515 282.677 439.011 284.547C437.946 284.528 436.808 284.578 435.764 284.345C433.832 283.913 431.803 282.483 430.703 280.846C429.653 279.282 429.343 277.399 429.749 275.566C430.369 272.771 432.314 271.423 434.596 269.956Z"/>
	<path fill="#180000" d="M592.617 263.621C598.511 261.445 604.885 260.862 610.779 263.473C615.698 265.653 619.517 269.854 621.402 274.876C623.432 280.282 623.137 286.358 620.688 291.577C618.249 296.777 613.789 300.79 608.312 302.559C601.859 304.644 594.511 303.347 588.609 300.187C588.205 299.971 587.817 299.728 587.427 299.487C585.311 297.674 583.411 295.634 581.967 293.238C579.208 288.663 578.304 283.293 579.71 278.109C581.659 270.923 586.502 267.143 592.617 263.621Z"/>
	<path fill="#FEFEFE" d="M609.487 269.481C610.647 269.474 611.841 269.42 612.993 269.575C615.037 269.851 617.242 271.158 618.503 272.781C619.709 274.335 620.157 276.219 619.842 278.159C619.304 281.474 617.321 282.955 614.728 284.811L609.511 284.351C608.465 283.697 607.295 283.032 606.445 282.129C605.179 280.784 604.301 278.694 604.433 276.837C604.676 273.423 607.008 271.49 609.487 269.481Z"/>
	<defs>
		<linearGradient id="gradient_0" gradientUnits="userSpaceOnUse" x1="512.71985" y1="395.28967" x2="515.40149" y2="329.33337">
			<stop offset="0" stop-color="black"/>
			<stop offset="1" stop-color="#210100"/>
		</linearGradient>
	</defs>
	<path fill="url(#gradient_0)" d="M512.215 328.725C517.263 328.779 522.921 328.582 527.799 330.076C532.725 331.583 534.792 334.058 536.995 338.435C534.745 346.584 529.722 354.281 523.503 359.965C521.044 362.213 518.203 364.076 515.855 366.437C514.385 367.914 513.444 369.543 513.501 371.678C513.622 376.219 517.262 381.031 520.477 383.951C526.203 389.151 533.761 391.787 541.464 391.338C555.558 390.516 564.084 381.701 572.987 371.814C570.224 378.151 566.015 383.736 560.496 387.93C553.262 393.428 543.872 396.417 534.801 395.044C526.83 393.837 519.031 389.216 514.259 382.716L511.516 379.277C508.3 385.011 504.427 389.401 498.46 392.325C491.095 395.933 482.688 396.263 474.976 393.584C464.893 390.082 457.599 381.974 453.084 372.556C454.813 374.694 456.584 376.771 458.478 378.766C465.406 386.062 474.213 391.02 484.476 391.179C491.568 391.289 499.029 388.9 504.102 383.817C508.749 379.161 509.719 373.917 509.774 367.639C501.627 361.809 489.004 350.69 487.525 340.24C487.207 337.991 487.688 335.818 489.197 334.081C494.036 328.511 505.42 329.119 512.215 328.725Z"/>
	<path fill="#FDB474" d="M682.053 124.035C682.078 124.057 682.111 124.073 682.127 124.101C682.295 124.39 682.518 124.658 682.602 124.981C683.066 126.764 663.934 196.022 661.712 204.08C654.731 196.141 646.846 188.83 639.368 181.353C632.345 174.468 624.4 168.328 616.386 162.65C625.068 155.724 635.268 150.435 644.914 144.985L682.053 124.035Z"/>
</svg>
