<?xml version="1.0" encoding="utf-8" ?>
<svg xmlns="http://www.w3.org/2000/svg" xmlns:xlink="http://www.w3.org/1999/xlink" width="1023" height="1023">
	<path fill="#ED733A" d="M468.298 144.088C469.489 150.469 469.143 155.012 465.4 160.547C464.905 161.278 464.408 162.007 463.901 162.729C461.122 163.022 454.965 163.016 452.951 165.085L452.704 164.847L452.886 164.641C451.422 164.467 450.104 164.219 448.748 163.61C443.826 161.399 441.284 157.712 439.425 152.816C443.815 155.226 448.521 157.393 453.677 156.593C460.544 155.528 464.518 149.242 468.298 144.088Z"/>
	<path fill="#ED733A" d="M554.535 144.046C554.759 144.243 554.986 144.437 555.207 144.638C562.474 151.262 559.73 153.199 571.441 155.868C576.144 154.362 579.674 152.258 583.992 149.983C582.07 156.583 579.274 160.72 573.157 164.205C571.921 164.91 570.505 165.402 569.34 166.197C566.154 164.259 562.149 163.553 558.559 162.6C558.038 162.238 557.64 161.867 557.242 161.37C553.238 156.369 553.813 150.001 554.535 144.046Z"/>
	<path fill="#D21338" d="M501.054 93.5012C506.68 95.5374 515.127 95.436 520.935 94.0641C522.914 94.8932 524.435 95.9319 525.35 97.9529C526.551 100.606 526.207 103.9 525.028 106.497C524.717 107.18 524.31 107.803 523.91 108.435C516.392 105.901 506.228 106.905 498.396 107.532C497.59 105.218 496.795 102.437 497.07 99.9735C497.404 96.9889 498.811 95.3518 501.054 93.5012Z"/>
	<path fill="#0F3459" d="M501.054 93.5012C498.451 91.8823 496.064 90.0751 494.031 87.7621C488.901 81.9244 488.283 75.6727 488.65 68.2799C492.134 76.1817 496.285 83.0504 504.773 86.3981C509.365 88.2093 514.268 88.384 518.844 86.4113C529.419 81.8528 529.453 72.6986 533.833 69.8265C533.986 77.2607 532.542 83.5379 527.196 89.0963C525.357 91.0083 523.111 92.5637 520.935 94.0641C515.127 95.436 506.68 95.5374 501.054 93.5012Z"/>
	<path d="M378.713 162.803C379.926 163.089 380.802 163.204 381.758 164.054C389.665 193.938 394.693 224.491 403.463 254.183L398.447 258.305C395.365 247.36 393.283 235.971 390.893 224.853C386.452 204.193 382.247 183.638 378.713 162.803Z"/>
	<path fill="#1C5E83" d="M498.396 107.532C506.228 106.905 516.392 105.901 523.91 108.435C525.286 109.268 526.662 110.079 528.077 110.844C529.112 111.543 530.111 112.203 531.056 113.023C531.297 115.082 531.266 116.381 529.934 118.068C528.263 120.184 524.485 120.845 521.977 121.24C515.527 120.161 507.556 120.948 500.963 121.084C498.532 120.714 495.928 120.054 493.816 118.765C492.335 117.861 491.704 117.007 491.308 115.283C491.527 113.635 492.042 112.959 493.071 111.745L493.232 111.524C494.784 109.781 496.438 108.744 498.396 107.532Z"/>
	<path fill="#EEE2AF" d="M498.396 107.532C506.228 106.905 516.392 105.901 523.91 108.435C525.286 109.268 526.662 110.079 528.077 110.844C516.411 111.018 504.889 110.621 493.232 111.524C494.784 109.781 496.438 108.744 498.396 107.532Z"/>
	<path fill="#05052F" d="M493.071 111.745C495.894 115.11 497.91 115.487 502.137 115.885C511.132 116.732 522.425 115.758 531.056 113.023C531.297 115.082 531.266 116.381 529.934 118.068C528.263 120.184 524.485 120.845 521.977 121.24C515.527 120.161 507.556 120.948 500.963 121.084C498.532 120.714 495.928 120.054 493.816 118.765C492.335 117.861 491.704 117.007 491.308 115.283C491.527 113.635 492.042 112.959 493.071 111.745Z"/>
	<path fill="#EF9C21" d="M558.65 136.461C561.36 133.915 564.501 132.301 568.236 131.964C572.496 131.578 576.08 133.219 579.248 135.941C581.963 138.881 584.596 143.059 584.413 147.245C584.372 148.162 584.177 149.086 583.992 149.983C579.674 152.258 576.144 154.362 571.441 155.868C559.73 153.199 562.474 151.262 555.207 144.638C554.986 144.437 554.759 144.243 554.535 144.046C555.589 141.189 556.843 138.904 558.65 136.461Z"/>
	<path fill="#FAEC5C" d="M558.65 136.461C561.36 133.915 564.501 132.301 568.236 131.964C572.496 131.578 576.08 133.219 579.248 135.941C578.998 139.873 578.888 142.24 575.684 144.973C573.306 147 570.377 147.853 567.283 147.475C564.358 147.116 562.332 145.551 560.342 143.466C559.543 141.115 559.051 138.9 558.65 136.461Z"/>
	<path fill="#EF9C21" d="M454.191 132.323C456.355 132.955 458.303 133.671 460.32 134.681C463.961 137.133 466.463 140.105 468.298 144.088C464.518 149.242 460.544 155.528 453.677 156.593C448.521 157.393 443.815 155.226 439.425 152.816C439.361 152.612 439.291 152.409 439.234 152.203C437.871 147.235 438.955 143.659 441.376 139.281C444.879 134.862 448.892 133.488 454.191 132.323Z"/>
	<path fill="#FAEC5C" d="M454.191 132.323C456.355 132.955 458.303 133.671 460.32 134.681C460.926 138.07 460.902 141.219 458.893 144.178C457.552 146.152 455.455 147.493 453.103 147.897C450.489 148.346 447.805 147.552 445.752 145.893C443.693 144.229 442.44 141.65 441.376 139.281C444.879 134.862 448.892 133.488 454.191 132.323Z"/>
	<path fill="#14967A" d="M488.65 68.2799C490.844 61.5832 493.995 56.3137 500.5 52.9364C506.049 50.0554 512.813 49.5491 518.726 51.5937C524.734 53.6713 529.558 58.1857 532.112 64.0016C532.944 65.897 533.501 67.789 533.833 69.8265C529.453 72.6986 529.419 81.8528 518.844 86.4113C514.268 88.384 509.365 88.2093 504.773 86.3981C496.285 83.0504 492.134 76.1817 488.65 68.2799Z"/>
	<path fill="#D21338" d="M381.758 164.054C399.25 173.104 424.17 202.092 439.878 216.72C433.929 222.699 427.874 228.607 422.147 234.8C416.179 241.253 410.382 248.758 403.463 254.183C394.693 224.491 389.665 193.938 381.758 164.054Z"/>
	<path fill="#D21338" d="M500.963 121.084C507.556 120.948 515.527 120.161 521.977 121.24C532.63 136.94 541.765 153.398 553.353 168.496C555.163 166.581 556.968 164.706 558.559 162.6C562.149 163.553 566.154 164.259 569.34 166.197C566.66 172.431 565.613 178.333 566.08 185.127C565.875 185.013 565.671 184.897 565.464 184.786C547.232 174.989 507.121 175.251 486.61 177.925C476.318 179.267 466.247 181.858 456.331 184.851C457.015 177.51 455.676 171.859 452.951 165.085C454.965 163.016 461.122 163.022 463.901 162.729C466.008 164.766 468.069 166.851 470.14 168.926C481.634 154.837 492.31 137.084 500.963 121.084Z"/>
	<path fill="#05052F" d="M684.551 598.675C696.111 603.998 707.413 612.2 716.261 621.338C739.683 644.737 753.119 675.184 753.133 708.5C753.142 730.828 746.457 751.51 735.297 770.652C734.878 768.214 726.713 757.822 724.551 754.624C713.105 737.691 701.866 720.491 691.515 702.866C684.978 694.909 679.864 685.142 673.994 676.607L674.879 675.198C688.671 652.771 690.595 623.743 684.551 598.675Z"/>
	<path fill="#D21338" d="M684.551 598.675C696.111 603.998 707.413 612.2 716.261 621.338C716.359 628.335 716.787 635.511 716.243 642.484C714.529 664.475 705.489 685.849 691.515 702.866C684.978 694.909 679.864 685.142 673.994 676.607L674.879 675.198C688.671 652.771 690.595 623.743 684.551 598.675Z"/>
	<path fill="#05052F" d="M568.985 196.923C582.14 187.701 595.926 179.555 609.829 171.529C621.567 164.753 633.328 157.947 645.67 152.319L630.904 232.963C629.255 241.969 627.219 251.013 625.796 260.045C623.623 258.507 621.902 256.639 620.089 254.712C609.379 240.989 597.036 229.035 584.448 217.083C578.394 221.077 572.964 226.527 567.589 231.376C554.784 242.927 538.534 255.553 532.68 272.379C524.998 280.438 520.033 290.066 511.477 297.548C507.063 293.429 502.843 289.381 499.155 284.57C496.622 281.265 494.444 277.345 491.679 274.286C489.404 270.193 487.595 265.638 485.022 261.741C478.042 251.17 468.231 242.567 459.038 233.998C452.721 228.11 446.622 222.135 439.878 216.72C424.17 202.092 399.25 173.104 381.758 164.054C380.802 163.204 379.926 163.089 378.713 162.803L377.065 153.107C403.774 165.22 427.367 183.518 453.266 197.134C454.797 193.134 455.552 189.048 456.331 184.851C466.247 181.858 476.318 179.267 486.61 177.925C507.121 175.251 547.232 174.989 565.464 184.786C565.671 184.897 565.875 185.013 566.08 185.127C567.107 189.044 568.036 192.987 568.985 196.923Z"/>
	<path fill="#ED733A" d="M452.112 201.845C484.729 194.584 538.479 189.409 569.909 202.329C570.828 204.387 571.696 206.385 572.329 208.556L575.565 217.701C540.92 204.959 481.781 206.717 446.928 218.169C447.734 214.835 449.054 211.555 450.186 208.315C450.745 206.139 451.456 203.994 452.112 201.845Z"/>
	<path fill="#BEC7BE" d="M452.112 201.845C484.729 194.584 538.479 189.409 569.909 202.329C570.828 204.387 571.696 206.385 572.329 208.556C542.717 197.524 501.661 196.743 470.687 202.557C463.895 203.832 457.633 206.557 450.987 208.131L450.186 208.315C450.745 206.139 451.456 203.994 452.112 201.845Z"/>
	<path fill="#ED733A" d="M456.331 184.851C466.247 181.858 476.318 179.267 486.61 177.925C507.121 175.251 547.232 174.989 565.464 184.786C565.671 184.897 565.875 185.013 566.08 185.127C567.107 189.044 568.036 192.987 568.985 196.923C569.066 198.806 569.464 200.502 569.909 202.329C538.479 189.409 484.729 194.584 452.112 201.845L453.266 197.134C454.797 193.134 455.552 189.048 456.331 184.851Z"/>
	<path fill="#D21338" d="M584.448 217.083C589.005 212.897 593.064 208.134 597.359 203.68C611.256 189.265 624.839 174.204 640.472 161.61L620.089 254.712C609.379 240.989 597.036 229.035 584.448 217.083Z"/>
	<path fill="#2D125C" d="M427.848 516.273C432.448 518.619 436.576 522.223 440.77 525.23C444.725 528.066 448.936 530.423 453.322 532.525C451.799 540.358 451.034 548.396 449.943 556.303C448.063 569.933 445.883 583.847 442.638 597.225C436.214 624.591 428.581 651.141 418.614 677.453L417.627 680.551C407.668 709.843 394.43 737.402 380.55 764.996C377.054 771.977 374.201 779.711 370.304 786.409L370.277 786.312L368.687 786.917L369.663 786.455C368.377 786.597 367.08 786.493 365.807 786.265C362.221 785.622 358.562 784.231 354.973 783.406C346.46 781.447 337.864 779.798 329.243 778.394C319.746 776.847 310.566 776.363 300.991 775.881C295.703 775.615 290.542 775.037 285.23 775.144C296.01 756.482 308.947 738.79 320.438 720.528C361.565 655.161 399.961 591.98 426.699 519.081L427.848 516.273Z"/>
	<path fill="#FEFEFE" d="M424.221 563.364C424.256 563.568 424.303 563.77 424.325 563.975C425.051 570.509 423.031 578.657 421.804 585.154C411.712 638.574 373.141 703.029 339.062 745.055C338.265 742.976 345.469 734.727 346.94 732.509C376.136 688.483 399.459 641.798 416.272 591.686C419.392 582.389 421.221 572.696 424.221 563.364Z"/>
	<path fill="#05052F" d="M427.848 516.273C432.448 518.619 436.576 522.223 440.77 525.23C444.725 528.066 448.936 530.423 453.322 532.525C451.799 540.358 451.034 548.396 449.943 556.303C448.063 569.933 445.883 583.847 442.638 597.225C436.214 624.591 428.581 651.141 418.614 677.453L417.803 676.371C417.227 668.971 420.894 660.355 422.183 653.041C425.334 635.163 434.036 529.621 426.699 519.081L427.848 516.273Z"/>
	<path fill="#2D125C" d="M597.927 514.311C600.781 524.304 619.804 580.356 625.202 583.983C625.4 584.116 625.841 584.281 626.08 584.376C642.061 583.358 671.306 589.618 684.551 598.675C690.595 623.743 688.671 652.771 674.879 675.198L673.994 676.607C679.864 685.142 684.978 694.909 691.515 702.866C701.866 720.491 713.105 737.691 724.551 754.624C726.713 757.822 734.878 768.214 735.297 770.652C739.088 776.899 743.466 782.749 747.507 788.83C742.175 789.453 733.326 785.515 727.799 784.173C723.422 783.109 719.021 782.337 714.563 781.705C700.492 779.711 686.281 779.441 672.077 780.135C667.042 780.381 662.034 781.21 657 781.373C655.432 776.253 650.931 770.484 647.916 766.022C631.103 739.181 617.323 710.326 606.588 680.524C599.537 662.293 593.77 643.942 588.55 625.122C585.61 616.042 583.869 606.409 581.882 597.077C577.355 575.622 574.179 554.18 571.391 532.444L588.18 522.556C591.521 519.894 594.767 517.185 597.927 514.311Z"/>
	<path fill="#05052F" d="M571.391 532.444L588.18 522.556C585.947 543.514 583.915 563.778 584.379 584.899C584.509 590.788 584.745 596.577 585.477 602.427C586.346 609.373 589.884 618.285 588.55 625.122C585.61 616.042 583.869 606.409 581.882 597.077C577.355 575.622 574.179 554.18 571.391 532.444Z"/>
	<path fill="#FEFEFE" d="M592.621 546.411C595.191 549.607 598.102 564.923 599.356 569.522C604.614 588.816 610.761 607.89 617.798 626.612C630.345 659.993 646.096 693.627 666.332 723.092C670.489 729.145 675.034 734.968 679.654 740.673C681.962 743.523 684.549 746.214 686.602 749.253C686.684 749.374 686.763 749.497 686.844 749.619C686.406 749.4 686.21 749.322 685.783 748.987C677.257 742.306 669.613 731.623 663.187 722.911C631.398 679.813 610.388 631.084 598.644 578.926C596.23 568.207 593.463 557.391 592.621 546.411Z"/>
	<path fill="#05052F" d="M626.08 584.376C642.061 583.358 671.306 589.618 684.551 598.675C690.595 623.743 688.671 652.771 674.879 675.198L673.994 676.607C665.917 665.421 625.867 594.31 626.08 584.376Z"/>
	<path fill="#EEE2AF" d="M532.815 543.989C535.95 541.787 549.338 539.918 553.875 538.596C559.845 536.856 565.629 534.777 571.391 532.444C574.179 554.18 577.355 575.622 581.882 597.077C583.869 606.409 585.61 616.042 588.55 625.122C593.77 643.942 599.537 662.293 606.588 680.524C598.861 680.408 591.215 680.889 583.5 680.977L545.065 681.043C523.028 680.72 500.926 681.078 478.882 681.04L437.107 680.996C430.598 680.947 424.147 680.402 417.627 680.551L418.614 677.453C428.581 651.141 436.214 624.591 442.638 597.225C445.883 583.847 448.063 569.933 449.943 556.303C451.034 548.396 451.799 540.358 453.322 532.525C465.934 538.081 480.334 542.356 494.115 543.545L495.103 543.584C503.404 543.969 511.312 545.059 519.694 544.613C522.72 544.451 530.521 542.59 532.815 543.989Z"/>
	<path fill="#D21338" d="M494.115 543.545L495.103 543.584C503.404 543.969 511.312 545.059 519.694 544.613C522.72 544.451 530.521 542.59 532.815 543.989C533.742 554.205 534.438 564.442 535.215 574.671C535.782 582.14 536.155 589.638 537.787 596.97C521.424 596.896 505.09 597.841 488.742 596.501C491.168 578.877 492.712 561.271 494.115 543.545Z"/>
	<path fill="#D21338" d="M581.882 597.077C583.869 606.409 585.61 616.042 588.55 625.122C593.77 643.942 599.537 662.293 606.588 680.524C598.861 680.408 591.215 680.889 583.5 680.977L545.065 681.043C543.787 662.774 542.093 644.492 540.415 626.255C539.518 616.509 538.145 606.876 537.958 597.072C546.406 596.875 554.879 596.985 563.326 597.173C569.402 597.308 575.835 597.743 581.882 597.077Z"/>
	<path fill="#D21338" d="M418.614 677.453C428.581 651.141 436.214 624.591 442.638 597.225C457.849 597.29 473.253 597.771 488.439 596.947C487.705 608.177 485.898 619.242 484.611 630.413C482.668 647.276 481.046 664.206 478.882 681.04L437.107 680.996C430.598 680.947 424.147 680.402 417.627 680.551L418.614 677.453Z"/>
	<path fill="#05052F" d="M511.864 444.003C539.398 436.687 564.869 416.6 582.845 394.773C587.214 389.468 589.494 382.729 594.804 378.149C599.063 374.475 604.395 371.598 609.066 368.459L638.29 348.695C648.009 342.118 657.046 334.397 666.99 328.208C637.485 370.998 604.077 417.804 598.745 471.099C598.23 476.244 596.393 483.352 597.549 488.344C597.804 489.448 598.191 490.011 598.851 490.893C601.478 492.642 602.696 494.833 603.256 497.94C604.082 502.532 602.743 508.118 600.013 511.884C599.376 512.762 598.699 513.553 597.927 514.311C594.767 517.185 591.521 519.894 588.18 522.556L571.391 532.444C565.629 534.777 559.845 536.856 553.875 538.596C549.338 539.918 535.95 541.787 532.815 543.989C530.521 542.59 522.72 544.451 519.694 544.613C511.312 545.059 503.404 543.969 495.103 543.584L494.115 543.545C480.334 542.356 465.934 538.081 453.322 532.525C448.936 530.423 444.725 528.066 440.77 525.23C436.576 522.223 432.448 518.619 427.848 516.273C424.905 512.725 422.193 508.659 421.051 504.147C419.897 499.592 420.751 495.33 423.189 491.36C424.836 490.179 425.561 489.057 425.932 487.085C427.346 479.584 424.873 470.136 423.503 462.638C416.883 426.417 401.339 393.026 381.582 362.155C374.41 350.949 366.54 340.145 359.003 329.18C362.559 330.957 365.83 334.178 369.017 336.605C373.236 339.818 377.567 342.878 381.889 345.949C390.586 352.127 399.281 358.329 408.141 364.272C414.749 368.704 423.094 373.099 428.67 378.682C434.263 384.282 437.839 391.613 442.951 397.642C461.522 419.543 484.916 434.462 511.864 444.003Z"/>
	<path fill="#7949AC" d="M511.455 464.401C531.057 478.499 542.551 494.947 554.564 515.308C526.109 524.292 498.423 522.739 469.83 515.897C479.211 495.242 493.385 478.073 511.455 464.401Z"/>
	<path fill="#ED733A" d="M598.851 490.893C601.478 492.642 602.696 494.833 603.256 497.94C604.082 502.532 602.743 508.118 600.013 511.884C599.376 512.762 598.699 513.553 597.927 514.311C594.767 517.185 591.521 519.894 588.18 522.556L571.391 532.444C565.629 534.777 559.845 536.856 553.875 538.596C549.338 539.918 535.95 541.787 532.815 543.989C530.521 542.59 522.72 544.451 519.694 544.613C511.312 545.059 503.404 543.969 495.103 543.584L494.115 543.545C480.334 542.356 465.934 538.081 453.322 532.525C448.936 530.423 444.725 528.066 440.77 525.23C436.576 522.223 432.448 518.619 427.848 516.273C424.905 512.725 422.193 508.659 421.051 504.147C419.897 499.592 420.751 495.33 423.189 491.36C436.861 503.552 453.151 509.219 469.83 515.897C498.423 522.739 526.109 524.292 554.564 515.308C567.673 510.786 589.995 501.219 598.851 490.893Z"/>
	<path fill="#7949AC" d="M439.878 216.72C446.622 222.135 452.721 228.11 459.038 233.998C468.231 242.567 478.042 251.17 485.022 261.741C487.595 265.638 489.404 270.193 491.679 274.286C494.444 277.345 496.622 281.265 499.155 284.57C502.843 289.381 507.063 293.429 511.477 297.548C520.033 290.066 524.998 280.438 532.68 272.379C538.534 255.553 554.784 242.927 567.589 231.376C572.964 226.527 578.394 221.077 584.448 217.083C597.036 229.035 609.379 240.989 620.089 254.712C621.902 256.639 623.623 258.507 625.796 260.045C628.096 262.895 631.436 265.354 634.176 267.8C640.234 273.211 646.397 278.608 652.137 284.358L658.439 290.203C662.144 293.085 666.245 295.867 669.505 299.246C662.636 300.06 655.784 300.91 648.86 301.073L649.847 301.81C660.104 302.635 670.095 305.642 679.934 308.519C677.01 311.06 674.456 313.201 670.696 314.423L672.782 315.42L674.374 316.41L674.3 317.261C671.527 319.571 666.607 319.792 664.428 322.341L664.803 322.716L667.142 322.631L672.573 321.985C670.707 324.041 668.752 326.066 666.99 328.208C657.046 334.397 648.009 342.118 638.29 348.695L609.066 368.459C604.395 371.598 599.063 374.475 594.804 378.149C589.494 382.729 587.214 389.468 582.845 394.773C564.869 416.6 539.398 436.687 511.864 444.003C484.916 434.462 461.522 419.543 442.951 397.642C437.839 391.613 434.263 384.282 428.67 378.682C423.094 373.099 414.749 368.704 408.141 364.272C399.281 358.329 390.586 352.127 381.889 345.949C377.567 342.878 373.236 339.818 369.017 336.605C365.83 334.178 362.559 330.957 359.003 329.18C357.413 327.556 356.032 325.452 354.615 323.657L351.126 319.671C358.466 318.649 365.849 318.034 373.228 317.353L371.388 316.626C362.82 315.775 354.849 314.713 346.676 311.915C354.676 307.647 369.582 302.751 378.836 302.549L378.467 301.843C370.245 302.331 361.704 301.022 353.561 299.942L361.501 294.107L363.533 292.284L385.246 271.521C389.693 267.291 394.587 263.076 398.447 258.305L403.463 254.183C410.382 248.758 416.179 241.253 422.147 234.8C427.874 228.607 433.929 222.699 439.878 216.72Z"/>
	<path d="M486.789 365.593L487.552 365.421C495.689 372.489 503.024 380.359 511.103 387.41C515.879 383.157 530.767 367.62 534.556 365.672L535.764 365.938C529.278 375.125 521.481 381.999 512.719 388.905L512.746 402.657C515.648 406.149 518.81 409.117 523.182 410.672C532.458 413.97 540.683 409.749 548.776 405.676C543.446 410.055 537.919 414.179 530.741 414.618C522.674 415.112 516.161 410.591 510.381 405.57C505.753 410.51 500.667 414.301 493.635 414.586C485.583 414.912 478.658 410.419 472.931 405.227C479 408.531 484.837 411.882 491.997 411.804C499.124 411.725 504.231 408.165 508.978 403.266C508.969 398.338 508.765 393.325 509.468 388.437C501.413 381.173 493.49 374.208 486.789 365.593Z"/>
	<path fill="#2D125C" d="M361.501 294.107L362.122 294.03C379.865 291.672 389.785 285.921 409.424 288.488C407.184 293.208 404.568 296.349 399.568 298.233C393.662 300.46 385.962 301.165 379.669 301.536C378.957 301.578 379.234 301.544 378.467 301.843C370.245 302.331 361.704 301.022 353.561 299.942L361.501 294.107Z"/>
	<path fill="#2D125C" d="M616.585 286.021C630.779 285.793 644.552 287.406 658.439 290.203C662.144 293.085 666.245 295.867 669.505 299.246C662.636 300.06 655.784 300.91 648.86 301.073C640.111 300.763 631.267 300.027 622.99 297.032C620.076 293.703 618.409 290 616.585 286.021Z"/>
	<path fill="#2D125C" d="M346.676 311.915C354.676 307.647 369.582 302.751 378.836 302.549L379.821 302.676C385.697 303.379 403.425 301.271 407.073 306.807C407.404 307.31 407.32 307.438 407.376 308.083C406.597 310.198 404.95 311.502 402.946 312.436C394.525 316.359 380.698 315.702 371.388 316.626C362.82 315.775 354.849 314.713 346.676 311.915Z"/>
	<path fill="#2D125C" d="M670.696 314.423C666.422 313.133 659.936 314.468 655.495 314.784C648.432 315.287 624.901 316.935 620.523 312.358C619.58 311.372 619.152 310.35 619.272 308.968C619.376 307.782 619.913 306.884 620.786 306.099C627.003 300.522 642.111 301.701 649.847 301.81C660.104 302.635 670.095 305.642 679.934 308.519C677.01 311.06 674.456 313.201 670.696 314.423Z"/>
	<path fill="#2D125C" d="M351.126 319.671C358.466 318.649 365.849 318.034 373.228 317.353C377.495 317.808 381.813 317.586 386.099 317.736C392.537 317.962 398.958 318.508 405.372 319.082C409.133 325.846 412.393 332.788 415.39 339.919C400.85 336.417 386.425 332.261 371.989 328.349C366.246 326.793 360.421 324.897 354.615 323.657L351.126 319.671Z"/>
	<path fill="#2D125C" d="M672.782 315.42L674.374 316.41L674.3 317.261C671.527 319.571 666.607 319.792 664.428 322.341L664.803 322.716L667.142 322.631C659.904 327.738 640.335 331.811 631.244 334.554C622.766 337.112 614.366 339.99 605.958 342.77C608.77 335.414 612.42 327.428 616.725 320.811C635.282 316.43 654.268 318.936 672.782 315.42Z"/>
	<path fill="#2D125C" d="M511.477 297.548C520.033 290.066 524.998 280.438 532.68 272.379C530.076 287.551 527.967 301.5 529.329 316.994C530.122 323.001 536.548 362.796 535.764 365.938L534.556 365.672C530.767 367.62 515.879 383.157 511.103 387.41C503.024 380.359 495.689 372.489 487.552 365.421L486.789 365.593C485.645 363.366 493.098 322.582 494.189 316.928C494.966 311.468 495.167 306.02 494.82 300.513C494.548 296.183 490.757 276.965 491.679 274.286C494.444 277.345 496.622 281.265 499.155 284.57C502.843 289.381 507.063 293.429 511.477 297.548Z"/>
	<defs>
		<linearGradient id="gradient_0" gradientUnits="userSpaceOnUse" x1="650.2511" y1="275.44226" x2="532.53229" y2="264.46927">
			<stop offset="0" stop-color="#411C6D"/>
			<stop offset="1" stop-color="#623794"/>
		</linearGradient>
	</defs>
	<path fill="url(#gradient_0)" d="M532.68 272.379C538.534 255.553 554.784 242.927 567.589 231.376C572.964 226.527 578.394 221.077 584.448 217.083C597.036 229.035 609.379 240.989 620.089 254.712C621.902 256.639 623.623 258.507 625.796 260.045C628.096 262.895 631.436 265.354 634.176 267.8C640.234 273.211 646.397 278.608 652.137 284.358C644.243 285.48 617.019 279.428 609.053 276.444C602.509 291.293 594.836 310.574 578.509 316.933C567.098 321.377 545.383 318.254 533.226 316.638L529.329 316.994C527.967 301.5 530.076 287.551 532.68 272.379Z"/>
	<defs>
		<linearGradient id="gradient_1" gradientUnits="userSpaceOnUse" x1="587.78943" y1="309.46271" x2="557.06824" y2="274.93927">
			<stop offset="0" stop-color="black"/>
			<stop offset="1" stop-color="#030428"/>
		</linearGradient>
	</defs>
	<path fill="url(#gradient_1)" d="M533.226 316.638C533.467 313.915 534.079 311.419 534.884 308.811C539.585 293.577 548.728 277.855 563.34 270.315C579.094 262.187 595.668 264.545 611.914 269.724C610.789 271.95 609.864 274.08 609.053 276.444C602.509 291.293 594.836 310.574 578.509 316.933C567.098 321.377 545.383 318.254 533.226 316.638Z"/>
	<path fill="#FEFEFE" d="M536.585 315.439C542.141 308.474 549.013 298.334 557.711 295.17C555.324 302.022 553.785 309.919 549.536 315.87C545.306 315.276 540.855 315.485 536.585 315.439Z"/>
	<path fill="#FEFEFE" d="M570.052 289.726C579.768 280.957 591.637 278.107 604.023 274.985C600.696 284.155 597.464 294.364 591.214 302.028C590.657 296.826 590.477 287.651 587.668 283.193C587.111 282.307 587.406 282.614 586.263 282.309C582.858 284.601 582.223 292.037 579.482 295.511C579.37 295.653 579.255 295.791 579.141 295.932C576.268 293.265 573.613 291.428 570.052 289.726Z"/>
	<path fill="#EF9C21" d="M579.141 295.932C579.255 295.791 579.37 295.653 579.482 295.511C582.223 292.037 582.858 284.601 586.263 282.309C587.406 282.614 587.111 282.307 587.668 283.193C590.477 287.651 590.657 296.826 591.214 302.028C586.29 309.194 578.759 314.123 570.212 315.737C563.637 316.979 556.127 316.926 549.536 315.87C553.785 309.919 555.324 302.022 557.711 295.17L558.363 295.777C558.491 300.567 558.18 304.995 562.056 308.464C564.602 310.742 568.213 311.824 571.596 311.465C574.361 311.172 577.021 309.907 578.675 307.618C580.282 305.394 580.727 302.546 580.246 299.884C580.002 298.536 579.576 297.228 579.141 295.932Z"/>
	<defs>
		<linearGradient id="gradient_2" gradientUnits="userSpaceOnUse" x1="367.57227" y1="262.92285" x2="495.57864" y2="267.90012">
			<stop offset="0" stop-color="#3D1A72"/>
			<stop offset="1" stop-color="#633894"/>
		</linearGradient>
	</defs>
	<path fill="url(#gradient_2)" d="M439.878 216.72C446.622 222.135 452.721 228.11 459.038 233.998C468.231 242.567 478.042 251.17 485.022 261.741C487.595 265.638 489.404 270.193 491.679 274.286C490.757 276.965 494.548 296.183 494.82 300.513C495.167 306.02 494.966 311.468 494.189 316.928L491.466 316.453C476.582 318.979 451.498 321.675 437.807 314.786C422.788 307.229 415.896 291.24 410.878 276.14C401.392 279.467 371.689 292.412 363.533 292.284L385.246 271.521C389.693 267.291 394.587 263.076 398.447 258.305L403.463 254.183C410.382 248.758 416.179 241.253 422.147 234.8C427.874 228.607 433.929 222.699 439.878 216.72Z"/>
	<defs>
		<linearGradient id="gradient_3" gradientUnits="userSpaceOnUse" x1="432.29993" y1="310.49136" x2="467.68713" y2="276.00845">
			<stop offset="0" stop-color="black"/>
			<stop offset="1" stop-color="#03042B"/>
		</linearGradient>
	</defs>
	<path fill="url(#gradient_3)" d="M408.872 270.493C426.211 265.416 443.893 260.853 460.718 270.046C477.801 279.38 486.005 298.731 491.466 316.453C476.582 318.979 451.498 321.675 437.807 314.786C422.788 307.229 415.896 291.24 410.878 276.14C410.233 274.256 409.646 272.328 408.872 270.493Z"/>
	<path fill="#FEFEFE" d="M439.978 281.539C444.902 283.872 449.382 286.267 453.329 290.088C448.73 292.194 445.044 293.716 443.196 298.8C442.922 299.553 442.716 300.32 442.504 301.093C439.761 294.622 439.932 288.409 439.978 281.539Z"/>
	<path fill="#FEFEFE" d="M465.591 295.205C473.002 298.427 482.986 308.395 487.003 315.297L474.603 315.705C470.457 309.725 468.198 301.957 465.591 295.205Z"/>
	<path fill="#FEFEFE" d="M417.643 275.044C423.985 276.499 430.226 278.241 436.398 280.298C433.21 286.906 431.495 292.604 431.508 300.011C431.511 301.941 432.077 304.588 431.439 306.387C422.378 298.209 419.779 286.515 417.643 275.044Z"/>
	<path fill="#EF9C21" d="M436.398 280.298L439.978 281.539C439.932 288.409 439.761 294.622 442.504 301.093C442.527 301.18 442.545 301.27 442.574 301.356C443.902 305.279 446.503 308.448 450.365 310.087C453.078 311.238 456.266 311.454 458.974 310.173C466.077 306.816 463.366 301.281 465.334 295.869C465.415 295.646 465.505 295.427 465.591 295.205C468.198 301.957 470.457 309.725 474.603 315.705C474.345 315.744 474.089 315.795 473.83 315.822C458.389 317.43 443.698 316.59 431.439 306.387C432.077 304.588 431.511 301.941 431.508 300.011C431.495 292.604 433.21 286.906 436.398 280.298Z"/>
	<path fill="#05052F" d="M703.059 857.559C703.217 857.527 703.375 857.498 703.532 857.464C712.67 855.531 716.079 851.788 725.776 858.176C731.621 862.027 734.705 868.272 735.898 874.99C736.793 880.034 736.845 885.534 736.255 890.61C734.803 896.584 732.566 900.357 728.345 904.806C733.014 906.054 737.91 907.524 740.427 912.045C742.139 915.12 741.99 918.36 741.355 921.71C751.575 931.344 763.639 939.508 774.962 947.79C787.476 956.942 799.778 966.329 811.96 975.916L208.703 976.08C223.19 965.883 237.273 955.148 251.567 944.686C262.026 937.031 272.743 929.714 283.133 921.969C282.831 921.17 282.536 920.366 282.305 919.543C281.356 916.167 281.422 912.805 283.269 909.73C286.209 904.837 291.79 902.777 297.018 901.406L294.302 899.264C290.03 894.854 286.641 889.244 286.012 883.042C285.457 877.557 286.908 871.055 290.572 866.837C298.417 857.805 314.41 860.453 325.107 859.881C332.363 862.558 338.934 865.111 346.741 865.663C365.506 866.991 384.943 866.044 403.771 866.001L516.266 865.633L625.034 866.005L657.027 866.024C664.694 866.021 672.45 866.241 680.086 865.483C688.023 864.694 695.691 860.457 703.059 857.559Z"/>
	<path fill="#14967A" d="M297.018 901.406C300.332 903.183 304.071 905.194 307.882 905.37C333.21 906.543 358.893 905.42 384.264 905.619L600.062 905.818L686.169 905.817C693.851 905.818 721.692 906.971 727.409 905.135C727.724 905.034 728.033 904.916 728.345 904.806C733.014 906.054 737.91 907.524 740.427 912.045C742.139 915.12 741.99 918.36 741.355 921.71C738.017 926.062 735.355 928.397 729.733 929.186C723.968 929.995 717.761 929.566 711.937 929.554L681.932 929.495L578.455 929.5L390.969 929.502L328.979 929.712C318.994 929.717 308.923 929.98 298.948 929.552C294.458 929.359 291.011 928.742 287.352 925.913C285.818 924.727 284.361 923.474 283.133 921.969C282.831 921.17 282.536 920.366 282.305 919.543C281.356 916.167 281.422 912.805 283.269 909.73C286.209 904.837 291.79 902.777 297.018 901.406Z"/>
	<path fill="#14967A" d="M703.059 857.559C703.217 857.527 703.375 857.498 703.532 857.464C712.67 855.531 716.079 851.788 725.776 858.176C731.621 862.027 734.705 868.272 735.898 874.99C736.793 880.034 736.845 885.534 736.255 890.61C734.803 896.584 732.566 900.357 728.345 904.806C728.033 904.916 727.724 905.034 727.409 905.135C721.692 906.971 693.851 905.818 686.169 905.817L600.062 905.818L384.264 905.619C358.893 905.42 333.21 906.543 307.882 905.37C304.071 905.194 300.332 903.183 297.018 901.406L294.302 899.264C290.03 894.854 286.641 889.244 286.012 883.042C285.457 877.557 286.908 871.055 290.572 866.837C298.417 857.805 314.41 860.453 325.107 859.881C332.363 862.558 338.934 865.111 346.741 865.663C365.506 866.991 384.943 866.044 403.771 866.001L516.266 865.633L625.034 866.005L657.027 866.024C664.694 866.021 672.45 866.241 680.086 865.483C688.023 864.694 695.691 860.457 703.059 857.559Z"/>
	<path fill="#05052F" d="M294.302 899.264C295.032 897.29 295.835 895.364 297.333 893.835C300.036 891.076 303.501 890.704 307.156 890.46C318.711 889.689 330.473 890.516 342.062 890.514L416.812 890.497L633.355 890.678L697 890.68C710.116 890.695 723.135 891.004 736.255 890.61C734.803 896.584 732.566 900.357 728.345 904.806C728.033 904.916 727.724 905.034 727.409 905.135C721.692 906.971 693.851 905.818 686.169 905.817L600.062 905.818L384.264 905.619C358.893 905.42 333.21 906.543 307.882 905.37C304.071 905.194 300.332 903.183 297.018 901.406L294.302 899.264Z"/>
	<path fill="#05052F" d="M545.065 681.043L583.5 680.977C591.215 680.889 598.861 680.408 606.588 680.524C617.323 710.326 631.103 739.181 647.916 766.022C650.931 770.484 655.432 776.253 657 781.373C662.034 781.21 667.042 780.381 672.077 780.135C686.281 779.441 700.492 779.711 714.563 781.705C719.021 782.337 723.422 783.109 727.799 784.173C733.326 785.515 742.175 789.453 747.507 788.83L762.232 810.948C749.375 824.207 736.144 836.827 720.811 847.233C715.357 850.934 707.881 854.001 703.059 857.559C695.691 860.457 688.023 864.694 680.086 865.483C672.45 866.241 664.694 866.021 657.027 866.024L625.034 866.005L516.266 865.633L403.771 866.001C384.943 866.044 365.506 866.991 346.741 865.663C338.934 865.111 332.363 862.558 325.107 859.881C319.966 856.551 314.209 854.024 308.959 850.802C290.726 839.613 276.025 825.74 262.478 809.236C269.839 797.727 277.572 786.457 285.23 775.144C290.542 775.037 295.703 775.615 300.991 775.881C310.566 776.363 319.746 776.847 329.243 778.394C337.864 779.798 346.46 781.447 354.973 783.406C358.562 784.231 362.221 785.622 365.807 786.265C367.08 786.493 368.377 786.597 369.663 786.455L368.687 786.917L370.277 786.312L370.304 786.409C374.201 779.711 377.054 771.977 380.55 764.996C394.43 737.402 407.668 709.843 417.627 680.551C424.147 680.402 430.598 680.947 437.107 680.996L478.882 681.04C500.926 681.078 523.028 680.72 545.065 681.043Z"/>
	<path fill="#FEFEFE" d="M732.948 812.539L733.272 812.732C732.998 813.105 732.936 813.229 732.525 813.557C725.875 818.882 705.636 827.217 697.384 830.374C653.061 847.337 605.154 854.722 557.821 851.059C545.206 850.083 532.876 847.927 520.365 846.217L515.272 844.866L515.862 844.738L515.221 844.672C519.594 844.275 524.901 845.236 529.351 845.458C540.635 846.024 551.901 846.509 563.2 846.585C624.26 846.992 677.921 840.267 732.948 812.539Z"/>
	<path fill="#FEFEFE" d="M287.749 815.488C292.432 815.495 301.843 820.595 306.525 822.325C313.55 824.92 320.647 827.503 327.852 829.55C370.748 841.736 414.751 846.535 459.256 846.52C465.715 846.518 472.177 846.598 478.624 846.17C486.577 845.643 494.958 844.434 502.92 844.921L503.054 845.316L500.417 845.935C443.178 855.646 389.762 853.362 334.488 835.031C318.624 829.77 302.443 823.477 287.749 815.488Z"/>
	<path fill="#D21338" d="M552.294 766.962L553.015 765.992C561.724 764.568 570.94 766.009 579.734 766.025L647.916 766.022C650.931 770.484 655.432 776.253 657 781.373C630.356 784.653 602.872 793.91 578.3 804.478C570.607 807.787 563.211 811.887 555.523 815.107C555.862 799.263 553.274 782.812 552.294 766.962Z"/>
	<path fill="#D21338" d="M370.304 786.409C374.201 779.711 377.054 771.977 380.55 764.996L441.537 764.996C447.984 764.995 462.35 764.068 468.079 765.438C464.584 782.816 463.974 800.789 461.271 818.307C441.013 808.892 419.711 801.63 398.404 794.972C389.386 792.155 378.79 790.221 370.304 786.409Z"/>
	<path fill="#EEE2AF" d="M468.41 765.465C496.089 765.052 524.179 764.796 551.839 765.676L552.294 766.962C553.274 782.812 555.862 799.263 555.523 815.107C538.182 823.217 521.232 831.991 503.56 839.396C490.074 831.84 475.801 823.645 461.271 818.307C463.974 800.789 464.584 782.816 468.079 765.438L468.41 765.465Z"/>
	<path fill="#ED733A" d="M545.065 681.043L583.5 680.977C591.215 680.889 598.861 680.408 606.588 680.524C617.323 710.326 631.103 739.181 647.916 766.022L579.734 766.025C570.94 766.009 561.724 764.568 553.015 765.992L552.294 766.962L551.839 765.676C524.179 764.796 496.089 765.052 468.41 765.465L468.079 765.438C462.35 764.068 447.984 764.995 441.537 764.996L380.55 764.996C394.43 737.402 407.668 709.843 417.627 680.551C424.147 680.402 430.598 680.947 437.107 680.996L478.882 681.04C500.926 681.078 523.028 680.72 545.065 681.043Z"/>
	<path fill="#D21338" d="M479.135 681.49L544.912 681.464C545.895 701.989 548.273 722.595 549.978 743.083C550.592 750.453 551.859 758.316 551.839 765.676C524.179 764.796 496.089 765.052 468.41 765.465C468.617 754.643 470.77 743.692 472.235 732.971L479.135 681.49Z"/>
</svg>
