<?xml version="1.0" encoding="utf-8" ?>
<svg xmlns="http://www.w3.org/2000/svg" xmlns:xlink="http://www.w3.org/1999/xlink" width="1024" height="1024">
	<path fill="#E23906" d="M478.148 62.5117C481.996 66.749 480.611 89.4787 480.302 95.922C480.22 97.6112 480.115 99.2989 479.995 100.986C477.755 97.6871 476.001 93.8286 474.926 89.9922C472.371 80.8761 473.485 70.7685 478.148 62.5117Z"/>
	<path fill="#671312" d="M538.65 106.259C542.493 105.961 546.268 105.987 549.411 108.553C551.171 109.989 552.311 112.061 552.433 114.344C552.559 116.702 551.599 118.895 549.948 120.553C547.362 123.15 543.897 123.793 540.394 124.273C527.463 121.108 500.149 123.708 486.002 124.087C482.337 123.981 478.417 123.883 475.342 121.652C473.494 120.311 472.249 118.415 472.024 116.119C471.813 113.964 472.549 111.856 474.001 110.255C476.579 107.412 480.502 106.598 484.175 106.485C490.047 107.683 500.087 106.576 506.321 106.564C516.944 106.544 528.109 107.726 538.65 106.259Z"/>
	<path fill="#FB474C" d="M247.129 913.124C249.115 906.096 251.835 899.881 256.411 894.126C265.514 882.676 277.321 878.625 291.421 876.985L293.24 877.724C293.296 878.051 293.346 878.379 293.407 878.705C293.841 881.022 294.87 883.149 295.38 885.45C296.921 892.401 297.91 904.01 293.752 910.19C292.754 911.673 291.433 912.317 289.711 912.612C287.709 912.955 285.586 912.992 283.556 913.065C285.714 913.71 288.066 913.199 290.287 913.836C284.297 913.893 251.346 914.295 247.129 913.124Z"/>
	<path fill="#AD2008" d="M486.002 124.087C500.149 123.708 527.463 121.108 540.394 124.273C535.876 126.525 533.112 130.915 531.57 135.602C527.707 147.344 530.491 159.198 534.469 170.481C529.576 171.347 494.087 171.513 489.551 170.514C490.811 166.83 491.936 163.014 492.708 159.197C495.363 146.064 493.42 135.216 486.002 124.087Z"/>
	<path fill="#FB7626" d="M478.148 62.5117C483.325 53.7652 491.535 47.2006 501.448 44.6109C511.37 42.0189 522.349 43.4982 531.177 48.7294C539.735 53.8005 545.611 62.452 547.952 72.0519C550.286 81.6267 548.744 91.3748 543.508 99.72C542.053 102.039 540.425 104.178 538.65 106.259C528.109 107.726 516.944 106.544 506.321 106.564C500.087 106.576 490.047 107.683 484.175 106.485C482.978 104.563 481.388 102.777 479.995 100.986C480.115 99.2989 480.22 97.6112 480.302 95.922C480.611 89.4787 481.996 66.749 478.148 62.5117Z"/>
	<path fill="#671312" d="M800.704 947.471C809.04 954.032 814.617 962.514 815.949 973.149C816.179 974.989 816.29 976.846 816.401 978.697C796.27 979.07 776.098 978.819 755.963 978.822L648.08 978.827L206.335 978.862C206.976 971.31 208.769 964.401 213.012 958.016L296.89 958.061C316.366 958.22 335.77 958.89 355.266 958.562L699.366 958.916L773.118 958.921C779.329 958.923 794.938 959.92 799.812 958.751C800.719 958.533 801.771 958.039 802.207 957.184C803.423 954.799 801.375 949.941 800.704 947.471Z"/>
	<path fill="#E23906" d="M626.356 525.296C638.424 528.108 658.538 540.259 669.37 547.22C716.966 577.812 752.111 624.525 764.056 680.139C775.643 734.088 765.292 788.783 735.392 834.984C730.751 841.409 725.725 847.41 720.478 853.343C719.714 838.956 720.333 824.275 720.32 809.848C720.313 803.25 720.588 796.469 719.726 789.916C719.336 786.955 718.737 782.982 716.549 780.815C713.015 777.314 707.479 777.049 703.569 774.068C694.922 767.477 685.822 750.528 679.65 741.212C691.707 720.934 695.764 696.141 695.662 672.774C695.415 616.409 665.508 564.114 626.356 525.296Z"/>
	<path fill="#671312" d="M708.666 876.359C727.721 875.808 749.136 875.25 763.929 889.289C770.766 895.778 775.229 904.402 777.368 913.528C777.759 919.862 777.861 926.116 777.486 932.459C785.652 936.622 794.167 940.9 800.704 947.471C801.375 949.941 803.423 954.799 802.207 957.184C801.771 958.039 800.719 958.533 799.812 958.751C794.938 959.92 779.329 958.923 773.118 958.921L699.366 958.916L355.266 958.562C335.77 958.89 316.366 958.22 296.89 958.061L213.012 958.016C222.199 946.747 233.416 937.261 247.35 932.502C246.432 926.057 246.257 919.575 247.129 913.124C251.346 914.295 284.297 913.893 290.287 913.836C288.066 913.199 285.714 913.71 283.556 913.065C285.586 912.992 287.709 912.955 289.711 912.612C291.433 912.317 292.754 911.673 293.752 910.19C297.91 904.01 296.921 892.401 295.38 885.45C294.87 883.149 293.841 881.022 293.407 878.705C293.346 878.379 293.296 878.051 293.24 877.724L291.421 876.985C298.279 876.284 305.289 876.456 312.179 876.326C331.168 877.107 350.416 876.478 369.43 876.479L488.688 876.493C508.805 876.498 529.083 875.959 549.184 876.566C559.948 876.184 570.76 876.497 581.531 876.505L629.829 876.492L708.666 876.359Z"/>
	<path fill="#FB474C" d="M247.35 932.502C270.392 931.392 293.634 931.958 316.698 931.978L424.263 932.131C418.463 932.835 412.34 932.533 406.492 932.578C396.757 932.653 387.031 932.783 377.296 932.607C364.877 932.382 351.191 931.467 339.312 935.517C344.478 938.733 353.573 948.349 355.261 954.25C355.377 954.656 355.388 954.898 355.445 955.336C354.573 956.111 355.028 955.757 354.084 956.401C354.279 957.45 354.518 957.808 355.266 958.562C335.77 958.89 316.366 958.22 296.89 958.061L213.012 958.016C222.199 946.747 233.416 937.261 247.35 932.502Z"/>
	<path fill="#F3A658" d="M708.666 876.359C727.721 875.808 749.136 875.25 763.929 889.289C770.766 895.778 775.229 904.402 777.368 913.528L665.262 913.553C645.3 913.567 625.234 914.051 605.285 913.48C599.217 911.845 588.912 912.983 582.435 913.024C570.779 913.099 559.092 913.236 547.45 912.591C549.884 909.288 552.929 906.997 555.643 904.009C557.004 902.51 557.371 900.243 557.163 898.28C555.99 887.234 545.259 883.025 538.181 877.443C538.024 877.319 537.87 877.192 537.714 877.067C541.511 877.042 545.436 877.209 549.184 876.566C559.948 876.184 570.76 876.497 581.531 876.505L629.829 876.492L708.666 876.359Z"/>
	<defs>
		<linearGradient id="gradient_0" gradientUnits="userSpaceOnUse" x1="289.80673" y1="896.34662" x2="555.94812" y2="893.16229">
			<stop offset="0" stop-color="#F23345"/>
			<stop offset="1" stop-color="#F28445"/>
		</linearGradient>
	</defs>
	<path fill="url(#gradient_0)" d="M312.179 876.326C331.168 877.107 350.416 876.478 369.43 876.479L488.688 876.493C508.805 876.498 529.083 875.959 549.184 876.566C545.436 877.209 541.511 877.042 537.714 877.067C537.87 877.192 538.024 877.319 538.181 877.443C545.259 883.025 555.99 887.234 557.163 898.28C557.371 900.243 557.004 902.51 555.643 904.009C552.929 906.997 549.884 909.288 547.45 912.591C559.092 913.236 570.779 913.099 582.435 913.024C588.912 912.983 599.217 911.845 605.285 913.48C589.057 913.897 572.772 913.636 556.537 913.658L474.503 913.795L290.287 913.836C288.066 913.199 285.714 913.71 283.556 913.065C285.586 912.992 287.709 912.955 289.711 912.612C291.433 912.317 292.754 911.673 293.752 910.19C297.91 904.01 296.921 892.401 295.38 885.45C294.87 883.149 293.841 881.022 293.407 878.705C293.346 878.379 293.296 878.051 293.24 877.724L291.421 876.985C298.279 876.284 305.289 876.456 312.179 876.326Z"/>
	<path fill="#FB7626" d="M424.263 932.131C452.406 931.683 480.601 931.989 508.75 931.989L658.743 931.994L735.425 931.985C749.367 931.964 763.625 930.971 777.486 932.459C785.652 936.622 794.167 940.9 800.704 947.471C801.375 949.941 803.423 954.799 802.207 957.184C801.771 958.039 800.719 958.533 799.812 958.751C794.938 959.92 779.329 958.923 773.118 958.921L699.366 958.916L355.266 958.562C354.518 957.808 354.279 957.45 354.084 956.401C355.028 955.757 354.573 956.111 355.445 955.336C355.388 954.898 355.377 954.656 355.261 954.25C353.573 948.349 344.478 938.733 339.312 935.517C351.191 931.467 364.877 932.382 377.296 932.607C387.031 932.783 396.757 932.653 406.492 932.578C412.34 932.533 418.463 932.835 424.263 932.131Z"/>
	<defs>
		<linearGradient id="gradient_1" gradientUnits="userSpaceOnUse" x1="350.14188" y1="296.1091" x2="678.57294" y2="262.73727">
			<stop offset="0" stop-color="#C81D01"/>
			<stop offset="1" stop-color="#FF5C01"/>
		</linearGradient>
	</defs>
	<path fill="url(#gradient_1)" d="M355.637 137.095C356.428 135.62 357.153 134.018 358.208 132.711C359.889 130.629 362.191 129.477 364.893 129.976C371.983 131.285 381.849 140.04 387.977 144.263C402.261 154.107 417.046 163.26 431.447 172.939C440.776 179.209 450.1 187.26 460.37 191.827C464.278 193.565 467.831 194.161 472.089 193.646C472.68 187.801 474.283 181.667 477.954 176.957C480.856 173.234 484.861 171.012 489.551 170.514C494.087 171.513 529.576 171.347 534.469 170.481C538.461 170.869 541.828 172.877 544.308 176.009C548.419 181.202 549.527 187.38 550.603 193.722C553.385 193.794 556.945 194.137 559.517 193.011C566.029 190.158 572.219 184.718 578.255 180.844L628.433 148.549C636.719 143.269 645.257 136.967 654.116 132.754C656.604 131.57 658.662 130.901 661.331 131.96C664.661 133.281 666.043 136.712 667.46 139.725C664.534 153.832 659.876 167.855 655.952 181.721L639.494 241.085C637.164 249.284 630.742 267.393 630.411 275.044C630.132 281.484 635.173 293.093 636.45 300.161C638.418 311.051 638.676 321.997 638.975 333.027C649.384 337.753 658.887 339.464 670.16 340.562C666.48 349.058 660.821 356.983 653.045 362.172C639.413 371.268 622.311 369.568 607.037 366.556C623.842 375.03 640.54 379.932 659.41 381.12C646.75 392.889 633.152 399.223 616.361 402.861C612.244 403.753 606.954 403.745 603.135 405.269C598.946 406.941 594.623 411.431 591.004 414.22C564.796 434.415 533.022 448.022 499.341 443.494C476.739 440.456 456.272 431.053 438.045 417.603C433.053 413.919 428.007 408.36 422.564 405.663C418.525 403.662 413.104 403.662 408.688 402.78C393.277 399.701 376.058 393.621 366.231 380.679C382.886 380.134 398.996 373.624 413.99 366.881C402.122 368.988 389.09 369.99 377.651 365.36C364.881 360.191 357.894 349.417 352.743 337.194C364.13 339.081 371.994 337.987 382.502 333.054C382.077 312.917 385.498 294.504 392.335 275.61C389.412 266.893 387.387 257.749 385.057 248.853L374.757 210.627L362.457 165.016C360.017 155.785 357.236 146.515 355.637 137.095Z"/>
	<path fill="#671312" d="M495.805 359.242C502.87 358.902 529.761 357.175 533.942 361.377C534.891 362.332 535.269 363.614 535.256 364.934C535.191 371.803 525.62 380.023 521.1 384.715C518.535 387.581 515.96 390.927 512.083 391.871C510.471 391.697 509.288 391.012 507.98 390.095C502.436 386.206 489.54 372.077 488.683 365.441C488.486 363.917 488.736 362.256 489.834 361.1C491.425 359.426 493.666 359.417 495.805 359.242Z"/>
	<path fill="#F9C818" d="M566.248 283.516C570.662 283.297 574.697 283.325 578.768 285.294C583.069 287.374 586.381 291.206 587.923 295.719C589.535 300.439 589.343 305.725 587.128 310.223C584.469 315.619 579.78 318.505 574.298 320.428C570.787 320.889 567.337 320.895 563.968 319.689C559.146 317.962 555.286 314.241 553.292 309.533C551.269 304.754 551.247 299.25 553.317 294.482C555.882 288.576 560.523 285.764 566.248 283.516Z"/>
	<path fill="#F9C818" d="M451.407 283.209C454.96 283.145 458.723 283.92 461.835 285.669C466.091 288.061 469.089 292.211 470.313 296.914C471.633 301.987 470.913 307.5 468.078 311.94C464.898 316.92 460.03 319.263 454.448 320.61C449.64 320.467 445.454 319.85 441.41 316.962C437.157 313.924 434.216 309.082 433.573 303.886C432.973 299.038 434.245 294.135 437.346 290.329C440.898 285.97 445.921 283.774 451.407 283.209Z"/>
	<path fill="#671312" d="M534.469 170.481C538.461 170.869 541.828 172.877 544.308 176.009C548.419 181.202 549.527 187.38 550.603 193.722C537.563 194.483 524.63 193.976 511.582 193.984C498.362 193.993 485.312 194.443 472.089 193.646C472.68 187.801 474.283 181.667 477.954 176.957C480.856 173.234 484.861 171.012 489.551 170.514C494.087 171.513 529.576 171.347 534.469 170.481Z"/>
	<path fill="#FB7626" d="M649.991 150.939C650.242 152.269 650.066 153.259 649.722 154.569C648.139 160.611 645.728 166.471 644.095 172.538L630.338 222.2C627.18 233.645 624.303 245.201 620.768 256.535C614.897 246.476 608.235 237.195 600.876 228.179C591.657 218.546 581.615 210.399 570.971 202.426L649.991 150.939Z"/>
	<path fill="#FB7626" d="M372.042 150.623C381.524 153.397 396.728 166.013 405.72 171.868C421.384 182.068 437.282 191.712 452.647 202.395C442.395 210.724 432.04 219.028 422.798 228.487C414.714 238.109 408.082 247.99 401.281 258.52C399.005 251.237 397.346 243.64 395.378 236.261L381.101 183.306C378.172 172.433 375.573 161.314 372.042 150.623Z"/>
	<path fill="#AD2008" d="M449.561 439.829C454.577 441.963 459.623 444.044 464.579 446.315C496.957 457.485 522.155 459.136 555.077 448.106C561.392 445.99 567.268 442.76 573.544 440.575L573.992 440.423L574.388 440.425C577.724 546.784 605.98 641.472 661.12 732.785C668.555 745.096 684.46 771.979 694.378 781.457C698.63 785.52 703.729 786.367 708.828 788.748C709.25 792.403 709.544 795.966 709.564 799.647C709.491 807.115 708.983 814.586 708.997 822.046C709.043 828.938 709.493 835.794 709.391 842.692C709.224 853.896 708.456 865.16 708.666 876.359L629.829 876.492L581.531 876.505C570.76 876.497 559.948 876.184 549.184 876.566C529.083 875.959 508.805 876.498 488.688 876.493L369.43 876.479C350.416 876.478 331.168 877.107 312.179 876.326C312.54 858.425 312.095 840.411 312.048 822.503L312.019 799.976C312.211 793.376 312.036 786.726 312.02 780.121C317.745 779.995 323.504 780.146 329.232 780.179C402.234 683.883 446.995 560.835 449.561 439.829Z"/>
	<path fill="#F3A658" d="M709.564 799.647C709.491 807.115 708.983 814.586 708.997 822.046C696.607 820.207 682.182 821.792 669.577 821.892L599.503 821.894L312.048 822.503L312.019 799.976L570.819 800.246L663.252 800.249C677.353 800.287 691.485 800.811 705.585 800.472C707.115 800.435 708.189 800.36 709.564 799.647Z"/>
	<path fill="#671312" d="M312.048 822.503L599.503 821.894L669.577 821.892C682.182 821.792 696.607 820.207 708.997 822.046C709.043 828.938 709.493 835.794 709.391 842.692C709.224 853.896 708.456 865.16 708.666 876.359L629.829 876.492L581.531 876.505C570.76 876.497 559.948 876.184 549.184 876.566C529.083 875.959 508.805 876.498 488.688 876.493L369.43 876.479C350.416 876.478 331.168 877.107 312.179 876.326C312.54 858.425 312.095 840.411 312.048 822.503Z"/>
	<defs>
		<linearGradient id="gradient_2" gradientUnits="userSpaceOnUse" x1="517.87573" y1="448.80524" x2="511.18933" y2="782.02374">
			<stop offset="0" stop-color="#EC5B00"/>
			<stop offset="1" stop-color="#E63D45"/>
		</linearGradient>
	</defs>
	<path fill="url(#gradient_2)" d="M573.992 440.423L573.682 441.454C567.046 444.577 560.417 447.478 553.435 449.762C555.004 458.524 554.767 467.688 555.288 476.561C556.173 491.622 557.407 506.75 559.748 521.662C573.635 610.132 610.267 708.254 664.03 780.164C626.849 781.704 589.41 780.566 552.197 780.443L358.988 779.996C376.243 758.352 389.796 734.222 402.248 709.573C438.498 637.816 462.91 560.303 468.579 479.86C469.285 469.837 470.184 459.74 469.951 449.686C468.448 448.964 465.215 447.934 464.431 446.558L464.579 446.315C496.957 457.485 522.155 459.136 555.077 448.106C561.392 445.99 567.268 442.76 573.544 440.575L573.992 440.423Z"/>
</svg>
