<?xml version="1.0" encoding="utf-8" ?>
<svg xmlns="http://www.w3.org/2000/svg" xmlns:xlink="http://www.w3.org/1999/xlink" width="1024" height="1024">
	<path fill="#FE3232" d="M707.908 136.049L709.792 134.724L710.347 135.03C711.237 142.764 701.486 177.981 699.304 187.832L680.504 271.683C676.613 288.96 672.978 306.381 668.557 323.528C665.241 319.237 660.354 315.574 656.667 311.463C660.105 297.3 664.386 283.307 668.288 269.266L690.764 190.077C694.093 178.761 703.562 155.83 703.907 145.568C704.75 143.752 705.988 142.132 707.019 140.415C707.992 138.793 708.361 137.89 707.908 136.049Z"/>
	<path fill="#FE3232" d="M312.263 137.527C315.66 138.606 319.02 143.198 321.143 145.956C321.15 153.048 325.034 161.418 327.087 168.24C329.777 177.179 332.409 186.151 334.898 195.149C345.739 234.342 355.603 273.877 366.93 312.928C363.909 317.244 359.929 320.784 356.116 324.389L312.263 137.527Z"/>
	<path fill="#7B1A19" d="M707.908 136.049C708.361 137.89 707.992 138.793 707.019 140.415C705.988 142.132 704.75 143.752 703.907 145.568C697.821 152.113 692.147 159.033 686.274 165.767C668.642 185.986 651.476 206.536 634.346 227.182C625.706 237.596 617.372 248.81 608.168 258.681C600.826 253.136 594.57 244.694 586.607 240.268C583.963 237.592 580.889 235.415 578.217 232.768C588.742 225.575 598.768 217.625 608.965 209.976L671.07 163.548C683.328 154.34 695.274 144.747 707.908 136.049Z"/>
	<path fill="#7B1A19" d="M310.191 130.506C325.362 141.414 340.025 152.982 354.845 164.355L406.944 203.978L430.409 221.828C434.927 225.294 439.43 229.315 444.367 232.161C443.451 233.227 442.592 234.339 441.448 235.172C432.785 239.609 424.628 253.372 416.034 259.947L415.81 259.655C406.977 250.585 399.135 239.901 390.977 230.177C375.116 211.269 359.091 192.475 343.508 173.337C336.138 164.286 329.16 154.407 321.143 145.956C319.02 143.198 315.66 138.606 312.263 137.527L310.191 130.506Z"/>
	<path fill="#D50D00" d="M503.109 117.74C492.19 113.022 482.12 106.155 477.581 94.6808C474.112 85.9127 474.473 76.0051 478.308 67.4209C482.313 58.4591 489.775 50.9996 498.994 47.503C507.995 44.0895 518.488 44.3246 527.229 48.4115C536.165 52.5897 543.602 60.0975 546.906 69.4754C550.096 78.5305 549.367 89.333 545.222 97.9567C540.674 107.42 531.834 113.716 522.066 117.021L520.806 117.437C516.777 119.794 507.599 118.578 503.109 117.74Z"/>
	<path fill="#FBB647" d="M321.143 145.956C329.16 154.407 336.138 164.286 343.508 173.337C359.091 192.475 375.116 211.269 390.977 230.177C399.135 239.901 406.977 250.585 415.81 259.655L386.748 291.178C380.069 298.339 373.093 305.312 366.93 312.928C355.603 273.877 345.739 234.342 334.898 195.149C332.409 186.151 329.777 177.179 327.087 168.24C325.034 161.418 321.15 153.048 321.143 145.956Z"/>
	<path fill="#FBB647" d="M703.907 145.568C703.562 155.83 694.093 178.761 690.764 190.077L668.288 269.266C664.386 283.307 660.105 297.3 656.667 311.463C651.306 304.427 644.613 298.382 638.399 292.103C627.994 281.59 617.348 270.704 608.096 259.167L608.168 258.681C617.372 248.81 625.706 237.596 634.346 227.182C651.476 206.536 668.642 185.986 686.274 165.767C692.147 159.033 697.821 152.113 703.907 145.568Z"/>
	<path fill="#7B1A19" d="M503.109 117.74C507.599 118.578 516.777 119.794 520.806 117.437C532.552 126.715 583.198 163.522 588.165 171.626C588.084 172.251 588.032 172.873 587.868 173.482C584.391 180.972 582.962 189.415 579.473 196.736C576.466 206.422 573.066 216.305 571 226.226C561.231 227.51 545.713 226.119 535.203 226.099L452.004 225.937C448.215 216.507 445.584 206.371 442.559 196.656L435.596 173.991C435.081 172.814 434.655 172.121 434.895 170.81C444.336 161.675 455.904 153.751 466.256 145.619C478.224 136.218 490.036 125.558 503.109 117.74Z"/>
	<path fill="#FBB647" d="M435.596 173.991C472.611 174.341 509.608 174.76 546.629 174.452C560.386 174.337 574.119 173.626 587.868 173.482C584.391 180.972 582.962 189.415 579.473 196.736C559.925 194.867 539.509 196.066 519.842 196.058C494.178 196.046 468.18 195.125 442.559 196.656L435.596 173.991Z"/>
	<path fill="#7B1A19" d="M442.559 196.656C468.18 195.125 494.178 196.046 519.842 196.058C539.509 196.066 559.925 194.867 579.473 196.736C576.466 206.422 573.066 216.305 571 226.226C561.231 227.51 545.713 226.119 535.203 226.099L452.004 225.937C448.215 216.507 445.584 206.371 442.559 196.656Z"/>
	<path fill="#7B1A19" d="M144.277 976.493L190.939 929.665C201.367 919.109 211.493 908.145 222.33 898.005L799.084 898.027L845.465 943.189C856.726 953.996 869.086 964.44 879.043 976.469L144.277 976.493Z"/>
	<path fill="#FE6600" d="M452.004 225.937L535.203 226.099C545.713 226.119 561.231 227.51 571 226.226C573.502 228.001 576.366 230.301 578.217 232.768C580.889 235.415 583.963 237.592 586.607 240.268C594.57 244.694 600.826 253.136 608.168 258.681L608.096 259.167C617.348 270.704 627.994 281.59 638.399 292.103C644.613 298.382 651.306 304.427 656.667 311.463C660.354 315.574 665.241 319.237 668.557 323.528C676.53 333.248 684.918 342.593 693.262 351.992C696.838 356.021 700.986 361.856 705.377 364.918C707.937 371.127 706.656 377.969 705.971 384.449C705.853 398.612 704.964 413.258 705.807 427.382C705.932 433.485 706.018 439.584 706.028 445.689C704.074 447.575 702.087 449.645 699.587 450.793C694.192 453.217 689.38 457.668 684.66 461.201C679.99 464.697 675.188 468.033 670.433 471.411L636.847 495.147C628.106 501.233 619.287 507.046 610.808 513.509L544.858 559.28C533.053 567.48 521.023 575.478 509.437 583.978C495.308 572.883 480.307 562.752 465.662 552.345C448.364 540.052 431.206 527.464 413.697 515.477C404.401 507.049 392.616 500.446 382.342 493.202C361.734 478.672 341.192 463.991 321.093 448.767C321.054 442.275 320.974 435.792 320.782 429.303C319.679 422.243 320.636 414.393 320.718 407.237C320.806 399.637 320.472 392.011 320.218 384.415C319.836 378.25 319.961 371.075 321.044 364.973C332.156 350.997 345.007 338.456 356.116 324.389C359.929 320.784 363.909 317.244 366.93 312.928C373.093 305.312 380.069 298.339 386.748 291.178L415.81 259.655L416.034 259.947C424.628 253.372 432.785 239.609 441.448 235.172C442.592 234.339 443.451 233.227 444.367 232.161C446.818 229.944 449.375 227.936 452.004 225.937Z"/>
	<path fill="#7B1A19" d="M484.593 410.504L515.601 410.446C523.032 410.419 530.417 410.023 537.808 411.07C536.945 425.171 523.958 435.584 514.985 445.16L514.996 460.304C525.259 469.543 539.461 477.86 551.864 483.98C536.588 480.652 523.737 472.729 509.443 466.908C505.997 469.426 502.44 471.66 498.656 473.641C487.598 479.429 471.51 483.671 459.226 479.763C461.79 479.699 464.367 479.646 466.922 479.399C482.112 477.929 497.964 470.811 507.789 458.892L507.736 444.315C499.131 438.715 491.388 429.519 486.759 420.375C485.291 417.476 483.538 413.737 484.593 410.504Z"/>
	<path fill="#FBB647" d="M320.218 384.415C319.836 378.25 319.961 371.075 321.044 364.973C329.308 368.026 341.512 378.359 349.075 383.803L386.279 410.393L411.711 428.538C417.054 432.333 422.762 435.986 427.68 440.324C427.16 446.405 427.101 452.424 427.097 458.523C416.376 451.441 406.032 443.689 395.549 436.252L353.177 406.358C349.337 403.594 323.215 384.012 321.706 383.598C321.398 383.513 321.07 383.645 320.752 383.669L320.218 384.415Z"/>
	<path fill="#FBB647" d="M595.266 441.523C600.296 436.231 607.275 432.266 613.314 428.178L635.905 412.787L705.377 364.918C707.937 371.127 706.656 377.969 705.971 384.449C679.485 403.251 652.683 421.617 625.762 439.789L604.033 454.482C599.773 457.358 595.445 460.656 590.846 462.956L595.266 441.523Z"/>
	<path fill="#FE3232" d="M494.291 355.991C504.027 357.271 519.249 357.377 528.926 356.116C531.066 367.513 532.768 379.101 534.393 390.584C535.315 397.104 535.392 404.945 537.808 411.07C530.417 410.023 523.032 410.419 515.601 410.446L484.593 410.504C486.377 405.956 486.983 400.464 487.759 395.625C489.851 382.597 490.83 368.712 494.291 355.991Z"/>
	<path fill="#D50D00" d="M587.667 325.656C601.944 323.834 618.021 329.397 632.337 330.637C630.251 337.72 625.86 345.079 621.886 351.267C613.747 363.94 603.403 371.68 588.651 374.911C586.208 375.319 583.704 375.504 581.227 375.528C566.282 375.672 554.868 367.504 544.629 357.41L545.908 355.632C557.078 340.265 568.23 328.716 587.667 325.656Z"/>
	<path fill="#FEFEFE" d="M595.181 334.076C604.179 335.098 613.31 335.893 622.337 336.665C620.698 340.395 618.736 344.075 616.598 347.541C610.237 357.858 601.163 366.146 589.077 368.913C575.372 372.051 564.151 366.963 552.804 359.792C551.698 358.641 551.268 358.378 550.929 356.779C553.454 348.156 565.727 341.24 573.015 336.745C572.51 338.694 572.061 340.65 571.748 342.639C570.93 347.842 571.404 353.409 574.732 357.7C577.163 360.833 580.785 362.775 584.717 363.196C589.121 363.666 593.585 362.221 596.953 359.364C600.013 356.769 602.073 353.038 602.32 349.004C602.695 342.853 598.984 338.402 595.181 334.076Z"/>
	<path fill="#D50D00" d="M426.716 326.304C431.958 325.737 437.201 325.393 442.391 326.548C457.608 329.933 470.497 343.929 478.471 356.567C466.431 369.275 458.602 375.188 440.502 375.73C435.801 375.541 431.4 374.974 426.944 373.42C408.111 366.849 396.997 347.766 388.88 330.662C401.502 329.13 414.054 327.538 426.716 326.304Z"/>
	<path fill="#FEFEFE" d="M423.837 334.211C424.683 334.14 425.375 334.246 426.212 334.361C426.856 336.648 421.341 343.368 421.929 348.859C422.393 353.192 425.152 357.208 428.576 359.787C431.759 362.184 435.782 363.436 439.76 362.849C443.672 362.272 446.971 360.055 449.151 356.776C453.12 350.805 451.914 344.185 450.647 337.623C453.966 339.232 456.882 340.972 459.864 343.155C463.359 345.713 472.499 352.66 472.801 357.297C472.852 358.083 472.201 358.377 471.686 358.88C468.559 361.355 464.906 363.493 461.289 365.169C450.565 370.138 438.422 370.97 427.317 366.731C413.7 361.533 405.451 348.98 399.759 336.19C407.606 334.859 415.889 334.629 423.837 334.211Z"/>
	<path fill="#FBB647" d="M705.807 427.382C705.932 433.485 706.018 439.584 706.028 445.689C704.074 447.575 702.087 449.645 699.587 450.793C694.192 453.217 689.38 457.668 684.66 461.201C679.99 464.697 675.188 468.033 670.433 471.411L636.847 495.147C628.106 501.233 619.287 507.046 610.808 513.509L544.858 559.28C533.053 567.48 521.023 575.478 509.437 583.978C495.308 572.883 480.307 562.752 465.662 552.345C448.364 540.052 431.206 527.464 413.697 515.477C404.401 507.049 392.616 500.446 382.342 493.202C361.734 478.672 341.192 463.991 321.093 448.767C321.054 442.275 320.974 435.792 320.782 429.303C327.362 433.082 333.544 438.241 339.676 442.738L373.624 467.398L461.43 529.506C477.442 540.789 493.299 552.397 509.551 563.328C545.633 536.854 583.269 512.23 620.102 486.793L669.753 452.493C681.7 444.102 693.515 435.248 705.807 427.382Z"/>
	<path fill="#D50D00" d="M452.004 225.937L535.203 226.099C545.713 226.119 561.231 227.51 571 226.226C573.502 228.001 576.366 230.301 578.217 232.768C580.889 235.415 583.963 237.592 586.607 240.268C594.57 244.694 600.826 253.136 608.168 258.681L608.096 259.167L556.742 322.1C548.263 332.615 538.406 347.147 528.926 356.116C519.249 357.377 504.027 357.271 494.291 355.991C490.38 352.179 486.97 347.495 483.522 343.262L465.687 321.406C449.058 301.202 431.117 281.314 416.034 259.947C424.628 253.372 432.785 239.609 441.448 235.172C442.592 234.339 443.451 233.227 444.367 232.161C446.818 229.944 449.375 227.936 452.004 225.937Z"/>
	<path fill="#FBB647" d="M452.004 225.937L535.203 226.099C545.713 226.119 561.231 227.51 571 226.226C573.502 228.001 576.366 230.301 578.217 232.768C580.889 235.415 583.963 237.592 586.607 240.268C575.555 242.59 550.289 240.501 537.693 240.47L437.138 240.983C438.908 239.174 440.341 237.46 441.448 235.172C442.592 234.339 443.451 233.227 444.367 232.161C446.818 229.944 449.375 227.936 452.004 225.937Z"/>
	<path fill="#FE6600" d="M321.093 448.767C341.192 463.991 361.734 478.672 382.342 493.202C392.616 500.446 404.401 507.049 413.697 515.477C431.206 527.464 448.364 540.052 465.662 552.345C480.307 562.752 495.308 572.883 509.437 583.978C521.023 575.478 533.053 567.48 544.858 559.28L610.808 513.509C619.287 507.046 628.106 501.233 636.847 495.147L670.433 471.411C675.188 468.033 679.99 464.697 684.66 461.201C689.38 457.668 694.192 453.217 699.587 450.793C701.459 459.674 706.732 477.08 713.159 483.23C714.738 484.68 716.325 486.096 717.752 487.7C723.93 493.972 730.206 500.143 736.48 506.319C747.963 517.811 759.311 529.322 770.242 541.348C780.886 552.357 793.048 563.659 801.581 576.429C810.78 588.527 816.606 602.192 821.662 616.403C826.231 637.248 830.335 664.158 826.049 685.173C821.31 707.44 809.533 728.417 800.522 749.204C785.808 783.146 771.468 817.209 755.942 850.794L755.695 852.091C758.594 854.401 793.163 852.624 798.974 852.541C798.868 866.543 797.246 884.472 799.084 898.027L222.33 898.005C223.677 892.21 222.922 884.986 222.879 879.02L222.772 852.106C233.487 851.905 244.241 852.24 254.963 852.179C258.435 852.159 262.966 852.644 266.304 851.868L266.085 850.605C262.188 839.828 256.626 829.277 252.114 818.691L216.657 736.374C209.348 719.608 200.92 703.413 196.641 685.538C192.808 661.707 196.24 638.369 202.448 615.315C207.821 600.953 215.111 587.93 224.418 575.747C234.122 563.347 244.577 551.819 255.229 540.234C265.58 528.973 276.521 518.353 287.501 507.715C293.215 502.064 299.203 496.723 304.82 490.965C309.851 485.779 315.076 480.802 320.299 475.811C323.305 469.669 321.428 455.548 321.093 448.767Z"/>
	<path fill="#D50D00" d="M304.82 490.965C309.851 485.779 315.076 480.802 320.299 475.811C322.569 482.078 323.467 489.392 324.929 495.935C328.921 513.807 333.723 531.765 335.044 550.078C330.835 542.876 325.708 536.135 321.696 528.858C315.055 516.814 310.027 503.665 304.82 490.965Z"/>
	<path fill="#D50D00" d="M713.159 483.23C714.738 484.68 716.325 486.096 717.752 487.7C717.002 491.855 715.136 496.228 713.797 500.277C707.458 519.451 699.311 536.458 686.192 551.975C685.922 539.201 687.444 517.329 691.4 505.31C699.297 497.852 707.26 492.738 713.159 483.23Z"/>
	<path fill="#D50D00" d="M255.229 540.234C265.58 528.973 276.521 518.353 287.501 507.715C287.634 507.965 287.769 508.213 287.899 508.465C290.896 514.26 292.148 521.245 294.852 527.26C303.188 545.808 320.226 562.843 337.442 573.39C338.682 595.3 340.776 618.755 336.429 640.406C302.598 613.664 272.995 579.924 255.229 540.234Z"/>
	<path fill="#D50D00" d="M736.48 506.319C747.963 517.811 759.311 529.322 770.242 541.348C766.586 549.083 761.913 556.479 757.293 563.667C738.787 592.452 715.944 617.901 688.042 637.785C685.535 622.321 684.188 593.645 685.094 578.223C690.274 572.219 696.873 567.217 702.24 561.223C712.46 549.81 721.35 537.51 728.305 523.828C731.086 518.357 733.248 512.545 736.058 507.125L736.48 506.319Z"/>
	<path fill="#FE3232" d="M405.016 821.205L419.05 821.162L566.5 821.478C579.929 821.512 593.334 821.143 606.768 821.305C609.52 821.47 612.234 821.525 614.99 821.498C614.445 831.731 614.485 841.973 614.534 852.218C591.509 852.488 568.527 852.039 545.508 852.015L405.418 852.004C405.46 841.738 405.205 831.469 405.016 821.205Z"/>
	<path fill="#D50D00" d="M801.581 576.429C810.78 588.527 816.606 602.192 821.662 616.403C785.495 656.203 747.536 681.005 699.612 704.434C695.112 692.043 691.715 671.42 690.532 658.086C731.173 636.908 770.584 610.39 801.581 576.429Z"/>
	<path fill="#D50D00" d="M224.418 575.747C228.987 579.119 232.834 584.205 236.751 588.332C240.627 592.415 244.773 596.322 248.92 600.129C269.248 618.795 292.316 634.946 316.101 648.875C321.877 652.259 327.861 655.995 333.997 658.673C332.339 672.684 330.208 686.988 326.678 700.665C287.126 688.021 251.063 667.694 221.757 637.967C214.769 630.879 209.493 622.313 202.448 615.315C207.821 600.953 215.111 587.93 224.418 575.747Z"/>
	<path fill="#D50D00" d="M702.962 718.848C731.463 713.967 759.372 709.858 787.224 701.736C793.899 699.79 800.374 697.316 806.716 694.467C811.669 692.242 821.339 685.634 826.049 685.173C821.31 707.44 809.533 728.417 800.522 749.204C785.808 783.146 771.468 817.209 755.942 850.794C737.739 815.504 721.05 781.032 709.365 742.912C706.959 735.062 703.993 727.001 702.962 718.848Z"/>
	<path fill="#D50D00" d="M196.641 685.538C205.792 687.161 214.926 692.448 223.663 695.7C233.245 699.265 243.537 702.098 253.41 704.775C268.041 708.743 282.833 711.744 297.787 714.198C305.9 715.53 314.392 716.26 322.386 718.095C320.782 726.743 317.467 735.246 314.678 743.576C309.08 760.295 303.126 776.711 295.675 792.71C290.006 804.884 283.442 816.604 277.269 828.519C273.503 835.788 270.217 843.563 266.085 850.605C262.188 839.828 256.626 829.277 252.114 818.691L216.657 736.374C209.348 719.608 200.92 703.413 196.641 685.538Z"/>
	<path fill="#7B1A19" d="M610.808 513.509C611.316 530.525 610.667 547.539 611.432 564.559C613.703 615.085 621.926 665.297 636.282 713.797C645.066 743.474 656.277 773.217 669.729 801.081C673.247 808.367 693.7 848.113 693.798 852.084L693.37 852.372C693.181 852.296 693.003 852.187 692.804 852.143C690.351 851.593 680.16 852.287 676.756 852.277L614.534 852.218C614.485 841.973 614.445 831.731 614.99 821.498C612.234 821.525 609.52 821.47 606.768 821.305C593.334 821.143 579.929 821.512 566.5 821.478L419.05 821.162L405.016 821.205C405.205 831.469 405.46 841.738 405.418 852.004C378.649 851.226 351.781 851.706 325.003 851.997C337.947 830.495 350.208 808.685 360.801 785.913C392.403 717.973 408.985 644.333 413.524 569.71C414.146 559.491 414.279 549.187 414.053 538.954C413.881 531.142 413.35 523.285 413.697 515.477C431.206 527.464 448.364 540.052 465.662 552.345C480.307 562.752 495.308 572.883 509.437 583.978C521.023 575.478 533.053 567.48 544.858 559.28L610.808 513.509Z"/>
	<path fill="#FBB647" d="M590.666 756.842C583.924 754.937 577.871 752.859 574.168 746.371C571.765 742.16 571.206 737.09 572.527 732.436C573.96 727.39 577.608 722.837 582.245 720.367C586.948 717.861 592.553 717.541 597.586 719.215C602.814 720.954 606.674 724.88 609.026 729.823C611.166 734.32 611.499 739.912 609.677 744.565C607.93 749.029 604.127 753.084 599.676 754.91C598.654 755.33 597.605 755.708 596.563 756.074C592.177 779.131 591.385 798.712 605.004 818.801C605.578 819.646 606.169 820.478 606.768 821.305C593.334 821.143 579.929 821.512 566.5 821.478L419.05 821.162C421.639 816.977 424.475 812.766 426.539 808.295C434.274 791.543 429.66 774.226 428.31 756.765C422.478 755.45 417.537 753.065 414.118 747.916C411.465 743.922 410.311 738.944 411.299 734.223C412.395 728.983 415.385 724.293 419.955 721.437C424.601 718.533 430.565 717.589 435.891 718.839C440.938 720.024 445.306 723.379 447.849 727.88C450.426 732.441 451.006 737.959 449.421 742.955C447.714 748.338 445.045 751.865 439.888 754.377C437.56 755.511 434.94 756.216 432.426 756.812C436.211 764.46 440.538 771.765 444.175 779.504L579.959 779.504C583.735 772.05 587.014 764.358 590.666 756.842Z"/>
	<path fill="#FBB647" d="M508.074 603.551C511.323 603.216 514.343 603.334 517.47 604.372C522.464 606.031 526.664 609.383 528.864 614.23C530.965 618.86 531.166 624.449 529.342 629.2C526.744 635.97 521.672 639.337 515.308 642.069C516.183 650.304 517.562 658.504 518.467 666.753C526.609 668.415 533.889 670.725 540.727 675.592C552.281 683.814 560.184 695.97 562.489 710.006C564.714 723.554 561.142 738.023 553.062 749.1C543.349 762.416 531.038 767.709 515.194 770.112C505.797 770.67 496.491 768.888 488.089 764.606C475.769 758.327 466.14 747.227 462.002 734.01C457.828 720.681 459.093 706.603 465.665 694.261C473.807 678.97 487.171 671.4 503.233 666.546C504.294 658.356 505.737 650.28 507.272 642.166C507.145 642.127 507.017 642.089 506.89 642.048L506.26 641.837C505.14 641.468 504.077 641.089 503.04 640.516C497.928 637.692 493.898 632.968 492.357 627.291C491.056 622.5 491.658 617.223 494.175 612.924C497.289 607.604 502.321 605.066 508.074 603.551Z"/>
</svg>
