<?xml version="1.0" encoding="utf-8" ?>
<svg xmlns="http://www.w3.org/2000/svg" xmlns:xlink="http://www.w3.org/1999/xlink" width="1024" height="1024">
	<path fill="#294D73" d="M511.521 42.3447C515.839 44.7895 548.204 95.7227 552.281 102.493C550.35 109.639 548.482 116.783 546.79 123.989C555.682 123.958 573.985 125.188 581.82 123.522C591.813 121.398 609.874 111.02 619.594 106.173C633.545 99.2164 647.534 92.4051 661.652 85.7942C667.012 83.2842 672.411 79.811 678.134 78.2479C680.231 77.6748 682.877 77.3225 684.772 78.6733C687.218 80.4168 687.132 84.5149 686.932 87.1549C686.101 98.0882 681.88 109.846 679.169 120.523C674.462 139.064 670.713 157.961 666.451 176.62C663.966 187.496 660.178 198.679 659.074 209.768C658.335 217.183 659.617 224.379 661.212 231.599C676.26 243.56 691.978 254.652 707.023 266.638C701.971 276.228 698.205 286.487 693.177 296.133C680.777 319.921 664.033 342.292 644.193 360.397C638.391 365.692 632.06 370.267 626.074 375.336C630.653 376.545 635.295 377.047 639.793 378.676C650.964 382.722 659.864 391.518 664.771 402.247C670.184 414.082 670.577 427.339 666.022 439.51C660.506 454.247 649.467 462.627 635.663 469.018C636.245 473.992 636.155 479.234 636.378 484.251C637.078 499.996 637.419 516.655 641.013 532.03C655.951 520.566 667.884 505.84 675.085 488.351C682.231 470.996 685.519 448.24 681.78 429.727C680.631 424.036 678.5 418.65 676.276 413.309C681.067 416.913 685.863 420.513 690.527 424.28C741.183 465.192 774.595 530.044 781.421 594.488C786.208 639.68 777.315 685.231 757.832 726.142C751.971 738.448 745.248 750.625 736.661 761.251C746.001 760.501 756.626 760.02 765.809 761.828C769.341 773.766 767.408 802.77 767.155 816.363C773.365 816.021 798.494 814.168 802.622 818.066C804.309 819.659 804.707 823.668 804.96 825.906C805.594 831.512 805.134 837.534 805.085 843.182L804.808 874.962C809.554 881.661 815.934 887.709 821.507 893.744C832.224 905.346 843.043 916.865 853.558 928.651C853.368 944.253 853.483 959.867 853.479 975.47L688.25 975.437L172.116 975.458C171.937 959.944 170.924 943.682 172.648 928.269C179.717 921.27 186.037 913.294 192.602 905.807C201.166 896.041 210.28 886.443 217.948 875.961C218.73 863.707 218.215 851.257 218.111 838.983C218.066 833.676 217.76 828.157 218.319 822.88C218.574 820.48 218.936 816.852 220.772 815.123C223.122 812.91 251.798 814.423 256.16 814.532C256.302 805.455 254.205 766.443 258.266 761.021C264.743 758.163 278.837 760.043 286.258 760.362C347.404 672.253 382.55 575.611 387.038 468.009C383.026 466.035 379.068 463.991 375.436 461.365C365.857 454.439 359.776 443.917 357.933 432.293C355.795 418.805 358.547 404.363 366.742 393.298C375.111 381.999 386.146 377.254 399.752 375.309C393.439 369.793 386.949 364.535 380.957 358.654C354.542 332.722 334.933 301.515 319.875 267.877C327.753 260.086 336.829 253.155 345.316 246.031C349.112 242.844 353.147 239.724 356.489 236.057C362.327 229.649 367.063 219.195 367.093 210.384C367.124 201.003 362.652 190.01 360.164 180.979C354.662 161.004 349.724 140.85 344.518 120.794C342.05 111.291 336.636 95.3805 336.395 86.2506C336.326 83.645 336.714 80.5004 338.756 78.6386C342.886 74.8725 349.961 79.5092 353.965 81.5801C370.817 90.2955 387.93 98.5178 404.891 107.018C415.02 112.094 429.963 121.604 440.688 123.83C448.963 125.547 466.667 124.049 475.961 124.025L471.2 102.192C475.06 94.5762 480.838 87.218 485.603 80.0603C494.019 67.4194 502.085 54.2455 511.521 42.3447ZM344.761 87.806C352.122 114.407 358.576 141.22 365.315 167.982C367.921 178.331 371.897 188.555 373.862 199.016C374.774 203.87 375.174 208.613 374.622 213.534C373.822 220.663 372.204 229.302 368.529 235.572C362.974 245.051 336.954 264.034 327.246 271.737C351.092 288.003 376.984 301.983 401.859 316.657C437.204 337.507 472.277 358.817 507.943 379.117C507.817 369.606 507.531 360.048 508.205 350.552C510.819 351.309 513.211 351.681 515.905 351.148L515.943 379.481C531.619 369.333 547.891 360.346 564.149 351.179L598.663 331.346C632.535 312.093 666.107 292.204 700.188 273.319C693.511 267.516 686.156 262.398 679.071 257.109C669.915 250.276 660.956 243.337 652.134 236.073C650.588 226.745 649.745 216.472 650.595 207.055C651.719 194.593 655.517 181.844 658.252 169.63C664.143 143.329 670.702 116.936 675.728 90.4706C665.285 95.9554 654.134 100.412 643.512 105.592C627.374 113.463 602.018 128.211 585.564 132.078C577.441 133.986 553.44 134.101 545.018 133.097C542.978 142.907 540.681 152.655 538.705 162.485L483.803 162.494C481.296 152.679 479.853 142.712 477.078 132.928C465.149 133.083 447.718 134.508 436.455 132.146C427.656 130.301 419.578 125.063 411.626 121.091C397.497 114.034 383.136 107.389 369.059 100.24C361.267 96.2838 353.805 91.4642 345.698 88.181L344.761 87.806Z"/>
	<path fill="#236B97" d="M769.208 589.824L769.777 590.412C772.242 601.581 774.097 641.719 768.594 651.679C765.848 656.648 761.909 661.207 758.206 665.488C741.879 684.365 722.513 696.291 698.644 703.269C697.088 700.073 695.236 696.975 693.516 693.861C689.128 684.363 685.308 674.394 680.474 665.139C688.058 662.197 695.872 659.392 703.195 655.852C723.154 646.202 740.941 631.254 754.041 613.419C759.601 605.849 763.196 597.133 769.208 589.824Z"/>
	<path fill="#93B8C1" d="M604.018 469.991L624.311 470.002C628.629 554.895 650.307 633.857 689.598 709.209C698.853 726.958 708.805 747.136 723.843 760.639L724.852 761.528L681.124 761.542C673.255 761.548 665.101 761.943 657.265 761.418C666.417 759.872 684.442 761.26 694.562 761.165C691.764 754.568 687.798 748.388 684.349 742.108C677.566 729.757 670.658 717.257 664.864 704.405C639.278 647.649 620.045 593.11 610.675 531.298C607.582 510.894 606.37 490.451 604.018 469.991Z"/>
	<path fill="#236B97" d="M706.749 455.164C710.37 457.341 713.473 461.694 716.171 464.955C732.179 484.307 744.665 506.27 754.357 529.4C753.737 532.02 753.116 534.643 752.43 537.247C743.093 572.684 718.625 602.668 687.239 621.122L667.629 630.953C661.585 618.824 658.281 605.079 654.61 592.072C668.199 584.002 680.591 574.143 690.199 561.492C707.81 538.302 714.817 507.814 711.438 479.074C710.518 471.249 707.89 463.728 706.846 455.922L706.749 455.164Z"/>
	<path fill="#638294" d="M397.776 470.025L419.689 469.998C418.353 489.426 416.943 508.735 414.209 528.025C404.656 595.445 382.632 660.43 349.976 720.118C342.353 734.053 332.747 746.785 324.753 760.493C316.221 760.521 307.684 760.607 299.153 760.376C310.39 745.915 319.93 729.103 328.871 713.16C361.492 654.993 383.921 590.159 393.108 524.053C395.607 506.071 396.862 488.146 397.776 470.025Z"/>
	<path fill="#638294" d="M368.082 430.625C372.223 431.962 397.297 431.047 403.31 431.044L496.839 430.996L657.9 432.05C657.002 434.628 656.117 437.23 654.905 439.681C650.844 447.891 643.935 454.872 635.059 457.679C622.908 461.521 592.976 459.357 579.417 459.268L522.565 459.237L445.652 459.253C431.393 459.255 416.968 459.708 402.733 459.025C397.316 458.765 391.599 458.578 386.703 456.05C376.471 450.767 371.364 441.182 368.082 430.625Z"/>
	<path fill="#93B8C1" d="M609.091 386.4L609.782 386.466C624.774 387.83 638.462 384.743 649.407 397.925C656.487 406.451 659.444 418.079 658.286 429.015C658.179 430.029 658.043 431.04 657.9 432.05L496.839 430.996L403.31 431.044C397.297 431.047 372.223 431.962 368.082 430.625C367.019 418.654 368.86 407.551 376.806 398.107C382.783 391.004 390.333 387.321 399.559 386.618C406.667 386.076 414.841 385.866 421.724 388.057C431.534 391.18 440.34 398.211 449.552 402.846C469.961 413.113 491.217 422.437 512.806 429.904C530.321 421.424 548.452 414.769 566.321 407.141C580.815 400.954 595.189 393.817 609.091 386.4Z"/>
	<path fill="#93B8C1" d="M511.005 826.473L794.503 826.511C794.509 841.17 794.917 855.843 794.74 870.496L603.802 870.371L543.194 870.369C532.583 870.37 521.666 869.859 511.088 870.555C510.57 855.913 510.991 841.13 511.005 826.473Z"/>
	<path fill="#236B97" d="M227.969 823.99C235.098 823.884 242.477 823.444 249.581 823.998C253.84 824.33 258.048 825.269 262.289 825.774C266.636 826.292 271.123 826.302 275.498 826.307L511.005 826.473C510.991 841.13 510.57 855.913 511.088 870.555C506.624 871.963 492.279 871.058 486.877 871.052L437.524 871.007L227.966 871.256C228.464 855.547 228.37 839.703 227.969 823.99Z"/>
	<path fill="#FEFEFE" d="M559.969 469.968L604.018 469.991C606.37 490.451 607.582 510.894 610.675 531.298C620.045 593.11 639.278 647.649 664.864 704.405C670.658 717.257 677.566 729.757 684.349 742.108C687.798 748.388 691.764 754.568 694.562 761.165C684.442 761.26 666.417 759.872 657.265 761.418L625.061 761.503C615.72 736.243 605.304 711.411 596.808 685.834C574.05 617.321 559.955 542.241 559.969 469.968Z"/>
	<path fill="#93B8C1" d="M419.689 469.998L466.012 470.003C466.013 548.519 450.941 625.431 423.593 698.946C417.727 714.716 410.904 730.225 403.964 745.55C401.697 750.558 398.213 755.498 396.597 760.733C388.575 759.854 379.912 760.484 371.838 760.488L324.753 760.493C332.747 746.785 342.353 734.053 349.976 720.118C382.632 660.43 404.656 595.445 414.209 528.025C416.943 508.735 418.353 489.426 419.689 469.998Z"/>
	<path fill="#638294" d="M466.012 470.003L497.419 469.728C501.851 469.728 506.586 469.421 510.98 469.839L510.963 761.497L436.577 761.514C423.965 761.516 408.872 762.65 396.597 760.733C398.213 755.498 401.697 750.558 403.964 745.55C410.904 730.225 417.727 714.716 423.593 698.946C450.941 625.431 466.013 548.519 466.012 470.003Z"/>
	<path fill="#93B8C1" d="M510.98 469.839C527.299 470.581 543.659 469.324 559.969 469.968C559.955 542.241 574.05 617.321 596.808 685.834C605.304 711.411 615.72 736.243 625.061 761.503L510.963 761.497L510.98 469.839Z"/>
	<defs>
		<linearGradient id="gradient_0" gradientUnits="userSpaceOnUse" x1="327.48578" y1="268.51584" x2="692.49939" y2="144.46042">
			<stop offset="0" stop-color="#175976"/>
			<stop offset="1" stop-color="#2A75A5"/>
		</linearGradient>
	</defs>
	<path fill="url(#gradient_0)" d="M344.761 87.806L345.698 88.181C353.805 91.4642 361.267 96.2838 369.059 100.24C383.136 107.389 397.497 114.034 411.626 121.091C419.578 125.063 427.656 130.301 436.455 132.146C447.718 134.508 465.149 133.083 477.078 132.928C479.853 142.712 481.296 152.679 483.803 162.494L538.705 162.485C540.681 152.655 542.978 142.907 545.018 133.097C553.44 134.101 577.441 133.986 585.564 132.078C602.018 128.211 627.374 113.463 643.512 105.592C654.134 100.412 665.285 95.9554 675.728 90.4706C670.702 116.936 664.143 143.329 658.252 169.63C655.517 181.844 651.719 194.593 650.595 207.055C649.745 216.472 650.588 226.745 652.134 236.073C660.956 243.337 669.915 250.276 679.071 257.109C686.156 262.398 693.511 267.516 700.188 273.319C666.107 292.204 632.535 312.093 598.663 331.346L564.149 351.179C547.891 360.346 531.619 369.333 515.943 379.481L515.905 351.148C513.211 351.681 510.819 351.309 508.205 350.552C507.531 360.048 507.817 369.606 507.943 379.117C472.277 358.817 437.204 337.507 401.859 316.657C376.984 301.983 351.092 288.003 327.246 271.737C336.954 264.034 362.974 245.051 368.529 235.572C372.204 229.302 373.822 220.663 374.622 213.534C375.174 208.613 374.774 203.87 373.862 199.016C371.897 188.555 367.921 178.331 365.315 167.982C358.576 141.22 352.122 114.407 344.761 87.806ZM667.916 107.028C653.538 112.351 639.962 118.949 626.025 125.283C618.029 128.916 609.223 132.135 601.747 136.728C599.858 137.889 597.474 139.543 596.571 141.66C596.051 142.877 596.369 143.863 596.896 145.021C600.862 153.735 613.894 162.983 620.694 169.981C625.192 174.924 640.084 192.43 646.087 192.185C647.485 192.128 648.038 191.904 648.825 190.73C650.865 187.69 664.598 129.469 666.285 121.196C667.2 116.709 667.912 112.257 668.279 107.688L667.916 107.028Z"/>
	<path fill="#0F2538" d="M497.048 323.853C503.832 319.766 510.77 318.437 518.518 320.426C522.094 321.344 525.066 322.728 528.153 324.763L528.148 325.22C528.117 330.653 528.552 335.412 527.916 340.894C523.99 344.375 519.381 347.205 515.905 351.148C513.211 351.681 510.819 351.309 508.205 350.552C505.948 348.13 503.102 345.989 500.595 343.817C496.799 336.081 495.717 332.655 497.048 323.853Z"/>
	<path fill="#294D73" d="M356.817 108.405C359.241 108.429 361.28 108.947 363.527 109.839C373.042 113.616 382.063 119.001 391.235 123.56C399.955 127.895 415.108 133.723 422.142 139.508C423.541 140.658 425.255 142.196 425.476 144.083C423.051 152.277 408.595 163.897 402.313 169.719C394.546 177.857 386.456 185.679 378.474 193.603C373.651 180.7 369.993 163.277 366.483 149.676C362.991 136.146 358.036 122.345 356.817 108.405Z"/>
	<path fill="#638294" d="M368.97 123.435C376.277 126.013 383.21 129.834 390.135 133.294C398.199 137.324 406.339 141.261 414.282 145.526C408.746 150.276 403.58 155.383 398.425 160.537C392.989 165.937 387.615 171.369 382.38 176.966C378.417 159.007 373.367 141.291 368.97 123.435Z"/>
	<path fill="#294D73" d="M667.916 107.028L668.279 107.688C667.912 112.257 667.2 116.709 666.285 121.196C664.598 129.469 650.865 187.69 648.825 190.73C648.038 191.904 647.485 192.128 646.087 192.185C640.084 192.43 625.192 174.924 620.694 169.981C613.894 162.983 600.862 153.735 596.896 145.021C596.369 143.863 596.051 142.877 596.571 141.66C597.474 139.543 599.858 137.889 601.747 136.728C609.223 132.135 618.029 128.916 626.025 125.283C639.962 118.949 653.538 112.351 667.916 107.028ZM655.541 121.943L626.443 135.59C620.503 138.363 614.284 140.967 608.602 144.239C613.706 150.974 620.688 156.98 626.676 162.961C631.941 168.223 637.781 173.313 642.715 178.858C645.522 166.129 648.192 153.338 651.277 140.675C652.769 134.553 655.049 128.391 656.126 122.215L655.541 121.943Z"/>
	<path fill="#294D73" d="M392.796 236.035C409.728 231.751 429.422 224.394 446.067 233.138C473.013 247.292 488.549 296.376 497.048 323.853C495.717 332.655 496.799 336.081 500.595 343.817C497.17 342.414 492.313 338.548 490.569 335.246C487.637 329.696 486.34 317.538 484.366 310.714C480.325 296.745 474.743 283.563 468.283 270.553C463.022 278.082 455.066 283.834 446.179 286.252C436.769 288.812 426.363 287.183 417.964 282.322C401.432 272.757 397.323 253.091 392.796 236.035Z"/>
	<path fill="#FEFEFE" d="M444.337 242.478C446.568 242.394 448.647 242.416 450.58 243.685C451.895 244.547 452.813 245.804 452.95 247.416C453.176 250.091 451.385 251.895 449.641 253.616C449.415 253.669 449.191 253.734 448.963 253.774C447.245 254.075 445.086 253.901 443.672 252.762C442.516 251.832 441.867 250.711 441.686 249.249C441.328 246.37 442.603 244.608 444.337 242.478Z"/>
	<path fill="#FEFEFE" d="M455.69 251.737C459.912 257.36 463.868 262.775 467.315 268.925C464.399 270.017 461.413 271.192 458.305 271.601C454.407 271.578 450.515 271.53 446.619 271.412C452.432 265.453 454.709 259.917 455.69 251.737Z"/>
	<path fill="#236B97" d="M403.601 243.929C411.516 241.167 419.542 238.564 427.302 235.391C423.834 238.669 421.08 241.887 419.695 246.559C418.126 251.852 419.114 257.389 421.788 262.148C424.644 267.232 429.444 271.371 435.133 272.891C439.448 274.044 442.779 273.546 446.619 271.412C450.515 271.53 454.407 271.578 458.305 271.601C454.279 273.277 450.516 276.153 446.322 277.325C437.857 279.69 428.882 278.866 421.261 274.309C410.14 267.66 406.705 255.664 403.601 243.929Z"/>
	<path fill="#294D73" d="M528.153 324.763C530.098 317.66 531.626 310.509 533.861 303.478C541.142 280.574 555.739 245.195 577.305 232.949C598.596 220.859 613.246 232.965 634.417 234.739C630.581 252.218 624.711 270.974 608.787 281.128C599.847 286.829 588.689 288.942 578.304 286.634C569.061 284.58 561.752 279.298 555.56 272.31C548.831 285.547 542.608 300.049 538.99 314.482C537.561 320.182 537.893 326.579 535.582 331.998C533.98 335.754 530.903 338.268 527.916 340.894C528.552 335.412 528.117 330.653 528.148 325.22L528.153 324.763Z"/>
	<path fill="#FEFEFE" d="M603.637 240.322C605.452 242.488 607.476 244.739 607.204 247.784C607.094 249.016 606.73 250.26 606.421 251.454C605.634 251.834 604.823 252.235 603.984 252.488C602.131 253.045 599.946 252.708 598.343 251.634C596.841 250.627 595.834 249.05 595.627 247.243C595.442 245.625 595.993 243.942 597.072 242.725C598.833 240.74 601.138 240.497 603.637 240.322Z"/>
	<path fill="#FEFEFE" d="M568.461 251.384C570.382 259.302 572.465 265.015 577.843 271.265C574.31 271.759 570.801 272.122 567.245 272.388C563.639 271.569 560.075 270.657 556.508 269.683C560.056 263.096 563.722 257.221 568.461 251.384Z"/>
	<path fill="#3AB2DC" d="M603.637 240.322L603.209 237.164L603.569 237.376C603.717 237.366 603.864 237.345 604.012 237.347C608.216 237.395 618.262 240.763 622.882 241.933C619.587 254.77 615.216 267.112 603.191 274.154C595.915 278.416 587.245 280.011 579.018 277.823C575.195 276.807 570.362 274.796 567.245 272.388C570.801 272.122 574.31 271.759 577.843 271.265C580.786 272.528 583.543 273.476 586.802 273.517C592.031 273.583 597.005 271.438 600.639 267.688C604.843 263.35 606.539 257.383 606.421 251.454C606.73 250.26 607.094 249.016 607.204 247.784C607.476 244.739 605.452 242.488 603.637 240.322Z"/>
</svg>
