<?xml version="1.0" encoding="utf-8" ?>
<svg xmlns="http://www.w3.org/2000/svg" xmlns:xlink="http://www.w3.org/1999/xlink" width="1024" height="1024">
	<path fill="#519A98" d="M573.561 144.715C587.081 147.419 600.056 152.566 612.67 158.015C641.654 170.537 670.335 186.485 693.903 207.644L678.576 210.273C671.435 201.916 661.843 195.339 652.848 189.074C637.837 178.62 622.585 168.981 606.209 160.778L586.903 151.299C582.556 149.285 576.881 148.272 573.561 144.715Z"/>
	<path fill="#0A0903" d="M414.437 54.6079L471.505 126.45L440.964 133.726L423.11 82.4634C419.988 73.4361 415.672 64.0748 414.437 54.6079Z"/>
	<path fill="#3C78A5" d="M405.483 145.991C404.482 140.377 404.64 134.213 404.6 128.509C404.455 107.511 406.559 86.808 410.741 66.2387C411.525 62.385 412.002 57.7788 413.687 54.25L414.437 54.6079C415.672 64.0748 419.988 73.4361 423.11 82.4634L440.964 133.726L418.551 141.234C414.413 142.63 409.212 143.812 405.483 145.991Z"/>
	<path fill="#519A98" d="M637.432 224.213L643.124 225.299C669.055 229.816 691.944 241.312 713.396 256.304C735.649 271.856 755.599 290.9 771.208 313.164L787.342 337.591L769.057 333.497L762.985 325.978C738.018 296.798 706.01 273.471 671 257.88C660.584 253.242 649.979 249.057 638.834 246.479C631.217 244.717 623.404 243.981 615.628 243.366L614.75 243.492C613.703 242.62 612.902 241.585 612.049 240.533L610.861 238.666L637.432 224.213Z"/>
	<path fill="#269192" d="M637.432 224.213L643.124 225.299C639.696 231.291 618.9 236.463 612.049 240.533L610.861 238.666L637.432 224.213Z"/>
	<path fill="#112A28" d="M557.087 139.952L573.561 144.715C576.881 148.272 582.556 149.285 586.903 151.299L606.209 160.778C622.585 168.981 637.837 178.62 652.848 189.074C661.843 195.339 671.435 201.916 678.576 210.273C667.947 212.386 657.259 215.711 647.164 219.685C644.003 220.929 640.211 222.238 637.432 224.213L610.861 238.666C596.736 223.612 583.138 208.547 567.402 195.088C561.596 190.123 555.302 185.706 549.219 181.091L549.05 180.097C551.329 177.061 551.608 170.282 552.295 166.464L557.087 139.952Z"/>
	<path fill="#112A28" d="M615.628 243.366C623.404 243.981 631.217 244.717 638.834 246.479C649.979 249.057 660.584 253.242 671 257.88C706.01 273.471 738.018 296.798 762.985 325.978L769.057 333.497C748.578 330.85 729.124 329.606 708.684 333.491L680.264 342.543L679.204 340.419L666.984 317.5C658.176 302.275 648.304 287.711 638.219 273.312L623.935 254.057C621.249 250.633 617.622 247.208 615.628 243.366Z"/>
	<path fill="#112A28" d="M708.684 333.491C719.28 339.716 729.413 345.979 739.083 353.608C749.779 362.045 759.441 371.75 768.44 381.953C792.134 408.817 810.05 439.924 819.081 474.713L822.541 491.5L822.09 491.87L820.841 490.85C814.954 485.844 808.925 480.966 802.383 476.832C786.158 466.579 768.073 459.962 749.585 455.112C759.113 468.192 769.961 480.607 778.745 494.172C802.256 530.479 809.939 573.307 803.22 615.75L800.562 628.694C799.289 634.839 798.205 641.311 795.741 647.111C792.853 626.336 783.27 604.566 772.887 586.424L764.599 573.285C769.422 603.503 772.559 634.871 767.886 665.314C765.562 680.46 761.52 695.357 757.724 710.186L748.321 746.389C747.619 745.281 747.192 744.569 747.049 743.25C746.983 742.644 746.945 742.073 746.806 741.477C746.311 739.353 746.373 737.222 745.934 735.109C744.756 729.438 744.197 723.171 743.574 717.385C743.344 715.251 743.645 711.87 742.576 710.12C740.663 706.245 740.444 701.105 739.698 696.865L735.937 677.321L724.045 624.132C722.977 619.094 720.765 612.911 721.008 607.853L720.799 606.905L693.265 497.006L689.89 480.198L690.005 479.668L720.889 461.536L711.418 423.93C703.777 397.493 694.155 371.636 682.643 346.643C681.466 345.629 680.63 344.029 680.264 342.543L708.684 333.491Z"/>
	<path fill="#3C78A5" d="M740.516 595.708L742.576 710.12C740.663 706.245 740.444 701.105 739.698 696.865L735.937 677.321L724.045 624.132C722.977 619.094 720.765 612.911 721.008 607.853C724.382 606.142 727.537 604.257 730.6 602.033C733.957 599.596 736.292 596.679 740.516 595.708Z"/>
	<path fill="#519A98" d="M800.562 628.694C799.291 625.295 800.074 620.168 800.001 616.5C799.735 603.122 797.545 590.195 794.346 577.236C782.715 530.118 754.587 486.789 719.631 453.505C729.751 453.451 739.562 453.549 749.585 455.112C759.113 468.192 769.961 480.607 778.745 494.172C802.256 530.479 809.939 573.307 803.22 615.75L800.562 628.694Z"/>
	<path fill="#519A98" d="M708.684 333.491C719.28 339.716 729.413 345.979 739.083 353.608C749.779 362.045 759.441 371.75 768.44 381.953C792.134 408.817 810.05 439.924 819.081 474.713L822.541 491.5L822.09 491.87L820.841 490.85C820.398 488.327 819.864 486.126 818.754 483.797C815.417 476.794 811.337 470.039 807.427 463.341C784.479 424.026 752.576 389.085 714.634 363.842C704.92 357.379 693.681 350.514 682.643 346.643C681.466 345.629 680.63 344.029 680.264 342.543L708.684 333.491Z"/>
	<path fill="#269192" d="M720.889 461.536L740.516 595.708C736.292 596.679 733.957 599.596 730.6 602.033C727.537 604.257 724.382 606.142 721.008 607.853L720.799 606.905L693.265 497.006L689.89 480.198L690.005 479.668L720.889 461.536Z"/>
	<path fill="#0A0903" d="M792.516 891.44L822.33 891.301C827.805 891.293 833.589 890.917 839.012 891.502L839.096 973.449L512.488 973.193L512.427 891.637L792.516 891.44Z"/>
	<path fill="#3C78A5" d="M553.368 561.194L689.89 480.198L693.265 497.006L720.799 606.905L721.008 607.853C720.765 612.911 722.977 619.094 724.045 624.132L735.937 677.321L739.698 696.865C740.444 701.105 740.663 706.245 742.576 710.12C743.645 711.87 743.344 715.251 743.574 717.385C744.197 723.171 744.756 729.438 745.934 735.109C746.373 737.222 746.311 739.353 746.806 741.477C746.945 742.073 746.983 742.644 747.049 743.25C747.192 744.569 747.619 745.281 748.321 746.389C748.241 749.79 748.288 753.182 748.666 756.567C749.174 761.111 751.4 767.74 750.25 772.118L610.907 771.689L610.556 772.053L572.858 810.945L512.492 810.835L512.914 772.074C512.86 765.338 514.342 758.614 515.456 752L520.027 723.996L520.157 723.302C520.659 716.5 522.716 709.785 524.175 703.139L529.835 675.939L553.151 561.441L553.368 561.194Z"/>
	<path fill="#112A28" d="M512.914 772.074L610.556 772.053L572.858 810.945L512.492 810.835L512.914 772.074Z"/>
	<path fill="#183B49" d="M720.799 606.905L721.008 607.853C720.765 612.911 722.977 619.094 724.045 624.132L735.937 677.321L739.698 696.865C740.444 701.105 740.663 706.245 742.576 710.12C743.645 711.87 743.344 715.251 743.574 717.385C744.197 723.171 744.756 729.438 745.934 735.109C746.373 737.222 746.311 739.353 746.806 741.477C746.945 742.073 746.983 742.644 747.049 743.25C747.192 744.569 747.619 745.281 748.321 746.389C748.241 749.79 748.288 753.182 748.666 756.567C749.174 761.111 751.4 767.74 750.25 772.118L610.907 771.689L647.518 709.764C657.917 687.717 668.397 665.311 675.242 641.861C675.882 639.67 677.757 635.311 676.985 633.158L677.974 632.383C681.837 630.358 719.313 609.642 720.25 608.417C720.576 607.991 720.616 607.409 720.799 606.905Z"/>
	<path fill="#112A28" d="M553.368 561.194L689.89 480.198L693.265 497.006L720.799 606.905C720.616 607.409 720.576 607.991 720.25 608.417C719.313 609.642 681.837 630.358 677.974 632.383L676.985 633.158L561.027 700.098L531.866 716.942L523.453 721.784C522.42 722.369 521.351 723.203 520.157 723.302C520.659 716.5 522.716 709.785 524.175 703.139L529.835 675.939L553.151 561.441L553.368 561.194Z"/>
	<path fill="#0A0903" d="M677.974 632.383C678.408 624.383 681.369 615.855 682.834 607.927L689.733 563.738C691.849 549.043 692.988 533.445 692.959 518.579L692.457 500.275C692.485 498.84 692.454 498.184 693.265 497.006L720.799 606.905C720.616 607.409 720.576 607.991 720.25 608.417C719.313 609.642 681.837 630.358 677.974 632.383Z"/>
	<path fill="#519A98" d="M570.509 405.124C571.733 414.009 570.5 424.283 569.974 433.25L562.837 505L553.368 561.194L553.151 561.441L529.835 675.939L524.175 703.139C522.716 709.785 520.659 716.5 520.157 723.302L520.027 723.996L515.456 752C514.342 758.614 512.86 765.338 512.914 772.074L512.492 810.835L512.174 811.011L360.988 810.217L318.902 810.048C311.669 810.031 303.953 810.671 296.81 809.621L271.761 771.34C272.983 767.797 275.041 764.378 276.828 761.091L285.636 744.909L298.716 720.762C301.973 714.698 304.822 708.425 309.096 702.992C312.53 695.363 317.328 688.157 321.52 680.906L347.135 637.006L374.72 589.512C381.476 577.667 388.031 565.187 395.635 553.864L400.735 552.154C458.049 531.09 511.9 492.763 543.986 440.105C549.195 431.558 553.244 422.26 557.449 413.189L570.509 405.124Z"/>
	<path fill="#7F8E9C" d="M431.968 771.965L520.027 723.996L515.456 752C514.342 758.614 512.86 765.338 512.914 772.074L431.968 771.965Z"/>
	<path fill="#269192" d="M271.761 771.34L431.968 771.965L512.914 772.074L512.492 810.835L512.174 811.011L360.988 810.217L318.902 810.048C311.669 810.031 303.953 810.671 296.81 809.621L271.761 771.34Z"/>
	<path fill="#7F8E9C" d="M570.509 405.124C571.733 414.009 570.5 424.283 569.974 433.25L562.837 505L553.368 561.194L553.151 561.441C548.098 563.643 543.247 566.954 538.483 569.742L511.33 585.679L384.591 659.833L337.733 687.346L313.438 701.55C312.061 702.284 310.665 702.838 309.096 702.992C312.53 695.363 317.328 688.157 321.52 680.906L347.135 637.006L374.72 589.512C381.476 577.667 388.031 565.187 395.635 553.864L400.735 552.154C458.049 531.09 511.9 492.763 543.986 440.105C549.195 431.558 553.244 422.26 557.449 413.189L570.509 405.124Z"/>
	<path fill="#05488A" d="M610.907 771.689L750.25 772.118C746.561 777.434 743.451 783.301 740.122 788.862C736.016 795.72 731.455 802.677 728.144 809.937L727.508 811.311L775.688 811.451L786.545 811.448C788.361 811.447 790.795 811.15 792.494 811.736L792.516 891.44L512.427 891.637L512.488 973.193L184.805 973.28L184.802 892.346L230.419 892.424L230.232 809.552L296.81 809.621C303.953 810.671 311.669 810.031 318.902 810.048L360.988 810.217L512.174 811.011L512.492 810.835L572.858 810.945L610.556 772.053L610.907 771.689Z"/>
	<path fill="#0A0903" d="M610.907 771.689L750.25 772.118C746.561 777.434 743.451 783.301 740.122 788.862C736.016 795.72 731.455 802.677 728.144 809.937L727.508 811.311L572.858 810.945L610.556 772.053L610.907 771.689Z"/>
	<path fill="#3C78A5" d="M296.81 809.621C303.953 810.671 311.669 810.031 318.902 810.048L360.988 810.217L512.174 811.011L512.155 891.504L230.419 892.424L230.232 809.552L296.81 809.621Z"/>
	<path fill="#3C78A5" d="M522.032 53.6383L523.25 51.4384L523.965 51.75C526.3 60.3879 527.592 69.3345 529.233 78.126L536.474 116.155L539.082 129.843C539.48 131.853 539.699 134.302 540.58 136.139L557.087 139.952L552.295 166.464C551.608 170.282 551.329 177.061 549.05 180.097L549.219 181.091C555.302 185.706 561.596 190.123 567.402 195.088C583.138 208.547 596.736 223.612 610.861 238.666L612.049 240.533C612.902 241.585 613.703 242.62 614.75 243.492L615.628 243.366C617.622 247.208 621.249 250.633 623.935 254.057L638.219 273.312C648.304 287.711 658.176 302.275 666.984 317.5L679.204 340.419L680.264 342.543C680.63 344.029 681.466 345.629 682.643 346.643C694.155 371.636 703.777 397.493 711.418 423.93L720.889 461.536L690.005 479.668L689.89 480.198L553.368 561.194L562.837 505L569.974 433.25C570.5 424.283 571.733 414.009 570.509 405.124L557.449 413.189C553.244 422.26 549.195 431.558 543.986 440.105C511.9 492.763 458.049 531.09 400.735 552.154L395.635 553.864C400.117 544.457 405.688 535.665 410.75 526.572C420.353 509.322 428.855 490.997 432.37 471.436C434.423 460.012 434.638 448.15 433.965 436.594C415.858 438.836 397.266 441.474 379.035 438.916L275.821 506.745L253.6 479.705L191.042 403.532L213.04 382.304L246.092 350.76L288.61 310.146L305.245 294.205C306.543 292.854 307.574 291.747 308.281 289.989C309.891 285.982 310.902 281.598 312.095 277.447L317.505 258.827L332.855 204.853C335.029 197.27 336.666 188.972 339.648 181.701L381.173 157.113C389.088 152.938 397.247 149.473 405.483 145.991C409.212 143.812 414.413 142.63 418.551 141.234L440.964 133.726L471.505 126.45C476.219 126.994 482.772 124.66 487.394 123.631L522.032 53.6383Z"/>
	<path fill="#269192" d="M258.673 384.279L258.923 384.266L259.383 384.75C257.884 385.901 255.918 386.619 254.25 387.527C249.362 390.189 244.063 393.81 241.75 399.09C239.44 404.363 241.267 408.69 243.172 413.69C241.456 413.123 239.779 411.649 238.3 410.614C234.79 407.591 231.871 403.55 231.189 398.873C230.827 396.388 231.901 393.426 233.459 391.5C235.344 389.17 238.635 388.156 241.391 387.334C247.164 385.614 252.706 384.87 258.673 384.279Z"/>
	<path fill="#269192" d="M368.292 288.152C372.527 291.062 375.682 292.684 380.837 293.503C387.119 294.5 393.155 293.261 398.25 289.311C403.612 285.153 405.838 280.767 406.624 274.099L406.796 274.652C407.153 275.57 406.978 275.174 407.648 275.842C409.254 277.442 409.486 279.584 409.461 281.763C409.399 287.085 406.616 292.453 402.787 296.018C398.427 300.076 392.113 302.131 386.179 301.933C380.663 301.75 375.661 299.653 371.894 295.557C369.714 293.187 368.909 291.268 368.292 288.152Z"/>
	<path fill="#0A0903" d="M368.292 288.152C365.21 286.481 361.668 286.806 358.25 286.506L349.416 285.303L380.665 252.449L435.399 269.757C433.347 270.185 430.934 269.964 428.837 269.981L414.954 269.906C413.073 269.855 409.143 269.367 407.53 270.277C406.794 270.692 406.751 273.224 406.624 274.099C405.838 280.767 403.612 285.153 398.25 289.311C393.155 293.261 387.119 294.5 380.837 293.503C375.682 292.684 372.527 291.062 368.292 288.152Z"/>
	<path fill="#F0F4F9" d="M390.768 263.936C393.054 264.328 395.51 264.657 396.886 266.781C397.835 268.248 397.666 270.594 397.11 272.173C396.371 274.273 394.78 275.046 392.899 276.006L391.559 275.817C389.587 275.495 388.276 274.952 387.123 273.232C386.146 271.775 386.096 270.331 386.445 268.661C386.965 266.179 388.784 265.234 390.768 263.936Z"/>
	<path fill="#269192" d="M522.032 53.6383L523.25 51.4384L523.965 51.75C526.3 60.3879 527.592 69.3345 529.233 78.126L536.474 116.155L539.082 129.843C539.48 131.853 539.699 134.302 540.58 136.139L557.087 139.952L552.295 166.464C551.608 170.282 551.329 177.061 549.05 180.097L549.219 181.091L486.892 204.202L504.575 162.914C506.879 157.488 509.782 152.167 511.583 146.55C513.053 141.966 513.263 136.703 513.826 131.93L516.857 106.714L520.693 75.7093C521.441 69.8613 522.691 63.553 522.821 57.6815C522.853 56.2408 522.519 54.9795 522.032 53.6383Z"/>
	<path fill="#0A0903" d="M540.58 136.139L557.087 139.952L552.295 166.464C551.608 170.282 551.329 177.061 549.05 180.097C546.326 172.917 545.143 164.546 543.857 157C542.675 150.062 541.27 143.146 540.58 136.139Z"/>
	<path fill="#7F8E9C" d="M690.005 479.668C683.673 452.825 675.891 426.105 665.806 400.425L648.02 359.243L678.576 340.851L679.204 340.419L680.264 342.543C680.63 344.029 681.466 345.629 682.643 346.643C694.155 371.636 703.777 397.493 711.418 423.93L720.889 461.536L690.005 479.668Z"/>
	<path fill="#519A98" d="M471.505 126.45C476.219 126.994 482.772 124.66 487.394 123.631L470.651 161.096L467.337 168.395C467.145 168.804 466.522 170.537 466.212 170.789C465.189 171.62 462.451 172.361 461.187 172.822C437.84 181.331 415.298 191.543 393.576 203.644L362.858 222.542L349.273 197.772C346.33 192.386 343.596 186.415 339.648 181.701L381.173 157.113C389.088 152.938 397.247 149.473 405.483 145.991C409.212 143.812 414.413 142.63 418.551 141.234L440.964 133.726L471.505 126.45Z"/>
	<path fill="#269192" d="M253.6 479.705L393.632 337.15C401.146 336.448 409.592 337.601 417.188 337.88L470.862 339.995C472.87 337.868 474.325 333.625 475.656 330.935L487.143 307.649L533.585 213.476C546.358 224.232 558.149 235.969 569.613 248.098C588.445 268.024 605.977 289.357 620.915 312.374C630.722 327.484 639.155 343.301 647.883 359.033C645.093 362.016 639.089 364.447 635.494 366.634L570.509 405.124L557.449 413.189C553.244 422.26 549.195 431.558 543.986 440.105C511.9 492.763 458.049 531.09 400.735 552.154L395.635 553.864C400.117 544.457 405.688 535.665 410.75 526.572C420.353 509.322 428.855 490.997 432.37 471.436C434.423 460.012 434.638 448.15 433.965 436.594C415.858 438.836 397.266 441.474 379.035 438.916L275.821 506.745L253.6 479.705Z"/>
	<path fill="#112A28" d="M379.035 438.916C375.025 433.136 372.085 426.279 368.457 420.202L354.416 397.095C352.405 393.794 349.585 390.108 348.136 386.572L359.186 391.44C389.075 404.995 421.879 412.076 454.725 411.105C464.519 410.815 474.124 410.135 483.684 407.834C496.385 404.776 507.59 399.285 519.678 394.749C517.604 398.699 512.665 402.071 509.064 404.714C493.465 416.163 476.53 425.1 458.016 430.833L433.965 436.594C415.858 438.836 397.266 441.474 379.035 438.916Z"/>
	<path fill="#0A0903" d="M519.678 394.749C524.35 391.186 528.929 387.518 532.941 383.2C548.585 366.362 558.76 342.373 561.827 319.672C564.253 301.721 562.5 285.228 559.018 267.577C562.42 273.888 563.822 281.572 565.532 288.5C574.098 323.205 574.065 359.599 563.79 393.964L557.449 413.189C553.244 422.26 549.195 431.558 543.986 440.105C511.9 492.763 458.049 531.09 400.735 552.154L395.635 553.864C400.117 544.457 405.688 535.665 410.75 526.572C420.353 509.322 428.855 490.997 432.37 471.436C434.423 460.012 434.638 448.15 433.965 436.594L458.016 430.833C476.53 425.1 493.465 416.163 509.064 404.714C512.665 402.071 517.604 398.699 519.678 394.749Z"/>
</svg>
