<?xml version="1.0" encoding="utf-8" ?>
<svg xmlns="http://www.w3.org/2000/svg" xmlns:xlink="http://www.w3.org/1999/xlink" width="1024" height="1024">
	<path fill="#2C628D" d="M436.74 144.546C431.435 133.986 427.194 122.65 424.268 111.209C422.61 104.727 421.09 97.6836 422.338 90.9961C422.6 89.5921 422.708 88.74 423.91 87.9167C424.074 88.6489 424.177 89.2621 424.617 89.8921C426.739 92.9273 429.892 95.3941 432.173 98.3671L456.775 131.271C454.326 132.513 451.83 133.608 449.502 135.064C445.003 137.88 440.226 140.419 436.74 144.546Z"/>
	<path fill="#122C58" d="M423.91 87.9167C432.371 89.4552 439.101 92.3533 446.821 96.0057C457.657 101.132 467.984 107.237 477.812 114.098C481.297 116.53 485.115 118.861 488.249 121.728L456.775 131.271L432.173 98.3671C429.892 95.3941 426.739 92.9273 424.617 89.8921C424.177 89.2621 424.074 88.6489 423.91 87.9167Z"/>
	<path fill="#1A518C" d="M423.769 475.518L456.97 475.495C455.021 486.075 451.784 495.936 448.957 506.287L413.781 614.266L402.381 648.177C400.798 653.059 398.454 658.488 397.707 663.57L396.898 664.573C391.043 667.405 386.085 671.85 380.803 675.583L363.75 687.014C357.127 691.439 350.291 696.41 343.116 699.905C341.049 700.911 338.463 702.252 336.156 702.467L360.15 649.328L377.187 609.241L397.52 559.68L413.631 511.605C417.251 499.724 421.053 487.637 423.769 475.518Z"/>
	<path fill="#EBF2FA" d="M336.156 702.467C338.463 702.252 341.049 700.911 343.116 699.905C350.291 696.41 357.127 691.439 363.75 687.014L380.803 675.583C386.085 671.85 391.043 667.405 396.898 664.573L359.996 773.75L344.731 820.105C342.265 828.001 338.668 836.405 338.389 844.753L322.95 847.192C319.495 847.647 315.17 847.914 312.028 849.44C307.812 841.134 304.611 832.982 302.018 824.034C299.162 814.181 296.423 802.872 297.684 792.562C298.128 788.933 299.113 785.069 300.367 781.637C303.932 771.886 308.93 762.345 313.098 752.806C320.414 736.059 327.331 718.447 336.156 702.467Z"/>
	<path fill="#2E456D" d="M573.276 125.85C606.354 142.88 632.964 174.679 644.305 210.013C655.675 245.436 651.119 284.816 634.08 317.703C624.56 336.077 610.377 353.005 593.817 365.458C590.04 368.297 586.081 371.429 581.925 373.677L572.426 374.046L524.596 373.854C526.625 372.108 529.243 371.192 531.645 370.052L541.188 365.037C559.667 354.295 575.595 340.714 588.157 323.339C603.474 302.156 611.209 277.338 613.167 251.5C613.532 246.687 614.665 241.57 613.829 236.749C612.74 230.478 612.876 223.751 612.119 217.379C610.484 203.634 606.368 189.444 601.385 176.57C596.561 164.107 589.992 152.443 582.901 141.152L576.053 131.156C575.074 129.781 573.551 128.079 573.291 126.4L573.276 125.85Z"/>
	<path fill="#004283" d="M427.022 462.909L459.811 463.001L457.193 475.4C468.228 476.775 479.942 476.03 491.063 476.025L549.286 475.984C541.382 491.61 532.947 507.575 523.704 522.438C497.944 563.861 466.636 601.502 431.054 634.822C420.61 644.602 409.436 655.372 397.707 663.57C398.454 658.488 400.798 653.059 402.381 648.177L413.781 614.266L448.957 506.287C451.784 495.936 455.021 486.075 456.97 475.495L423.769 475.518L427.022 462.909Z"/>
	<path fill="#122C58" d="M639.901 595.606L695.231 719.087L711.749 756.157C716.474 766.76 722.218 777.886 724.804 789.218C727.755 802.148 727.113 814.882 722.287 827.281C717.65 839.194 709.805 848.551 700.323 856.939C694.814 857.705 689.061 857.18 683.501 857.179L651.975 857.215C650.857 857.049 649.316 857.165 648.634 856.25C651.46 852.512 655.307 849.579 658.402 846.035C667.878 835.185 674.337 821.378 676.402 807.131C677.813 797.397 677.12 787.399 674.602 777.911C670.201 761.331 662.614 745.193 655.716 729.519L635.299 682.498L624.02 656.637C621.548 650.952 619.384 644.327 615.694 639.342L616.584 637.649C622.411 629.065 627.633 619.826 632.016 610.424C633.878 606.427 635.286 602.134 637.368 598.251C638.045 596.988 638.736 596.409 639.901 595.606Z"/>
	<path fill="#2C628D" d="M572.98 125.635L573.276 125.85L573.291 126.4C573.551 128.079 575.074 129.781 576.053 131.156L582.901 141.152C589.992 152.443 596.561 164.107 601.385 176.57C606.368 189.444 610.484 203.634 612.119 217.379C612.876 223.751 612.74 230.478 613.829 236.749C614.665 241.57 613.532 246.687 613.167 251.5C611.209 277.338 603.474 302.156 588.157 323.339C575.595 340.714 559.667 354.295 541.188 365.037L531.645 370.052C529.243 371.192 526.625 372.108 524.596 373.854L513.056 373.593C513.072 366.826 513.318 360.602 511.574 354C508.283 341.54 500.439 332.874 491.211 324.347C496.063 321.217 499.803 317.41 503.998 313.498L518.136 300.528L529.245 289.25C532.011 286.914 533.983 284.216 536.397 281.552C545.856 271.111 553.517 260.248 561.217 248.519C566.384 240.647 569.788 232.39 573.21 223.696L576.925 212.498C577.276 210.968 577.804 209.493 578.108 207.961L579.676 200.156C581.546 192.26 581.011 184.101 581.077 176.052C581.1 173.296 581.575 169.66 580.944 167.002C580.445 164.902 580.538 162.634 580.245 160.485C579.488 154.932 578.595 148.589 576.881 143.266L573.387 132.991C572.441 130.227 571.6 128.44 572.98 125.635Z"/>
	<path fill="#004283" d="M513.056 373.593L524.596 373.854L572.426 374.046L581.925 373.677L582.603 373.756C592.741 374.872 604.32 372.399 614.025 375.853L614.956 376.175C625.157 379.815 634.118 388.287 638.606 398.109C643.413 408.631 643.591 420.319 639.445 431.075C635.445 441.453 627.513 450.31 617.201 454.705C614.12 456.018 610.824 456.615 607.544 457.208C603.86 457.874 599.287 457.66 595.541 457.37L598.735 474.392L593.924 475.088C588.978 475.926 584.123 476.241 579.104 475.838C576.001 475.588 572.546 474.762 569.453 475.1C567.48 476.394 565.423 475.324 563.567 476.43L563.25 475.537L549.694 475.76L549.286 475.984L491.063 476.025C479.942 476.03 468.228 476.775 457.193 475.4L459.811 463.001L427.022 462.909L428.439 457.498C424.113 457.66 419.676 457.599 415.391 456.932C404.68 455.265 395.549 449.036 389.279 440.281C384.361 433.48 381.576 425.427 381.476 417.026C381.338 405.511 385.4 395.378 393.535 387.204C399.243 381.468 406.766 377.045 414.671 375.203C420.043 373.952 425.422 374.043 430.901 374.025L450.166 373.993L513.056 373.593Z"/>
	<path fill="#00204F" d="M572.426 374.046L581.925 373.677L582.603 373.756C592.741 374.872 604.32 372.399 614.025 375.853L614.956 376.175C625.157 379.815 634.118 388.287 638.606 398.109C643.413 408.631 643.591 420.319 639.445 431.075C635.445 441.453 627.513 450.31 617.201 454.705C614.12 456.018 610.824 456.615 607.544 457.208C603.86 457.874 599.287 457.66 595.541 457.37L598.735 474.392L593.924 475.088C588.978 475.926 584.123 476.241 579.104 475.838C576.001 475.588 572.546 474.762 569.453 475.1C567.48 476.394 565.423 475.324 563.567 476.43L563.25 475.537L549.694 475.76L549.286 475.984L491.063 476.025C479.942 476.03 468.228 476.775 457.193 475.4L459.811 463.001L427.022 462.909L428.439 457.498C424.113 457.66 419.676 457.599 415.391 456.932C404.68 455.265 395.549 449.036 389.279 440.281C394.981 439.791 401.073 440.242 406.81 440.295L438.363 440.478L536.136 440.03L562.992 440.025C567.87 440.026 572.961 440.337 577.811 439.852C580.661 439.568 583.238 438.71 585.746 437.344L586.5 436.924L588.874 435.523C595.076 431.391 600.235 422.711 601.592 415.437C604.37 400.535 595.949 387.999 583.986 379.939C581.496 378.261 577.473 376.963 575.894 374.625L572.426 374.046Z"/>
	<path fill="#122C58" d="M428.439 457.498C433.117 456.153 439.817 457.085 444.75 457.006L495.618 456.903L566.54 456.964L585.508 457.011C588.775 457.02 592.359 456.69 595.541 457.37L598.735 474.392L593.924 475.088C588.978 475.926 584.123 476.241 579.104 475.838C576.001 475.588 572.546 474.762 569.453 475.1C567.48 476.394 565.423 475.324 563.567 476.43L563.25 475.537L549.694 475.76L549.286 475.984L491.063 476.025C479.942 476.03 468.228 476.775 457.193 475.4L459.811 463.001L427.022 462.909L428.439 457.498Z"/>
	<path fill="#2C628D" d="M555.346 463.013C557.074 462.937 558.608 462.862 560.301 463.25C562.008 466.92 561.757 471.335 563.481 475.035L569.453 475.1C567.48 476.394 565.423 475.324 563.567 476.43L563.25 475.537L549.694 475.76C551.669 471.566 553.985 467.459 555.346 463.013Z"/>
	<path fill="#2E456D" d="M428.439 457.498C433.117 456.153 439.817 457.085 444.75 457.006L495.618 456.903L494.97 456.951C486.758 457.5 478.337 457.077 470.092 457.042C467.56 457.031 463.393 456.43 461.067 457.303L460.462 462.566L527.742 462.522L545.827 462.533C548.5 462.539 551.666 462.242 554.264 462.852L459.811 463.001L427.022 462.909L428.439 457.498Z"/>
	<path fill="#00204F" d="M554.264 462.852L555.346 463.013C553.985 467.459 551.669 471.566 549.694 475.76L549.286 475.984L491.063 476.025C479.942 476.03 468.228 476.775 457.193 475.4L459.811 463.001L554.264 462.852Z"/>
	<path fill="#2E456D" d="M790.582 928.962L819.592 928.594C825.017 928.571 830.746 928.18 836.137 928.802C845.257 929.854 855.102 933.814 862.005 939.93C873.61 950.213 878.34 960.798 879.404 976.121L144.703 975.79C146.105 962.095 151.419 951.039 161.552 941.687C168.945 934.865 179.754 930.182 189.664 928.928C196.149 928.107 202.995 928.501 209.544 928.494L231.796 928.656L790.582 928.962Z"/>
	<path fill="#00204F" d="M651.975 857.215L683.501 857.179C689.061 857.18 694.814 857.705 700.323 856.939L745.792 857.087C759.358 857.402 771.991 857.241 782.06 867.744C785.795 871.64 788.355 876.798 789.576 882.047C791.08 888.51 790.565 895.547 790.567 902.164L790.582 928.962L231.796 928.656C231.275 924.188 231.673 919.196 231.657 914.685C231.627 906.674 231.328 898.562 231.793 890.564C232.61 881.534 234.675 873.291 241.344 866.807C245.025 863.229 249.413 860.626 254.372 859.242C264.497 856.417 275.399 857.034 285.814 857.05L316.546 857.247L345.409 856.96L651.975 857.215Z"/>
	<path fill="#004283" d="M651.975 857.215L683.501 857.179C689.061 857.18 694.814 857.705 700.323 856.939L745.792 857.087L747.018 857.75C747.191 859.72 749.335 861.422 750.448 863.11C752.298 865.916 753.98 868.74 755.376 871.802C758.587 878.844 759.936 886.797 760.15 894.493L232.25 894.237L231.793 890.564C232.61 881.534 234.675 873.291 241.344 866.807C245.025 863.229 249.413 860.626 254.372 859.242C264.497 856.417 275.399 857.034 285.814 857.05L316.546 857.247L345.409 856.96L651.975 857.215Z"/>
	<path fill="#427AA1" d="M528.061 39.7735L529.448 38.25C530.692 38.25 530.241 38.0198 531.089 38.9062C533.111 41.0191 534.474 44.3003 535.757 46.9107L543.111 62.1689C551.005 78.2166 559.815 94.2789 566.679 110.77C567.812 113.493 569.524 117.643 569.441 120.567L569.225 122.422L569.182 122.7C570.384 124.129 571.311 124.812 572.98 125.635C571.6 128.44 572.441 130.227 573.387 132.991L576.881 143.266C578.595 148.589 579.488 154.932 580.245 160.485C580.538 162.634 580.445 164.902 580.944 167.002C581.575 169.66 581.1 173.296 581.077 176.052C581.011 184.101 581.546 192.26 579.676 200.156L578.108 207.961C577.804 209.493 577.276 210.968 576.925 212.498L573.21 223.696C569.788 232.39 566.384 240.647 561.217 248.519C553.517 260.248 545.856 271.111 536.397 281.552C533.983 284.216 532.011 286.914 529.245 289.25L518.136 300.528L503.998 313.498C499.803 317.41 496.063 321.217 491.211 324.347C500.439 332.874 508.283 341.54 511.574 354C513.318 360.602 513.072 366.826 513.056 373.593L450.166 373.993L429.905 360.586C415.868 349.64 405.395 334.64 398.901 318.109C396.875 312.952 395.615 307.587 393.553 302.429C389.854 298.919 385.862 295.902 382.39 292.101C371.108 279.75 366.635 263.766 361.412 248.326C359.731 245.199 358.018 241.964 356.937 238.571C356.281 236.513 355.578 234.022 356.572 232C358.239 230.619 359.541 230.352 361.659 230.067L377.101 214.169C382.072 209.419 387.843 205.488 392.255 200.186C398.122 193.137 402.456 184.852 407.767 177.375C416.351 165.291 426.218 154.91 436.74 144.546C440.226 140.419 445.003 137.88 449.502 135.064C451.83 133.608 454.326 132.513 456.775 131.271L488.249 121.728L489.806 122.299C493.317 118.001 495.235 110.103 497.217 104.862L505.135 85.3386C511.9 69.7577 519.389 54.3849 528.061 39.7735Z"/>
	<path fill="#122C58" d="M361.659 230.067C364.694 230.463 366.835 230.368 369.067 232.75C369.822 235.628 367.55 239.658 366.136 242.097C364.813 244.378 363.23 246.419 361.412 248.326C359.731 245.199 358.018 241.964 356.937 238.571C356.281 236.513 355.578 234.022 356.572 232C358.239 230.619 359.541 230.352 361.659 230.067Z"/>
	<path fill="#2E456D" d="M418.387 281.729C429.737 281.739 442.68 282.553 453.596 285.729L457.036 286.719L417.123 286.409C407.629 286.705 398.014 289.104 388.5 288.453C384.916 288.208 381.226 287.27 377.714 286.508L377.643 286.284C381.086 284.918 384.783 284.737 388.419 284.226C398.519 282.807 408.189 282.059 418.387 281.729Z"/>
	<path fill="#2E456D" d="M528.061 39.7735L529.448 38.25C530.692 38.25 530.241 38.0198 531.089 38.9062C533.111 41.0191 534.474 44.3003 535.757 46.9107L543.111 62.1689C551.005 78.2166 559.815 94.2789 566.679 110.77C567.812 113.493 569.524 117.643 569.441 120.567L569.225 122.422L569.182 122.7C567.76 123.67 567.168 126.371 566.459 128C562.301 137.555 553.886 143.266 544.48 147.036C544.096 143.257 544.472 139.389 544.471 135.591C544.47 131.501 544.054 127.364 543.712 123.289C542.053 103.506 538.132 84.2745 534.041 64.8906C532.26 56.4513 530.987 47.915 528.061 39.7735Z"/>
	<path fill="#122C58" d="M466.655 175.187L467.533 175.075C479.31 173.74 490.967 178.199 499.939 185.561C498.74 189.364 497.486 193.057 495.419 196.5C488.563 207.917 477.961 213.595 465.378 216.687L463.206 217.189C454.571 218.774 441.252 215.629 434.208 210.345C433.257 209.632 431.737 208.24 431.588 207.025C430.948 201.823 436.537 193.839 439.717 189.809C444.055 184.313 450.828 178.71 457.647 176.697C460.516 175.851 463.692 175.577 466.655 175.187Z"/>
	<path fill="#064789" d="M457.104 184.3C458.854 184.775 461.218 185.305 462.451 186.75C463.268 187.708 463.592 189.006 463.452 190.25C463.213 192.381 461.813 193.44 460.237 194.695C458.576 194.348 456.366 194.064 455.042 192.899C453.706 191.721 453.292 190.522 453.487 188.75C453.669 187.087 455.926 185.404 457.104 184.3Z"/>
	<path fill="#1A518C" d="M469.075 181.476C478.764 181.323 486.798 183.66 494.992 188.715C492.552 194.628 489.44 198.444 484.926 202.924C480.017 206.432 474.92 208.566 469.306 210.648C473.458 199.986 473.354 192.125 469.075 181.476Z"/>
	<path fill="#1A518C" d="M393.553 302.429L394.137 302.528C402.66 303.871 411.626 303.384 420.25 304.125C439.622 305.788 460.056 309.343 477.931 317.25C482.1 319.094 486.425 320.959 489.987 323.859L491.211 324.347C500.439 332.874 508.283 341.54 511.574 354C513.318 360.602 513.072 366.826 513.056 373.593L450.166 373.993L429.905 360.586C415.868 349.64 405.395 334.64 398.901 318.109C396.875 312.952 395.615 307.587 393.553 302.429Z"/>
	<path fill="#EBF2FA" d="M489.987 323.859L491.211 324.347C500.439 332.874 508.283 341.54 511.574 354C513.318 360.602 513.072 366.826 513.056 373.593L450.166 373.993L429.905 360.586C434.394 356.892 441.026 354.323 446.209 351.529C456.888 345.773 466.949 339.939 477.045 333.181C481.424 330.251 486.079 327.407 489.987 323.859Z"/>
	<path fill="#427AA1" d="M569.453 475.1C572.546 474.762 576.001 475.588 579.104 475.838C584.123 476.241 588.978 475.926 593.924 475.088L598.735 474.392C608.043 516.001 623.132 556.453 639.901 595.606C638.736 596.409 638.045 596.988 637.368 598.251C635.286 602.134 633.878 606.427 632.016 610.424C627.633 619.826 622.411 629.065 616.584 637.649L615.694 639.342C619.384 644.327 621.548 650.952 624.02 656.637L635.299 682.498L655.716 729.519C662.614 745.193 670.201 761.331 674.602 777.911C677.12 787.399 677.813 797.397 676.402 807.131C674.337 821.378 667.878 835.185 658.402 846.035C655.307 849.579 651.46 852.512 648.634 856.25C649.316 857.165 650.857 857.049 651.975 857.215L345.409 856.96L316.546 857.247L312.028 849.44C315.17 847.914 319.495 847.647 322.95 847.192L338.389 844.753C338.668 836.405 342.265 828.001 344.731 820.105L359.996 773.75L396.898 664.573L397.707 663.57C409.436 655.372 420.61 644.602 431.054 634.822C466.636 601.502 497.944 563.861 523.704 522.438C532.947 507.575 541.382 491.61 549.286 475.984L549.694 475.76L563.25 475.537L563.567 476.43C565.423 475.324 567.48 476.394 569.453 475.1Z"/>
	<path fill="#2E456D" d="M569.453 475.1C572.546 474.762 576.001 475.588 579.104 475.838C584.123 476.241 588.978 475.926 593.924 475.088L598.735 474.392C608.043 516.001 623.132 556.453 639.901 595.606C638.736 596.409 638.045 596.988 637.368 598.251C635.286 602.134 633.878 606.427 632.016 610.424C627.633 619.826 622.411 629.065 616.584 637.649L563.567 476.43C565.423 475.324 567.48 476.394 569.453 475.1Z"/>
	<path fill="#2E456D" d="M615.694 639.342C619.384 644.327 621.548 650.952 624.02 656.637L635.299 682.498L655.716 729.519C662.614 745.193 670.201 761.331 674.602 777.911C677.12 787.399 677.813 797.397 676.402 807.131C674.337 821.378 667.878 835.185 658.402 846.035C655.307 849.579 651.46 852.512 648.634 856.25C649.316 857.165 650.857 857.049 651.975 857.215L345.409 856.96C343.661 852.847 340.689 849.009 338.789 844.808L344.998 843.552C374.155 836.534 402.147 825.816 429.015 812.562C467.412 793.621 502.286 770.111 533.617 740.838C565.322 711.215 593.004 676.285 615.694 639.342Z"/>
</svg>
