<?xml version="1.0" encoding="utf-8" ?>
<svg xmlns="http://www.w3.org/2000/svg" xmlns:xlink="http://www.w3.org/1999/xlink" width="1024" height="1024">
	<path fill="#000001" fill-opacity="0.98431373" d="M317.388 386.872C317.626 388.552 317.735 388.914 317.061 390.538C313.11 394.862 309.165 399.201 304.415 402.674C303.579 401.912 303.158 401.763 302.041 401.611C307.292 396.865 312.259 391.756 317.388 386.872Z"/>
	<path fill="#000001" fill-opacity="0.98823529" d="M714.386 270.342C720.27 281.688 724.596 293.302 728.752 305.37C727.605 305.081 726.342 305.002 725.166 304.841C721.851 293.74 717.531 283.289 712.675 272.787C713.751 271.987 713.828 271.536 714.386 270.342Z"/>
	<defs>
		<linearGradient id="gradient_0" gradientUnits="userSpaceOnUse" x1="108.66216" y1="390.41794" x2="100.996" y2="388.49451">
			<stop offset="0" stop-color="black"/>
			<stop offset="1" stop-color="#02011F"/>
		</linearGradient>
	</defs>
	<path fill="url(#gradient_0)" d="M103.286 409.109C100.904 404.005 100.228 398.484 100.427 392.893C100.822 381.772 105.768 368.997 114.043 361.357C113.936 364.007 112.057 366.565 110.797 368.861C104.015 381.214 100.609 392.301 104.529 406.337L104.349 408.948L103.286 409.109Z"/>
	<path fill="#000001" fill-opacity="0.97647059" d="M367.689 301.994L370.266 302.628L369.67 304.902C365.661 311.118 363.126 318.964 360.249 325.76C354.543 339.241 347.708 353.13 338.802 364.79C337.014 366.944 333.779 371.781 330.931 372.436C330.748 372.478 329.786 372.505 329.639 372.511C346.593 350.816 358.047 327.684 367.689 301.994Z"/>
	<path fill="#000001" fill-opacity="0.98039216" d="M252.858 475.691C253.771 474.927 254.224 473.998 254.785 472.974L255.763 473.343C232.318 537.193 185.003 565.764 186.966 641.916L185.717 641.076C183.548 637.127 185.622 625.637 184.961 620.419C184.904 617.039 185.536 613.574 186.055 610.245C191.733 581.366 205.797 556.238 221.584 531.728C223.978 528.818 226.079 525.359 228.199 522.232C238.255 507.4 245.851 492.153 252.858 475.691Z"/>
	<path fill="#000001" d="M152.239 340.642C170.914 335.702 194.595 342.372 210.87 351.786C234.535 365.473 251.967 389.23 258.887 415.566C263.808 434.293 263.502 455.322 255.763 473.343L254.785 472.974C254.224 473.998 253.771 474.927 252.858 475.691C257.365 463.08 259.885 449.46 259.209 436.047C257.845 408.998 245.321 382.954 225.131 364.91C206.645 348.39 183.824 340.748 159.194 342.141C147.819 343.449 135.758 346.752 126.003 352.975C123.759 354.407 116.141 362.289 114.308 361.226C115.1 359.318 116.244 357.94 117.716 356.506C124.998 349.414 141.951 340.461 152.239 340.642Z"/>
	<path fill="#0E0D18" d="M152.239 340.642C152.487 340.68 152.733 340.723 152.981 340.756C155.924 341.14 159.639 340.305 162.686 340.211C172.903 339.896 181.668 341.083 191.367 344.297C188.275 345.016 183.796 342.539 180.54 342.307C177.373 342.083 174.213 341.018 171.013 341.356C170.226 341.439 169.735 341.358 168.958 341.26C165.021 340.762 160.891 341.137 156.972 341.664L156.81 341.874L159.194 342.141C147.819 343.449 135.758 346.752 126.003 352.975C123.759 354.407 116.141 362.289 114.308 361.226C115.1 359.318 116.244 357.94 117.716 356.506C124.998 349.414 141.951 340.461 152.239 340.642Z"/>
	<path fill="#000001" fill-opacity="0.98823529" d="M548.733 102.088L549.955 98.7549C559.003 115.898 567.346 133.239 575.58 150.782C583.549 141.383 592.387 131.033 602.473 123.878C599.861 119.946 598.127 116.045 598.978 111.181C599.655 107.313 602.031 104.02 605.322 101.928C608.694 99.784 612.844 99.0861 616.733 100C620.134 100.799 622.994 102.783 624.789 105.798C626.824 109.216 627.574 114.129 626.442 117.962C625.449 121.322 622.998 124.464 619.864 126.069C617.244 127.411 614.263 127.839 611.366 128.08C608.96 132.303 607.689 136.887 605.716 141.297C605.302 139.459 605.161 137.652 604.641 135.812C606.017 132.392 607.093 129.014 608.038 125.451C601.262 128.252 597.309 132.2 592.38 137.473C585.781 143.851 579.218 150.208 574.254 157.992C568.811 138.518 558.244 119.85 548.733 102.088Z"/>
	<path fill="#CAB480" d="M602.538 110.219C606.887 114.062 611.055 116.083 616.951 115.786C619.262 114.124 621.3 112.488 623.29 110.446C623.436 111.707 623.582 112.97 623.661 114.237C623.821 116.842 622.792 119.394 621.023 121.3C618.976 123.506 615.971 124.523 613.002 124.448C609.953 124.371 606.931 123.124 604.895 120.822C602.012 117.559 602.189 114.252 602.538 110.219Z"/>
	<path fill="#F4E6BD" d="M602.538 110.219C604.169 106.952 605.849 104.256 609.441 102.937C611.983 102.003 614.701 102.287 617.115 103.435C620.339 104.968 621.817 107.332 623.29 110.446C621.3 112.488 619.262 114.124 616.951 115.786C611.055 116.083 606.887 114.062 602.538 110.219Z"/>
	<path fill="#000001" d="M701.882 166.216C711.079 160.851 730.891 154.023 741.349 152.269C738.019 161.572 738.076 172.483 736.329 182.204C732.219 205.069 725.443 227.337 717.123 248.997C715.456 253.336 713.875 258.803 711.104 262.545L711.625 261.308L711.95 261.359L711.122 262.316L710.308 261.575C710.083 263.291 713.455 268.532 714.386 270.342C713.828 271.536 713.751 271.987 712.675 272.787C707.315 261.707 697.323 242.014 690.169 232.632C687.423 226.147 682.265 220.076 678.017 214.497C694.432 191.613 716.572 169.516 739.547 153.335C732.117 155.385 724.832 157.778 717.606 160.47C712.424 162.402 707.23 164.809 701.882 166.216Z"/>
	<path fill="#C6CECD" d="M731.336 162.512C733.537 160.376 735.691 158.144 738.064 156.197C732.445 191.368 725.817 228.326 709.611 260.425C706.641 255.703 704.099 250.799 701.533 245.851C705.465 226.983 712.356 207.738 719.775 190.001C723.55 180.976 728.976 172.014 731.336 162.512Z"/>
	<path fill="#638294" d="M680.426 215.461C692.849 199.017 714.567 174.064 731.336 162.512C728.976 172.014 723.55 180.976 719.775 190.001C712.356 207.738 705.465 226.983 701.533 245.851C699.269 242.574 696.829 239.438 694.581 236.143L695.196 236.7C690.83 228.983 685.501 222.627 680.426 215.461Z"/>
	<path fill="#000001" d="M367.689 301.994C370.871 293.621 372.797 284.882 376.141 276.483C377.653 272.685 382.17 264.932 382.506 261.311C382.674 259.501 377.845 249.322 376.888 246.965C373.112 237.659 369.651 228.226 366.691 218.626C361.967 203.303 358.446 187.805 355.621 172.028C354.676 166.745 354.862 161.228 353.668 156.023C353.269 154.279 352.538 152.047 352.774 150.281C352.883 149.463 352.888 149.695 353.646 149.222L355.956 150.22C358.365 156.02 382.157 174.034 388.164 179.735C398.387 189.438 407.357 200.329 417.166 210.425C411.627 218.036 405.925 225.224 401.047 233.32C389.484 250.521 381.389 269.374 374.658 288.914C373.139 293.323 371.204 298.068 370.266 302.628L367.689 301.994Z"/>
	<path fill="#638294" d="M356.35 158.875C356.207 157.887 355.724 156.58 356.292 155.754C362.041 159.5 366.886 164.483 371.923 169.11C380.911 177.366 389.888 185.452 398.411 194.204C403.994 199.937 408.971 206.367 414.882 211.75C408.014 219.611 401.8 228.147 396.423 237.091C393.527 232.881 391.218 220.264 389.424 214.802C384.326 199.28 376.113 186.738 367.101 173.284C363.844 168.421 360.558 162.967 356.35 158.875Z"/>
	<path fill="#C6CECD" d="M356.35 158.875C360.558 162.967 363.844 168.421 367.101 173.284C376.113 186.738 384.326 199.28 389.424 214.802C391.218 220.264 393.527 232.881 396.423 237.091C392.063 244.011 387.982 251.018 384.314 258.33C369.983 226.059 361.464 193.795 356.35 158.875Z"/>
	<path fill="#000001" d="M540.914 95.7056C535.1 93.0781 529.296 90.0646 526.298 84.0857C523.949 79.402 523.837 73.2628 525.505 68.346C527.177 63.4177 530.813 59.435 535.555 57.2972C541.077 54.8082 547.879 54.6389 553.454 57.0494C558.404 59.1894 562.374 63.3077 564.302 68.345C566.187 73.2658 566.094 79.034 563.826 83.8145C560.608 90.5968 554.934 93.0907 548.294 95.443C548.796 96.5686 549.393 97.6578 549.955 98.7549L548.733 102.088L544.515 95.0968C538.744 104.447 534.086 114.464 529.285 124.334C524.191 134.805 518.765 145.095 515.495 156.333C509.117 150.378 488.086 126.105 480.791 125.889C479.934 125.864 480.17 125.936 479.477 126.643C479.464 127.474 479.55 128.135 479.845 128.917C480.767 131.357 482.158 133.559 483.113 135.977C485.104 141.019 486.866 146.535 488.327 151.737C491.478 162.961 492.786 174.786 495.47 186.151C520.859 196.082 555.226 195.763 581.963 190.253C582.116 184.46 583.075 178.682 584.285 173.025C585.592 166.915 593.83 141.157 592.38 137.473C597.309 132.2 601.262 128.252 608.038 125.451C607.093 129.014 606.017 132.392 604.641 135.812C605.161 137.652 605.302 139.459 605.716 141.297C605.691 141.475 605.672 141.654 605.641 141.831C604.27 149.651 599.713 157.859 599.861 165.822C616.532 173.838 634.126 181.174 649.283 191.924C653.709 190.034 658.988 185.7 663.552 184.811C662.903 186.089 650.205 192.594 648.196 193.705C637.99 187.394 627.378 182.195 616.701 176.759C610.85 173.781 605.17 170.456 599.192 167.736C598.624 173.614 598.725 182.654 594.641 187.23C589.108 193.428 576.081 195.07 568.295 195.765C549.434 197.447 506.845 198.844 491.912 186.378C490.366 180.445 489.455 174.363 488.611 168.298C472.285 175.676 455.726 184.609 440.487 194.008C428.324 183.946 413.279 176.358 399.175 169.415C393.119 166.433 385.87 163.664 380.438 159.69C384.319 160.743 388.374 162.839 392.073 164.489C409.008 172.043 424.998 181.176 440.769 190.884C456.052 181.316 471.757 172.917 488.19 165.499C486.596 158.122 479.85 131.098 474.73 126.704C470.82 123.348 465.793 124.113 463.304 118.303C461.928 115.089 462.314 110.877 463.623 107.701C464.903 104.595 467.406 102.119 470.571 100.966C474.148 99.6627 478.304 99.9969 481.695 101.691C484.868 103.277 487.279 106.071 488.291 109.477C489.813 114.601 487.819 118.857 485.496 123.295C495.117 132.412 504.983 141.134 514.051 150.825C515.781 145.054 518.755 139.427 521.277 133.96C527.266 120.983 533.391 107.877 540.914 95.7056Z"/>
	<path fill="#CAB480" d="M465.559 112.87C469.141 114.992 475.792 115.054 479.759 114.089C481.875 113.998 483.682 113.766 485.713 113.154C485.682 114.999 485.022 117.106 484.015 118.659C482.568 120.89 480.238 122.362 477.616 122.765C474.621 123.226 471.662 122.361 469.311 120.479C466.723 118.407 465.909 116.065 465.559 112.87Z"/>
	<path fill="#F4E6BD" d="M466.738 108.039C469.492 105.54 471.697 103.192 475.67 103.324C476.836 103.362 478.006 103.475 479.166 103.586C482.24 105.927 484.996 108.149 485.594 112.225C485.639 112.534 485.673 112.845 485.713 113.154C483.682 113.766 481.875 113.998 479.759 114.089C475.792 115.054 469.141 114.992 465.559 112.87C465.596 111.118 466.046 109.63 466.738 108.039Z"/>
	<path fill="#EAD29B" d="M465.559 112.87C465.596 111.118 466.046 109.63 466.738 108.039C470.376 112.779 475.48 110.758 479.759 114.089C475.792 115.054 469.141 114.992 465.559 112.87Z"/>
	<path fill="#9FA194" d="M592.38 137.473C597.309 132.2 601.262 128.252 608.038 125.451C607.093 129.014 606.017 132.392 604.641 135.812C602.323 142.636 600.32 149.708 598.838 156.762C597.41 163.557 595.923 178.122 593.05 183.591C591.945 185.695 589.851 187.384 587.734 188.387C585.877 189.268 583.956 189.79 581.963 190.253C582.116 184.46 583.075 178.682 584.285 173.025C585.592 166.915 593.83 141.157 592.38 137.473Z"/>
	<path fill="#294C73" d="M543.149 58.1216C546.498 57.9764 549.926 58.4601 552.969 59.9191C557.257 61.9759 560.306 65.6349 561.72 70.1596C563.15 74.7351 562.784 79.8029 560.374 83.9851C557.413 89.124 553.042 90.9643 547.652 92.5223C543.206 92.6366 539.295 92.1063 535.425 89.7261C531.353 87.2212 528.477 83.104 527.459 78.4386C526.488 73.9869 527.268 69.2315 529.902 65.4762C533.108 60.9043 537.882 59.1141 543.149 58.1216Z"/>
	<path fill="#04041F" d="M286.931 919.368C301.46 909.379 315.872 904.498 333.632 907.776C350.249 910.843 368.004 920.554 377.691 934.757C380.552 938.951 382.325 943.397 383.781 948.226C387.017 948.709 390.598 948.818 393.111 951.127C390.148 951.606 387.066 951.475 384.068 951.508C382.724 955.925 380.626 960.975 376.261 963.179C373.333 964.657 369.397 964.96 366.152 965.186C353.434 966.072 340.548 965.266 327.805 965.229C317.195 965.198 306.543 965.952 295.943 965.368C291.944 965.148 287.251 964.828 283.483 963.416C278.704 961.625 275.223 958.146 273.121 953.526C268.736 943.888 273.117 934.087 279.347 926.539C280.474 925.174 282.99 922.936 283.444 921.275C283.482 921.136 283.482 920.989 283.501 920.846C283.579 920.636 283.705 920.437 283.734 920.215C283.915 918.813 282.12 917.106 281.425 915.932L280.976 915.165L286.931 919.368Z"/>
	<path fill="#94B0B4" d="M275.584 942.483C282.842 943.849 289.768 944.116 297.143 943.991C297.994 949.835 300.055 954.785 302.743 960.009L302.77 960.474C302.061 960.821 302.265 960.829 301.603 960.837C294.204 960.93 284.493 961.292 278.973 955.569C275.323 951.784 275.388 947.369 275.584 942.483Z"/>
	<path fill="#94B0B4" d="M378.413 942.723C379.525 946.788 380.803 951.004 378.56 954.956C376.816 958.031 373.368 959.582 370.061 960.335C361.321 962.326 351.011 961.212 342.09 960.995C340.508 955.707 339.271 950.604 338.786 945.098C352.072 945.178 365.48 946.64 378.413 942.723Z"/>
	<path fill="#FEFEFE" d="M275.584 942.483C280.709 929.557 287.826 920.352 300.874 914.658C315.085 908.457 331.302 909.075 345.564 914.71C359.621 920.263 371.094 929.394 378.413 942.723C365.48 946.64 352.072 945.178 338.786 945.098C339.728 938.107 341.653 932.005 343.95 925.378C339.391 931.316 337.194 937.444 335.737 944.73C335.661 950.754 337.319 955.484 339.52 960.983L306.826 960.993L304.793 957.996L302.743 960.009C300.055 954.785 297.994 949.835 297.143 943.991C289.768 944.116 282.842 943.849 275.584 942.483Z"/>
	<path fill="#0E0D18" d="M297.143 943.991C297.97 936.113 300.372 929.707 304.613 923.054C302.673 928.595 301.131 933.925 300.421 939.76C299.382 946.289 301.95 952.248 304.793 957.996L302.743 960.009C300.055 954.785 297.994 949.835 297.143 943.991Z"/>
	<path fill="#94B0B4" d="M304.793 957.996C301.95 952.248 299.382 946.289 300.421 939.76C300.509 941.393 300.425 943.304 301.031 944.823C306.732 945.461 331.052 945.745 335.737 944.73C335.661 950.754 337.319 955.484 339.52 960.983L306.826 960.993L304.793 957.996Z"/>
	<path fill="#C6CECD" d="M544.515 95.0968L548.733 102.088C558.244 119.85 568.811 138.518 574.254 157.992C579.218 150.208 585.781 143.851 592.38 137.473C593.83 141.157 585.592 166.915 584.285 173.025C583.075 178.682 582.116 184.46 581.963 190.253C555.226 195.763 520.859 196.082 495.47 186.151C492.786 174.786 491.478 162.961 488.327 151.737C486.866 146.535 485.104 141.019 483.113 135.977C482.158 133.559 480.767 131.357 479.845 128.917C479.55 128.135 479.464 127.474 479.477 126.643C480.17 125.936 479.934 125.864 480.791 125.889C488.086 126.105 509.117 150.378 515.495 156.333C518.765 145.095 524.191 134.805 529.285 124.334C534.086 114.464 538.744 104.447 544.515 95.0968Z"/>
	<path fill="#294C73" d="M159.194 342.141C183.824 340.748 206.645 348.39 225.131 364.91C245.321 382.954 257.845 408.998 259.209 436.047C259.885 449.46 257.365 463.08 252.858 475.691C245.851 492.153 238.255 507.4 228.199 522.232C226.079 525.359 223.978 528.818 221.584 531.728C218.165 526.254 215.005 521.498 210.28 517.024C209.96 516.735 209.641 516.445 209.317 516.162C187.886 497.463 159.38 494.227 132.022 496.083C133.244 490.315 135.242 484.6 136.616 478.836C140.645 461.93 141.482 446.179 139.907 428.913C132.992 428.942 126.466 428.249 120.191 425.138C112.196 421.173 107.357 414.602 104.529 406.337C100.609 392.301 104.015 381.214 110.797 368.861C112.057 366.565 113.936 364.007 114.043 361.357L114.308 361.226C116.141 362.289 123.759 354.407 126.003 352.975C135.758 346.752 147.819 343.449 159.194 342.141Z"/>
	<path fill="#FEFEFE" d="M184.041 353.376C190.652 353.684 196.809 357.48 202.128 361.13C219.275 372.9 237.892 394.74 241.413 415.837C241.994 419.32 242.222 422.329 240.073 425.289C239.818 425.312 239.563 425.362 239.307 425.356C238.149 425.329 236.492 424.482 235.756 423.597C233.747 421.185 233.566 414.756 232.561 411.547C230.584 405.231 227.703 399.175 224.287 393.516C217.588 382.416 208.65 372.575 197.239 366.281C192.386 363.605 186.636 361.356 182.961 357.068C182.686 355.586 183.42 354.712 184.041 353.376Z"/>
	<path fill="#246B97" d="M355.956 150.22C364.192 153.105 372.602 155.82 380.438 159.69C385.87 163.664 393.119 166.433 399.175 169.415C413.279 176.358 428.324 183.946 440.487 194.008C455.726 184.609 472.285 175.676 488.611 168.298C489.455 174.363 490.366 180.445 491.912 186.378C506.845 198.844 549.434 197.447 568.295 195.765C576.081 195.07 589.108 193.428 594.641 187.23C598.725 182.654 598.624 173.614 599.192 167.736C605.17 170.456 610.85 173.781 616.701 176.759C627.378 182.195 637.99 187.394 648.196 193.705C650.205 192.594 662.903 186.089 663.552 184.811C670.639 180.615 694.636 167.791 701.882 166.216C707.23 164.809 712.424 162.402 717.606 160.47C724.832 157.778 732.117 155.385 739.547 153.335C716.572 169.516 694.432 191.613 678.017 214.497C682.265 220.076 687.423 226.147 690.169 232.632C664.614 226.739 635.072 224.325 611.882 239.009C593.267 250.796 581.784 272.224 577.192 293.291C573.982 308.02 573.011 322.97 572.961 338.008C568.468 334.01 562.266 333.419 556.517 332.905L556.103 334.659L554.326 335.231C548.42 334.695 542.568 334.855 536.652 335.035L537.074 333.239C531.695 333.858 528.306 335.754 523.358 337.52C523.215 322.899 521.658 306.633 517.528 292.587C511.062 270.596 497.985 249.79 477.386 238.676C456.882 227.612 423.411 226.691 401.047 233.32C405.925 225.224 411.627 218.036 417.166 210.425C407.357 200.329 398.387 189.438 388.164 179.735C382.157 174.034 358.365 156.02 355.956 150.22Z"/>
	<path fill="#0E0D18" d="M537.074 333.239C543.486 332.235 550.068 332.299 556.517 332.905L556.103 334.659L554.326 335.231C548.42 334.695 542.568 334.855 536.652 335.035L537.074 333.239Z"/>
	<path fill="#000001" d="M104.529 406.337C107.357 414.602 112.196 421.173 120.191 425.138C126.466 428.249 132.992 428.942 139.907 428.913C141.482 446.179 140.645 461.93 136.616 478.836C135.242 484.6 133.244 490.315 132.022 496.083C159.38 494.227 187.886 497.463 209.317 516.162C209.641 516.445 209.96 516.735 210.28 517.024C215.005 521.498 218.165 526.254 221.584 531.728C205.797 556.238 191.733 581.366 186.055 610.245C185.536 613.574 184.904 617.039 184.961 620.419C185.622 625.637 183.548 637.127 185.717 641.076L186.966 641.916C187.203 645.881 187.045 652.481 188.819 656.009C189.275 656.768 189.706 657.538 190.154 658.3C190.646 659.138 190.42 658.843 191.313 659.404C186.122 671.441 184.184 685.947 183.566 698.937C183.371 704.033 183.293 709.164 182.889 714.247C182.152 718.619 181.628 723.819 182.697 728.157C184.224 736.327 184.683 744.854 185.476 753.133C185.727 763.85 188.864 774.667 191.809 784.927C203.946 827.216 225.773 865.001 257.656 895.433C262.742 900.287 268.218 904.723 273.663 909.165C276.009 911.079 278.905 912.984 280.976 915.165L281.425 915.932C282.12 917.106 283.915 918.813 283.734 920.215C283.705 920.437 283.579 920.636 283.501 920.846C275.026 914.948 267.942 907.351 259.336 901.627C247.457 893.726 234.443 887.876 222.671 879.605C173.482 845.047 130.732 799.81 110.39 742.362C103.965 724.214 99.9225 705.028 96.8699 686.051C90.3355 645.428 91.4331 607.892 102.863 568.269C114.661 527.369 145.597 475.317 137.839 432.369L137.702 431.629C131.26 429.963 124.838 429.939 118.701 427.006C111.217 423.428 106.039 416.829 103.286 409.109L104.349 408.948L104.529 406.337Z"/>
	<path fill="#C6CECD" d="M113.216 736.974C116.443 730.75 119.584 724.639 123.306 718.687C132.127 742.987 142.518 764.586 157.051 786.066C159.975 790.387 163.436 796.273 167.367 799.614C164.949 807.504 164.656 815.406 163.723 823.539C158.838 816.83 153.052 810.627 148.047 803.946C133.322 784.293 119.998 760.687 113.216 736.974Z"/>
	<path fill="#294C73" d="M184.369 768.567C192.362 803.867 206.993 837.588 228.527 866.759C235.058 875.606 242.789 883.525 249.308 892.36C243.609 889.46 238.241 885.697 232.912 882.173C211.462 867.988 191.655 851.778 173.473 833.603C170.246 830.377 166.507 827.132 163.723 823.539C164.656 815.406 164.949 807.504 167.367 799.614C171.402 788.351 177.276 778.155 184.369 768.567Z"/>
	<path fill="#FEFEFE" d="M123.306 718.687C129.875 707.48 141.783 697.385 152.883 690.909C158.587 687.581 176.718 679.294 182.795 680.89C175.354 705.378 177.836 744.136 184.369 768.567C177.276 778.155 171.402 788.351 167.367 799.614C163.436 796.273 159.975 790.387 157.051 786.066C142.518 764.586 132.127 742.987 123.306 718.687Z"/>
	<path fill="#294C73" d="M95.796 624.618C95.8285 626.002 95.9464 627.362 96.0787 628.738C96.8465 628.858 106.005 621.35 107.48 620.37C123.888 609.479 145.524 605.689 164.925 606.625C171.986 607.736 179.003 609.145 186.055 610.245C185.536 613.574 184.904 617.039 184.961 620.419C183.501 628.961 183.566 638.411 184.482 646.99C185.171 653.439 186.388 660.036 185.948 666.533C185.611 671.51 184.237 676.14 182.795 680.89C176.718 679.294 158.587 687.581 152.883 690.909C141.783 697.385 129.875 707.48 123.306 718.687C119.584 724.639 116.443 730.75 113.216 736.974C112.328 735.236 111.443 733.485 110.669 731.692C101.372 710.15 94.8616 658.326 95.0552 634.488C95.079 631.566 94.7276 627.324 95.796 624.618Z"/>
	<path fill="#FEFEFE" d="M132.022 496.083C159.38 494.227 187.886 497.463 209.317 516.162C209.641 516.445 209.96 516.735 210.28 517.024C215.005 521.498 218.165 526.254 221.584 531.728C205.797 556.238 191.733 581.366 186.055 610.245C179.003 609.145 171.986 607.736 164.925 606.625C145.524 605.689 123.888 609.479 107.48 620.37C106.005 621.35 96.8465 628.858 96.0787 628.738C95.9464 627.362 95.8285 626.002 95.796 624.618C98.6828 597.208 103.28 574.271 112.919 548.253C119.36 530.87 127.341 514.072 132.022 496.083Z"/>
	<path fill="#C6CECD" d="M210.28 517.024C215.005 521.498 218.165 526.254 221.584 531.728C205.797 556.238 191.733 581.366 186.055 610.245C179.003 609.145 171.986 607.736 164.925 606.625C167.617 599.9 169.859 593.019 172.676 586.334C182.543 562.921 195.71 537.815 210.28 517.024Z"/>
	<path fill="#000001" d="M572.961 338.008C573.011 322.97 573.982 308.02 577.192 293.291C581.784 272.224 593.267 250.796 611.882 239.009C635.072 224.325 664.614 226.739 690.169 232.632C697.323 242.014 707.315 261.707 712.675 272.787C717.531 283.289 721.851 293.74 725.166 304.841C726.342 305.002 727.605 305.081 728.752 305.37C731.307 312.013 734.63 318.264 737.412 324.798C748.831 345.542 758.908 366.137 774.936 383.972C782.13 391.978 792.864 398.15 798.437 406.289C798.356 409.75 798.193 413.277 796.57 416.415C802.071 423.519 808.416 429.922 814.026 436.938C827.394 453.652 838.898 472.716 847.733 492.204C850.143 497.52 852.502 502.972 854.242 508.544C856.012 514.209 857.075 520.544 859.731 525.822C863.63 533.568 870.263 539.846 874.328 547.49C880.805 555.444 885.82 564.795 890.82 573.705C914.148 615.271 928.767 665.141 930.557 712.844C931.018 725.123 930.189 737.215 928.938 749.42C923.715 800.344 903.505 847.885 870.337 886.864C859.218 899.931 847.02 911.564 834.453 923.196C840.535 930.15 845.892 937.964 845.104 947.692C844.713 952.524 842.737 956.911 838.95 960.013C836.034 962.402 832.376 963.839 828.665 964.384C823.533 965.137 818.129 964.851 812.945 964.847L785.414 964.734C770.911 964.742 755.735 966.347 741.343 964.483C737.383 963.97 733.06 962.803 730.456 959.547C728.263 956.806 727.69 952.591 725.542 950.19C711.452 952.271 695.982 951.499 681.757 951.241C669.802 951.024 657.851 951.025 645.895 951.005L477.329 950.791L419.538 951.285C412.731 951.365 399.071 952.328 393.111 951.127C390.598 948.818 387.017 948.709 383.781 948.226C382.325 943.397 380.552 938.951 377.691 934.757C368.004 920.554 350.249 910.843 333.632 907.776C315.872 904.498 301.46 909.379 286.931 919.368L280.976 915.165C278.905 912.984 276.009 911.079 273.663 909.165C268.218 904.723 262.742 900.287 257.656 895.433C225.773 865.001 203.946 827.216 191.809 784.927C188.864 774.667 185.727 763.85 185.476 753.133C184.683 744.854 184.224 736.327 182.697 728.157C181.628 723.819 182.152 718.619 182.889 714.247C183.293 709.164 183.371 704.033 183.566 698.937C184.184 685.947 186.122 671.441 191.313 659.404C190.42 658.843 190.646 659.138 190.154 658.3C189.706 657.538 189.275 656.768 188.819 656.009C192.287 650.904 193.706 643.884 195.726 638.08C197.632 632.605 199.705 627.21 201.958 621.869C208.467 606.007 217.907 587.096 228.233 573.528C229.241 571.314 231.063 569.143 232.441 567.117C235.498 561.711 239.165 555.825 243.559 551.414C244.473 550.121 245.352 548.851 245.745 547.296C246.769 543.254 246.864 538.796 247.289 534.644C247.859 529.079 248.712 523.429 249.983 517.983C256.829 488.659 270.271 462.053 287.693 437.626C292.382 431.052 297.283 424.343 302.788 418.429C300.342 414.698 297.921 410.956 295.549 407.177C297.79 405.428 299.899 403.48 302.041 401.611C303.158 401.763 303.579 401.912 304.415 402.674C309.165 399.201 313.11 394.862 317.061 390.538C317.735 388.914 317.626 388.552 317.388 386.872C321.183 381.856 325.737 377.464 329.639 372.511C329.786 372.505 330.748 372.478 330.931 372.436C333.779 371.781 337.014 366.944 338.802 364.79C347.708 353.13 354.543 339.241 360.249 325.76C363.126 318.964 365.661 311.118 369.67 304.902L370.266 302.628C371.204 298.068 373.139 293.323 374.658 288.914C381.389 269.374 389.484 250.521 401.047 233.32C423.411 226.691 456.882 227.612 477.386 238.676C497.985 249.79 511.062 270.596 517.528 292.587C521.658 306.633 523.215 322.899 523.358 337.52C528.306 335.754 531.695 333.858 537.074 333.239L536.652 335.035C542.568 334.855 548.42 334.695 554.326 335.231L556.103 334.659L556.517 332.905C562.266 333.419 568.468 334.01 572.961 338.008ZM858.072 534.048C863.174 573.811 853.238 605.5 828.954 636.97C806.695 665.816 777.469 688.903 744.699 704.646C734.643 709.477 723.027 714.359 711.923 715.893C711.605 715.937 711.286 715.973 710.967 716.013C711.551 711.968 711.597 708.021 711.458 703.941C710.727 704.186 710.155 704.112 709.85 704.888C709.428 705.958 709.457 707.091 709.414 708.224C709.309 714.45 706.8 720.934 702.984 725.796L705.106 726.737C703.279 728.725 701.037 730.613 698.337 731.218C691.208 732.817 690.423 724.723 686.184 721.862L684.77 722.501C685.202 728.055 683.797 736.375 687.878 740.751C689.755 742.764 692.573 743.165 695.193 743.136C702.819 743.05 711.291 741.516 718.715 739.848C760.366 730.492 796.297 704.644 825.43 674.278C830.927 668.548 835.804 662.306 840.698 656.064C843.189 652.888 845.668 649.178 848.552 646.369C848.777 646.15 849.007 645.935 849.235 645.718C834.421 716.064 788.168 781.738 728.147 820.976C658.019 866.821 570.549 881.677 488.888 864.381C413.296 848.371 346.148 806.112 303.883 740.841C289.663 718.881 278.493 695.703 270.807 670.701C269.385 668.311 268.582 665.544 267.805 662.888C265.498 655.016 255.812 614.823 258.694 609.518C257.233 603.486 254.805 597.671 252.861 591.781C248.425 578.341 246.401 566.157 246.352 552.007C245.41 551.906 244.481 551.633 243.559 551.414C239.165 555.825 235.498 561.711 232.441 567.117C231.063 569.143 229.241 571.314 228.233 573.528C217.907 587.096 208.467 606.007 201.958 621.869C199.705 627.21 197.632 632.605 195.726 638.08C193.706 643.884 192.287 650.904 188.819 656.009C189.275 656.768 189.706 657.538 190.154 658.3C190.646 659.138 190.42 658.843 191.313 659.404C186.122 671.441 184.184 685.947 183.566 698.937C183.371 704.033 183.293 709.164 182.889 714.247C182.152 718.619 181.628 723.819 182.697 728.157C184.224 736.327 184.683 744.854 185.476 753.133C185.727 763.85 188.864 774.667 191.809 784.927C203.946 827.216 225.773 865.001 257.656 895.433C262.742 900.287 268.218 904.723 273.663 909.165C276.009 911.079 278.905 912.984 280.976 915.165L286.931 919.368C301.46 909.379 315.872 904.498 333.632 907.776C350.249 910.843 368.004 920.554 377.691 934.757C380.552 938.951 382.325 943.397 383.781 948.226C387.017 948.709 390.598 948.818 393.111 951.127C399.071 952.328 412.731 951.365 419.538 951.285L477.329 950.791L645.895 951.005C657.851 951.025 669.802 951.024 681.757 951.241C695.982 951.499 711.452 952.271 725.542 950.19C727.69 952.591 728.263 956.806 730.456 959.547C733.06 962.803 737.383 963.97 741.343 964.483C755.735 966.347 770.911 964.742 785.414 964.734L812.945 964.847C818.129 964.851 823.533 965.137 828.665 964.384C832.376 963.839 836.034 962.402 838.95 960.013C842.737 956.911 844.713 952.524 845.104 947.692C845.892 937.964 840.535 930.15 834.453 923.196C847.02 911.564 859.218 899.931 870.337 886.864C903.505 847.885 923.715 800.344 928.938 749.42C930.189 737.215 931.018 725.123 930.557 712.844C928.767 665.141 914.148 615.271 890.82 573.705C885.82 564.795 880.805 555.444 874.328 547.49C868.872 545.327 861.33 527.507 857.765 525.77L857.14 526.119C857.743 528.22 858.649 531.131 858.244 533.287C858.196 533.543 858.13 533.795 858.072 534.048Z"/>
	<path fill="#FEFEFE" d="M439.979 642.83C441.223 643.614 442.292 643.865 442.702 645.327C442.051 646.078 441.513 646.602 440.667 647.128C440.751 648.097 440.946 649.171 440.91 650.135C441.034 650.198 441.156 650.264 441.282 650.323C451.244 654.998 472.72 651.174 479.669 660.855C479.669 662.132 479.517 662.605 478.553 663.499C474.914 666.877 463.251 668.11 462.565 673.208C462.318 675.049 465.58 678.128 466.786 679.393C471.02 683.839 477.996 689.576 477.732 696.253C477.671 697.79 477.01 699.075 475.861 700.084C471.654 703.777 464.828 704.065 459.49 704.044C459.687 710.188 460.803 719.151 456.247 723.989C454.914 725.405 453.097 726.136 451.16 726.084C444.404 725.903 437.966 719.16 433.458 714.771C431.592 719.243 428.768 727.88 423.979 729.86C422.514 730.465 421.014 730.307 419.619 729.609C414.774 727.188 406.834 717.913 402.962 713.679C402.591 693.418 410.022 673.622 424.249 658.966C427.088 656.041 430.174 653.588 433.462 651.191L431.853 649.592C434.034 648.054 436.049 646.19 438.094 644.472L439.979 642.83Z"/>
	<path fill="#0E0D18" d="M439.979 642.83C441.223 643.614 442.292 643.865 442.702 645.327C442.051 646.078 441.513 646.602 440.667 647.128L433.462 651.191L431.853 649.592C434.034 648.054 436.049 646.19 438.094 644.472L439.979 642.83Z"/>
	<path fill="#638294" d="M258.694 609.518C281.595 656.546 324.477 694.974 374.072 712.01C383.855 715.37 393.766 716.996 403.98 718.339C409.251 724.717 416.159 730.942 423.567 734.676C426.606 732.615 428.609 730.414 430.797 727.46C432.075 728.761 433.62 730.197 434.512 731.783C435.433 733.42 435.715 735.58 435.155 737.38C434.244 740.303 431.253 742.187 428.668 743.473C422.916 746.334 416.206 747.412 409.856 747.819C370.636 750.337 323.492 719.376 295.155 694.193C290.558 690.109 285.926 685.925 281.662 681.49C278.698 678.407 275.572 673.898 272.248 671.399C271.659 670.956 271.423 670.915 270.807 670.701C269.385 668.311 268.582 665.544 267.805 662.888C265.498 655.016 255.812 614.823 258.694 609.518Z"/>
	<path fill="#246B97" d="M338.802 364.79C347.708 353.13 354.543 339.241 360.249 325.76C363.126 318.964 365.661 311.118 369.67 304.902C370.162 312.595 366.92 320.759 366.056 328.416C364.299 343.982 364.271 360.326 367.502 375.678C368.763 381.672 370.945 387.456 372.255 393.375C371.862 405.606 395.488 437.902 403.98 446.991C438.26 483.683 489.511 507.953 539.973 509.283C542.532 509.35 546.498 508.652 548.603 510.176C548.637 510.391 548.668 510.606 548.704 510.821C548.87 511.796 548.792 511.42 549.109 512.442C544.744 516.603 535.036 535.272 531.493 541.342L489.568 613.645C470.302 591.995 448.538 572.128 427.837 551.845C407.807 532.219 388.433 511.917 369.204 491.509C343.989 464.747 319.318 438.03 298.348 407.718C300.391 406.063 302.397 404.359 304.415 402.674C309.165 399.201 313.11 394.862 317.061 390.538C317.735 388.914 317.626 388.552 317.388 386.872C321.183 381.856 325.737 377.464 329.639 372.511C329.786 372.505 330.748 372.478 330.931 372.436C333.779 371.781 337.014 366.944 338.802 364.79Z"/>
	<path fill="#294C73" d="M338.802 364.79C341.104 371.962 341.98 379.695 343.906 387.011C347.926 402.281 354.407 417.437 361.915 431.317C367.876 442.337 374.227 452.988 381.4 463.266C382.786 465.253 388.205 471.665 388.354 473.778C387.582 473.651 387.941 473.834 387.421 473.25C383.866 469.257 379.759 465.607 376.053 461.726C365.832 451.021 355.717 440.247 346.104 428.989C339.706 421.496 333.385 413.897 327.618 405.901C323.994 400.878 320.834 395.431 317.061 390.538C317.735 388.914 317.626 388.552 317.388 386.872C321.183 381.856 325.737 377.464 329.639 372.511C329.786 372.505 330.748 372.478 330.931 372.436C333.779 371.781 337.014 366.944 338.802 364.79Z"/>
	<path fill="#246B97" d="M717.293 409.527C719.993 405.698 721.912 399.675 723.59 395.225C733.799 368.155 733.956 347.251 730.982 318.966C731.901 320.386 733.57 323.099 735.052 323.914C735.202 323.997 735.383 324.023 735.522 324.123C735.762 324.295 735.958 324.521 736.175 324.72L735.311 324.794C736.172 331.446 756.288 363.887 761.191 370.952C766.24 376.675 771.822 382.378 775.537 389.093C781.745 396.317 791.481 400.367 796.119 408.754C794.915 413.079 793.425 416.875 791.206 420.784C779.628 441.181 755.843 467.305 739.666 485.168C713.973 513.537 687.631 541.251 661.021 568.761C645.241 585.074 628.765 601.042 613.727 618.03C599.262 593.932 584.932 569.572 570.967 545.179C565.298 535.278 560.202 524.963 554.281 515.223C553.474 513.895 552.588 512.709 551.3 511.819C552.168 510.437 552.743 509.68 554.43 509.357C560.438 508.206 567.042 508.187 573.162 507.443C584.738 506.035 596.329 503.34 607.426 499.765C643.377 488.181 679.289 465.175 702.121 434.771C708.102 426.807 712.757 418.349 717.293 409.527Z"/>
	<path fill="#294C73" d="M761.191 370.952C766.24 376.675 771.822 382.378 775.537 389.093C772.821 392.252 770.629 396.432 768.169 399.878C763.42 406.532 758.28 412.933 753.183 419.323C738.52 437.705 722.536 454.681 706.507 471.854C713.191 459.348 721.341 447.915 728.266 435.606C740.055 414.656 751.003 392.726 761.191 370.952Z"/>
	<path fill="#246B97" d="M304.458 421.439C307.335 431.849 306.561 444.073 307.555 454.841C309.32 473.956 314.451 492.781 321.071 510.749C341.686 566.704 383.175 619.153 438.094 644.472C436.049 646.19 434.034 648.054 431.853 649.592C427.238 652.387 423.421 656.037 419.89 660.096C406.447 675.55 399.268 694.12 400.634 714.589C400.234 714.575 399.834 714.564 399.435 714.538C388.291 713.791 377.348 710.066 367.086 705.82C338.077 693.819 312.033 675.631 291.221 652.053C263.657 620.825 246.948 584.475 249.725 541.905C252.135 504.957 268.275 468.908 289.895 439.236C294.324 433.156 298.788 426.423 304.458 421.439Z"/>
	<path fill="#246B97" d="M795.215 419.483C819.97 443.71 841.035 478.467 852.133 511.244C854.68 518.766 856.04 526.413 858.072 534.048C863.174 573.811 853.238 605.5 828.954 636.97C806.695 665.816 777.469 688.903 744.699 704.646C734.643 709.477 723.027 714.359 711.923 715.893C711.605 715.937 711.286 715.973 710.967 716.013C711.551 711.968 711.597 708.021 711.458 703.941C710.727 704.186 710.155 704.112 709.85 704.888C709.428 705.958 709.457 707.091 709.414 708.224C708.809 702.961 707.996 697.964 706.456 692.888C702.011 678.231 693.728 665.45 682.859 654.719C680.04 651.935 676.984 648.916 673.476 647.026L673.559 645.099C681.359 641.697 688.151 636.688 695.615 632.693C700.695 632.963 712.866 618.351 718.799 615.993C732.783 606.12 744.315 590.582 753.879 576.531C776.47 543.344 788.698 505.645 791.107 465.652C791.86 453.159 792.065 441.216 789.728 428.839C791.366 425.646 793.377 422.569 795.215 419.483Z"/>
	<path fill="#0E0D18" d="M695.615 632.693C700.695 632.963 712.866 618.351 718.799 615.993C711.168 627.2 690.069 639.436 678.013 645.194C690.678 659.443 703.225 672.501 708.977 691.261C710.183 695.194 711.393 699.826 711.458 703.941C710.727 704.186 710.155 704.112 709.85 704.888C709.428 705.958 709.457 707.091 709.414 708.224C708.809 702.961 707.996 697.964 706.456 692.888C702.011 678.231 693.728 665.45 682.859 654.719C680.04 651.935 676.984 648.916 673.476 647.026L673.559 645.099C681.359 641.697 688.151 636.688 695.615 632.693Z"/>
	<path fill="#FEFEFE" d="M572.961 338.008C573.011 322.97 573.982 308.02 577.192 293.291C581.784 272.224 593.267 250.796 611.882 239.009C635.072 224.325 664.614 226.739 690.169 232.632C697.323 242.014 707.315 261.707 712.675 272.787C717.531 283.289 721.851 293.74 725.166 304.841C726.342 305.002 727.605 305.081 728.752 305.37C731.307 312.013 734.63 318.264 737.412 324.798L736.175 324.72C735.958 324.521 735.762 324.295 735.522 324.123C735.383 324.023 735.202 323.997 735.052 323.914C733.57 323.099 731.901 320.386 730.982 318.966C733.956 347.251 733.799 368.155 723.59 395.225C721.912 399.675 719.993 405.698 717.293 409.527C712.757 418.349 708.102 426.807 702.121 434.771C679.289 465.175 643.377 488.181 607.426 499.765C596.329 503.34 584.738 506.035 573.162 507.443C567.042 508.187 560.438 508.206 554.43 509.357C552.743 509.68 552.168 510.437 551.3 511.819L549.109 512.442C548.792 511.42 548.87 511.796 548.704 510.821C548.668 510.606 548.637 510.391 548.603 510.176C546.498 508.652 542.532 509.35 539.973 509.283C489.511 507.953 438.26 483.683 403.98 446.991C395.488 437.902 371.862 405.606 372.255 393.375C370.945 387.456 368.763 381.672 367.502 375.678C364.271 360.326 364.299 343.982 366.056 328.416C366.92 320.759 370.162 312.595 369.67 304.902L370.266 302.628C371.204 298.068 373.139 293.323 374.658 288.914C381.389 269.374 389.484 250.521 401.047 233.32C423.411 226.691 456.882 227.612 477.386 238.676C497.985 249.79 511.062 270.596 517.528 292.587C521.658 306.633 523.215 322.899 523.358 337.52C528.306 335.754 531.695 333.858 537.074 333.239L536.652 335.035C542.568 334.855 548.42 334.695 554.326 335.231L556.103 334.659L556.517 332.905C562.266 333.419 568.468 334.01 572.961 338.008Z"/>
	<path fill="#04041F" d="M725.166 304.841C726.342 305.002 727.605 305.081 728.752 305.37C731.307 312.013 734.63 318.264 737.412 324.798L736.175 324.72C735.958 324.521 735.762 324.295 735.522 324.123C735.383 324.023 735.202 323.997 735.052 323.914C733.57 323.099 731.901 320.386 730.982 318.966C733.956 347.251 733.799 368.155 723.59 395.225C721.912 399.675 719.993 405.698 717.293 409.527C716.846 409.248 716.313 409.138 715.811 408.98C732.711 373.962 735.59 342.328 725.166 304.841Z"/>
	<path fill="#000001" d="M427.338 277.791C435.328 269.36 445.436 264.728 457.112 264.347C469.083 263.957 480.961 268.125 489.695 276.405C494.845 281.288 498.21 286.759 500.783 293.342C494.177 286.247 488.665 278 479.621 273.67C473.198 270.365 457.188 267.919 450.504 269.277C441.513 270.715 435.312 273.632 427.338 277.791Z"/>
	<defs>
		<linearGradient id="gradient_1" gradientUnits="userSpaceOnUse" x1="543.05933" y1="333.91754" x2="546.81049" y2="405.14264">
			<stop offset="0" stop-color="#0C161E"/>
			<stop offset="1" stop-color="#060936"/>
		</linearGradient>
	</defs>
	<path fill="url(#gradient_1)" d="M556.517 332.905C562.266 333.419 568.468 334.01 572.961 338.008C572.923 338.335 572.911 338.666 572.845 338.989C571.042 347.922 556.291 356.621 549.222 361.276C549.406 369.702 549.472 378.123 549.495 386.551C554.449 391.609 559.355 395.996 566.042 398.595C572.659 401.166 580.764 401.895 587.325 398.793C595.847 394.765 598.135 386.488 600.861 378.315C600.24 385.561 598.666 392.779 593.414 398.204C588.993 402.77 582.945 404.619 576.716 404.68C564.27 404.803 555.343 398.517 546.807 390.123C539.099 398.124 530.454 403.757 519.045 404.368C512.378 404.725 506.039 403 501.064 398.409C494.3 392.169 492.06 383.635 491.737 374.757C493.919 382.685 495.808 389.857 502.367 395.473C507.038 399.473 512.918 400.789 518.979 400.317C527.198 399.675 536.608 395.197 541.964 388.868C547.468 382.363 545.763 369.246 545.007 361.171C542.57 359.549 540.154 357.903 537.836 356.114C531.844 351.491 524.409 345.49 523.358 337.52C528.306 335.754 531.695 333.858 537.074 333.239L536.652 335.035C542.568 334.855 548.42 334.695 554.326 335.231L556.103 334.659L556.517 332.905Z"/>
	<path fill="#FEFEFE" d="M536.652 335.035C542.568 334.855 548.42 334.695 554.326 335.231C556.216 335.355 557.96 335.273 559.555 336.405L559.486 337.172C559.028 337.468 558.875 337.592 558.413 337.812C553.248 340.26 541.069 340.421 535.8 338.33C534.709 337.897 534.306 337.626 533.872 336.502C534.733 335.382 535.321 335.42 536.652 335.035Z"/>
	<path fill="#000001" d="M450.504 269.277C457.188 267.919 473.198 270.365 479.621 273.67L481.633 276.679C484.181 279.839 486.312 283.486 487.143 287.492C488.33 293.214 486.709 299.343 483.549 304.177C479.966 309.658 474.355 313.298 467.964 314.602C461.618 315.898 455.124 314.69 449.717 311.101C444.7 307.771 441.306 302.597 440.169 296.691C438.606 288.577 441.747 282.076 446.21 275.606C448.512 273.204 452.081 272.362 454.067 270.018L453.73 269.517L450.504 269.277Z"/>
	<path fill="#FEFEFE" d="M449.066 278.983C450.441 278.952 451.869 278.881 453.233 279.079C455.715 279.44 458.122 280.814 459.575 282.88C460.706 284.488 461.127 286.411 460.696 288.335C459.982 291.518 457.686 293.281 455.026 294.852C454.232 295.069 453.478 295.269 452.651 295.302C450.478 295.389 448.088 294.654 446.562 293.053C444.936 291.346 444.435 289.065 444.56 286.767C444.752 283.249 446.579 281.256 449.066 278.983Z"/>
	<path fill="#294C73" d="M450.504 269.277C457.188 267.919 473.198 270.365 479.621 273.67L481.633 276.679C481.737 277.687 481.612 277.41 481.989 278.187C483.149 280.577 484.353 282.921 485.159 285.464C486.878 290.881 485.87 297.173 483.188 302.127C480.365 307.342 475.32 311.07 469.661 312.695C463.021 314.6 456.361 313.475 450.488 309.97C445.759 307.149 442.636 299.804 441.54 294.557C441.218 293.016 441.165 292.048 442.051 290.734C446.024 291.593 451.502 302.082 463 301.849C466.752 301.773 470.625 300.083 473.17 297.311C475.541 294.729 476.543 291.289 476.379 287.826C476.194 283.926 474.587 279.713 471.63 277.077C463.384 269.724 455.096 275.458 446.628 275.608C446.489 275.611 446.35 275.607 446.21 275.606C448.512 273.204 452.081 272.362 454.067 270.018L453.73 269.517L450.504 269.277Z"/>
	<path fill="#94B0B4" d="M402.611 312.565C407.993 312.226 412.798 312.242 417.842 314.565C423.676 317.253 428.243 322.396 430.294 328.476C432.331 334.513 431.72 341.143 428.865 346.811C425.195 354.101 419.245 357.719 411.796 360.202C406.002 360.886 400.079 360.397 394.84 357.598C389.305 354.641 385.056 349.297 383.351 343.265C381.554 336.905 382.601 329.715 385.933 324.031C389.76 317.503 395.542 314.377 402.611 312.565Z"/>
	<path fill="#94B0B4" d="M688.272 309.117C693.005 308.704 698.07 309.27 702.388 311.298C708.174 314.017 712.53 319.057 714.512 325.123C716.66 331.699 715.928 338.92 712.675 345.01C709.005 351.881 703.239 355.319 695.991 357.423C689.267 357.923 683.123 357.281 677.312 353.517C671.957 350.049 668.333 344.454 667.065 338.224C665.725 331.642 667.272 324.581 671.127 319.095C675.17 313.341 681.508 310.279 688.272 309.117Z"/>
	<path fill="#000001" d="M595.634 297.98C598.667 286.346 605.153 276.123 615.685 269.931C625.578 264.114 637.895 262.781 648.925 265.757C653.831 267.081 658.136 269.226 662.565 271.677C654.478 270.238 646.373 268.935 638.227 267.875C644.823 270.831 650.953 276.152 653.455 283.095C655.505 288.783 655.093 295.177 652.522 300.627C649.698 306.613 644.105 311.505 637.818 313.56C632.378 315.339 625.999 315.016 620.94 312.249C615.701 309.383 611.387 303.678 609.904 297.899C608.224 291.356 609.724 283.652 613.233 277.968C613.76 277.114 614.297 276.317 614.966 275.567L614.261 275.227C608.875 279.797 604.48 284.154 600.622 290.093C598.956 292.658 597.485 295.565 595.634 297.98Z"/>
	<path fill="#FEFEFE" d="M617.487 295.83C615.16 294.119 612.157 292.357 611.596 289.285C611.203 287.134 611.482 284.812 612.772 283.003C614.039 281.226 616.106 280.23 618.243 279.997C620.501 279.751 622.943 280.321 624.721 281.773C626.204 282.984 627.031 284.733 627.091 286.64C627.167 289.036 626.26 291.537 624.509 293.196C622.881 294.738 621.098 295.345 618.959 295.82L617.487 295.83Z"/>
	<path fill="#294C73" d="M614.261 275.227C620.07 270.647 626.937 268.058 634.45 269.038C640.151 269.781 644.992 272.936 648.343 277.559C652.027 282.642 653.837 289.291 652.651 295.511C651.544 301.315 647.884 305.965 643.039 309.199C638.055 312.527 632.515 313.846 626.616 312.453C621.641 311.279 617.531 308.762 614.816 304.362C612.795 301.087 611.728 297.384 610.926 293.654C612.846 294.512 615.268 296.004 617.348 296.114L617.487 295.83L618.959 295.82L618.591 296.146C618.751 296.215 618.913 296.28 619.072 296.352C619.336 296.472 619.595 296.602 619.858 296.724C622.737 298.056 625.061 300.126 627.503 302.116C628.739 302.039 629.985 301.963 631.214 301.8C634.903 301.311 638.477 299.421 640.601 296.307C642.702 293.227 643.221 289.277 642.384 285.683C641.399 281.448 638.577 277.977 634.812 275.868C628.473 272.316 621.562 273.665 614.966 275.567L614.261 275.227Z"/>
	<path fill="#94B0B4" d="M549.109 512.442C548.792 511.42 548.87 511.796 548.704 510.821C548.668 510.606 548.637 510.391 548.603 510.176C546.498 508.652 542.532 509.35 539.973 509.283C489.511 507.953 438.26 483.683 403.98 446.991C395.488 437.902 371.862 405.606 372.255 393.375C374.348 398.349 376.367 403.371 378.709 408.234C378.984 408.356 379.263 408.468 379.532 408.6C381.899 409.767 384.035 412.754 385.761 414.73C395.2 425.538 405.084 434.807 416.88 443.029C474.251 483.022 553.018 488.449 619.029 469.973C645.767 462.489 670.339 450.257 692.121 433.045C697.123 429.093 706.459 419.062 711.296 416.898L715.811 408.98C716.313 409.138 716.846 409.248 717.293 409.527C712.757 418.349 708.102 426.807 702.121 434.771C679.289 465.175 643.377 488.181 607.426 499.765C596.329 503.34 584.738 506.035 573.162 507.443C567.042 508.187 560.438 508.206 554.43 509.357C552.743 509.68 552.168 510.437 551.3 511.819L549.109 512.442Z"/>
	<defs>
		<linearGradient id="gradient_2" gradientUnits="userSpaceOnUse" x1="549.50269" y1="437.78299" x2="545.57727" y2="509.75879">
			<stop offset="0" stop-color="black"/>
			<stop offset="1" stop-color="#01001B"/>
		</linearGradient>
	</defs>
	<path fill="url(#gradient_2)" d="M549.109 512.442C548.792 511.42 548.87 511.796 548.704 510.821C548.668 510.606 548.637 510.391 548.603 510.176C546.498 508.652 542.532 509.35 539.973 509.283C489.511 507.953 438.26 483.683 403.98 446.991C395.488 437.902 371.862 405.606 372.255 393.375C374.348 398.349 376.367 403.371 378.709 408.234C399.805 450.237 444.541 481.742 488.424 496.304C535.63 511.968 590.402 507.479 634.791 485.126C659.327 472.771 700.762 443.072 711.296 416.898L715.811 408.98C716.313 409.138 716.846 409.248 717.293 409.527C712.757 418.349 708.102 426.807 702.121 434.771C679.289 465.175 643.377 488.181 607.426 499.765C596.329 503.34 584.738 506.035 573.162 507.443C567.042 508.187 560.438 508.206 554.43 509.357C552.743 509.68 552.168 510.437 551.3 511.819L549.109 512.442Z"/>
	<path fill="#C6CECD" d="M308.774 427.56C316.326 439.222 325.945 449.599 335.243 459.864L362.438 489.507C404.091 534.044 447.281 577.209 490.671 620.05C499.712 606.576 507.289 592.204 515.47 578.204C527.291 557.976 539.418 537.903 550.622 517.322C556.965 527.381 562.516 538.25 568.516 548.555L612.693 624.487L689.273 545.033C724.098 508.673 758.373 472.233 788.379 431.702C789.406 446.707 789.698 461.396 788.098 476.382C783.042 523.737 761.864 569.177 728.842 603.513C718.514 614.252 707.171 623.353 695.615 632.693C688.151 636.688 681.359 641.697 673.559 645.099L673.476 647.026C676.984 648.916 680.04 651.935 682.859 654.719C693.728 665.45 702.011 678.231 706.456 692.888C707.996 697.964 708.809 702.961 709.414 708.224C709.309 714.45 706.8 720.934 702.984 725.796L705.106 726.737C703.279 728.725 701.037 730.613 698.337 731.218C691.208 732.817 690.423 724.723 686.184 721.862L684.77 722.501C685.202 728.055 683.797 736.375 687.878 740.751C689.755 742.764 692.573 743.165 695.193 743.136C702.819 743.05 711.291 741.516 718.715 739.848C760.366 730.492 796.297 704.644 825.43 674.278C830.927 668.548 835.804 662.306 840.698 656.064C843.189 652.888 845.668 649.178 848.552 646.369C848.777 646.15 849.007 645.935 849.235 645.718C834.421 716.064 788.168 781.738 728.147 820.976C658.019 866.821 570.549 881.677 488.888 864.381C413.296 848.371 346.148 806.112 303.883 740.841C289.663 718.881 278.493 695.703 270.807 670.701C271.423 670.915 271.659 670.956 272.248 671.399C275.572 673.898 278.698 678.407 281.662 681.49C285.926 685.925 290.558 690.109 295.155 694.193C323.492 719.376 370.636 750.337 409.856 747.819C416.206 747.412 422.916 746.334 428.668 743.473C431.253 742.187 434.244 740.303 435.155 737.38C435.715 735.58 435.433 733.42 434.512 731.783C433.62 730.197 432.075 728.761 430.797 727.46C432.231 724.911 433.207 721.979 434.3 719.261C438.611 723.796 445.012 728.652 451.559 728.733C454.211 728.766 456.611 727.816 458.475 725.926C463.246 721.088 462.576 713.689 462.455 707.459C466.585 706.854 471.552 706.111 475.067 703.749C478.5 701.443 479.6 698.486 480.434 694.622C477.87 685.438 471.273 679.389 464.802 672.803C466.936 671.987 469.078 671.176 471.175 670.27C474.561 668.808 480.34 666.199 481.454 662.39C481.833 661.094 481.833 659.977 481.11 658.794C478.791 655.001 471.262 653.454 467.237 652.454C462.288 651.225 445.17 647.553 440.91 650.135C440.946 649.171 440.751 648.097 440.667 647.128C441.513 646.602 442.051 646.078 442.702 645.327C442.292 643.865 441.223 643.614 439.979 642.83C433.381 638.065 425.686 634.865 418.712 630.679C408.255 624.403 398.643 616.537 389.6 608.386C350.968 573.565 323.772 523.576 313.674 472.683C310.723 457.815 309.553 442.677 308.774 427.56Z"/>
	<path fill="#FEFEFE" d="M547.48 561.994C552.175 560.441 557.981 559.495 562.66 561.76C562.846 561.85 563.016 561.97 563.193 562.076L563.188 562.599C561.907 562.996 560.728 563.031 559.403 563.076C555.521 563.066 551.334 563.373 547.506 562.756L547.48 561.994Z"/>
	<path fill="#000001" d="M539.402 610.793C536.711 610.379 532.751 610.059 530.922 607.804C529.698 606.296 529.159 602.97 529.71 601.115C530.05 599.971 530.988 599.207 532.072 598.809C536.021 597.358 542.824 599.056 546.929 599.578C557.53 600.928 565.683 598.708 575.151 599.264C577.043 599.375 579.113 599.754 580.774 600.706C581.608 601.184 582.062 601.721 582.564 602.544C582.879 604.263 582.667 605.389 581.71 606.825C580.86 608.101 579.809 609.137 578.672 610.153C576.697 610.371 574.723 610.603 572.742 610.754C569.056 610.334 564.355 611.155 560.565 611.283C553.479 611.52 546.47 611.308 539.402 610.793Z"/>
	<path fill="#294C73" d="M534.003 601.081C534.581 601.051 535.163 601.022 535.742 601.019C542.494 600.983 549.304 601.777 556.07 601.926C562.703 602.071 569.347 601.529 575.975 601.947C577.079 602.017 578.769 602.003 579.575 602.775C579.551 602.915 579.546 603.06 579.504 603.196C578.979 604.9 577.045 606.171 575.622 607.079C565.855 610.253 545.168 610.901 535.73 606.702C534.025 605.944 532.997 605.151 532.329 603.395C532.649 602.12 533.007 601.973 534.003 601.081Z"/>
	<path fill="#000001" d="M559.403 563.076C560.936 563.111 562.502 563.116 564.027 563.276C569.132 563.812 574.659 566.963 577.862 570.899C580.578 574.236 582.025 578.547 581.496 582.855C580.962 587.211 578.352 590.8 574.832 593.298C567.005 598.852 554.957 599.919 545.763 598.128C540.07 597.019 534.062 594.463 530.874 589.369C528.555 585.663 527.921 581.078 528.879 576.838C530.092 571.471 534.057 566.195 538.822 563.451C540.872 562.271 544.586 560.838 546.92 561.699C547.118 561.772 547.293 561.896 547.48 561.994L547.506 562.756C551.334 563.373 555.521 563.066 559.403 563.076Z"/>
	<path fill="#294C73" d="M552.49 564.207C559.13 564.295 565.49 564.877 571.233 568.609C574.782 570.915 577.83 574.382 578.662 578.633C579.273 581.756 578.544 584.811 576.709 587.401C572.237 593.708 564.427 595.28 557.317 596.487C550.437 596.651 543.173 595.827 537.436 591.649C534.176 589.275 531.866 585.872 531.26 581.85C530.714 578.231 531.841 574.663 534.155 571.859C538.716 566.329 545.733 564.835 552.49 564.207Z"/>
	<path fill="#FEFEFE" d="M644.762 675.088C639.152 672.115 630.043 670.095 626.357 664.747C626.278 663.881 626.083 663.412 626.503 662.604C630.202 655.489 650.311 652.648 657.75 650.549C663.132 649.03 668.367 647.168 673.559 645.099L673.476 647.026C676.984 648.916 680.04 651.935 682.859 654.719C693.728 665.45 702.011 678.231 706.456 692.888C707.996 697.964 708.809 702.961 709.414 708.224C709.309 714.45 706.8 720.934 702.984 725.796L705.106 726.737C703.279 728.725 701.037 730.613 698.337 731.218C691.208 732.817 690.423 724.723 686.184 721.862L684.77 722.501C677.579 728.029 669.776 733.362 660.373 733.733C658.603 733.803 656.652 733.463 655.411 732.07C654.466 731.009 654.103 729.678 654.152 728.304L655.297 729.059L655.704 728.935L655.461 728.235C654.777 727.952 654.212 727.647 653.599 727.233C652.3 721.916 655.626 715.603 657.585 710.703C650.38 710.681 639.694 711.398 633.535 706.907C631.926 705.734 630.766 704.08 630.466 702.09C629.151 693.391 639.88 681.84 644.762 675.088Z"/>
	<path fill="#000001" d="M644.762 675.088C639.152 672.115 630.043 670.095 626.357 664.747C626.278 663.881 626.083 663.412 626.503 662.604C630.202 655.489 650.311 652.648 657.75 650.549C663.132 649.03 668.367 647.168 673.559 645.099L673.476 647.026C673.218 647.188 672.962 647.354 672.701 647.513C668.449 650.1 662.473 651.889 657.681 653.174C651.842 654.74 631.531 657.68 629.318 663.248C629.737 664.996 630.833 665.705 632.38 666.627C637.276 669.545 642.722 671.204 647.517 674.387C647.43 674.57 647.345 674.755 647.255 674.937C644.333 680.867 630.85 697.048 632.885 702.739C633.547 704.589 635.37 705.627 637.109 706.273C644.238 708.92 652.973 708.542 660.49 708.526C658.975 713.405 654.288 723.894 656.592 728.469C657.312 729.9 658.73 730.889 660.26 731.285C665.11 732.542 671.829 728.582 675.817 726.053C679.412 723.774 682.818 720.371 686.774 718.871C688.344 719.212 688.937 720.434 689.836 721.744C691.762 724.552 692.829 727.198 695.457 729.563C698.781 728.867 700.591 728.386 702.984 725.796L705.106 726.737C703.279 728.725 701.037 730.613 698.337 731.218C691.208 732.817 690.423 724.723 686.184 721.862L684.77 722.501C677.579 728.029 669.776 733.362 660.373 733.733C658.603 733.803 656.652 733.463 655.411 732.07C654.466 731.009 654.103 729.678 654.152 728.304L655.297 729.059L655.704 728.935L655.461 728.235C654.777 727.952 654.212 727.647 653.599 727.233C652.3 721.916 655.626 715.603 657.585 710.703C650.38 710.681 639.694 711.398 633.535 706.907C631.926 705.734 630.766 704.08 630.466 702.09C629.151 693.391 639.88 681.84 644.762 675.088Z"/>
	<path fill="#000001" d="M539.402 610.793C546.47 611.308 553.479 611.52 560.565 611.283C564.355 611.155 569.056 610.334 572.742 610.754L573.054 613.225C575.486 618.459 575.727 624.435 576.871 630.021C578.618 638.553 580.669 646.959 582.272 655.534C587.751 684.834 596.064 722.307 609.431 748.732C612.055 749.456 615.316 750.127 616.991 752.491C617.682 753.466 617.461 754.315 617.245 755.388C617.215 755.536 616.987 756.566 616.985 756.752C616.962 758.621 621.681 762.615 622.957 764.433C624.85 767.13 626.067 770.413 625.286 773.719C624.393 777.498 621.214 780.217 617.979 782.065C596.487 794.344 531.64 793.103 507.718 786.378C501.628 784.666 493.59 781.958 490.507 775.975C489.056 773.16 489.069 770.01 490.034 767.041C491.292 763.168 494.051 759.069 497.676 757.113C499.486 753.283 500.031 751.023 504.071 749.175C505.606 748.472 508.094 741.005 508.899 739.024C519.496 712.927 524.842 685.292 529.964 657.721C531.642 648.689 535.134 620.239 538.622 613.312L539.402 610.793Z"/>
	<path fill="#FEFEFE" d="M539.402 610.793C546.47 611.308 553.479 611.52 560.565 611.283C564.355 611.155 569.056 610.334 572.742 610.754L573.054 613.225C561.285 616 550.47 614.861 538.622 613.312L539.402 610.793Z"/>
	<path fill="#94B0B4" d="M612.104 752.047L613.281 752.4C614.249 753.488 614.452 753.593 614.621 755.017C614.056 755.898 613.465 756.353 612.574 756.87C607.364 759.891 600.6 761.086 594.744 762.315C564.756 768.611 534.277 766.416 504.81 758.565C503.936 758.218 503.456 757.854 502.724 757.283C502.264 755.984 502.149 755.862 502.527 754.557C503.3 754.039 503.579 753.709 504.535 753.615C509.877 753.088 523.43 757.372 529.864 758.304C558.063 762.389 584.691 758.893 612.104 752.047Z"/>
	<path fill="#294C73" d="M615.983 761.533C616.103 761.553 616.23 761.549 616.343 761.594C618.92 762.609 620.528 764.807 621.756 767.195C622.842 769.307 623.419 771.663 622.595 773.969C621.535 776.932 618.662 778.799 615.945 780.079C597.799 788.626 551.928 789.462 531.713 787.088C521.096 785.841 510.999 783.506 500.889 780.057C498.803 779.232 496.805 778.073 495.419 776.27C493.79 774.152 493.012 771.542 493.492 768.889C494.136 765.333 496.007 763.866 498.841 761.878C526.347 772.865 561.224 774.247 590.218 768.772C599.023 767.109 607.508 764.384 615.983 761.533Z"/>
	<path fill="#294C73" d="M540.248 615.878C550.755 617.104 561.017 617.213 571.573 616.985C581.331 663.137 588.194 706.937 607.493 750.632C596.123 753.235 585.002 755.268 573.385 756.441C550.961 758.471 529 756.316 507.256 750.797C526.594 707.249 531.605 662.079 540.248 615.878Z"/>
	<path fill="#FEFEFE" d="M545.781 647.354C547.54 647.379 549.834 648.217 550.993 649.604C551.957 650.759 552.33 652.005 552.292 653.484C552.22 656.22 550.654 658.13 548.805 659.969C546.398 659.566 544.454 659.379 542.822 657.365C541.921 656.254 541.496 654.958 541.65 653.516C541.96 650.626 543.673 649.147 545.781 647.354Z"/>
	<path fill="#FEFEFE" d="M541.173 717.827C543.358 718.227 545.059 718.612 546.658 720.251C547.993 721.62 548.692 723.365 548.545 725.278C548.342 727.915 546.963 729.144 545.06 730.758C542.688 730.582 540.79 730.111 539.041 728.401C537.846 727.232 537.283 725.665 537.381 724.004C537.547 721.206 539.213 719.62 541.173 717.827Z"/>
	<path fill="#FEFEFE" d="M568.452 687.898C570.45 688.134 572.573 688.533 574.101 689.954C575.319 691.086 575.841 692.564 575.766 694.193C575.624 697.223 573.802 699.029 571.694 700.976C571.364 700.985 571.033 700.994 570.704 700.981C568.699 700.904 566.807 700.317 565.471 698.733C564.403 697.467 564.082 695.863 564.254 694.254C564.578 691.216 566.13 689.681 568.452 687.898Z"/>
	<path fill="#294C73" d="M858.072 534.048C858.13 533.795 858.196 533.543 858.244 533.287C858.649 531.131 857.743 528.22 857.14 526.119L857.765 525.77C861.33 527.507 868.872 545.327 874.328 547.49C880.805 555.444 885.82 564.795 890.82 573.705C914.148 615.271 928.767 665.141 930.557 712.844C931.018 725.123 930.189 737.215 928.938 749.42C923.715 800.344 903.505 847.885 870.337 886.864C859.218 899.931 847.02 911.564 834.453 923.196C840.535 930.15 845.892 937.964 845.104 947.692C844.713 952.524 842.737 956.911 838.95 960.013C836.034 962.402 832.376 963.839 828.665 964.384C823.533 965.137 818.129 964.851 812.945 964.847L785.414 964.734C770.911 964.742 755.735 966.347 741.343 964.483C737.383 963.97 733.06 962.803 730.456 959.547C728.263 956.806 727.69 952.591 725.542 950.19C711.452 952.271 695.982 951.499 681.757 951.241C669.802 951.024 657.851 951.025 645.895 951.005L477.329 950.791L419.538 951.285C412.731 951.365 399.071 952.328 393.111 951.127C390.598 948.818 387.017 948.709 383.781 948.226C382.325 943.397 380.552 938.951 377.691 934.757C368.004 920.554 350.249 910.843 333.632 907.776C315.872 904.498 301.46 909.379 286.931 919.368L280.976 915.165C278.905 912.984 276.009 911.079 273.663 909.165C268.218 904.723 262.742 900.287 257.656 895.433C225.773 865.001 203.946 827.216 191.809 784.927C188.864 774.667 185.727 763.85 185.476 753.133C184.683 744.854 184.224 736.327 182.697 728.157C181.628 723.819 182.152 718.619 182.889 714.247C183.293 709.164 183.371 704.033 183.566 698.937C184.184 685.947 186.122 671.441 191.313 659.404C190.42 658.843 190.646 659.138 190.154 658.3C189.706 657.538 189.275 656.768 188.819 656.009C192.287 650.904 193.706 643.884 195.726 638.08C197.632 632.605 199.705 627.21 201.958 621.869C208.467 606.007 217.907 587.096 228.233 573.528C229.241 571.314 231.063 569.143 232.441 567.117C235.498 561.711 239.165 555.825 243.559 551.414C244.481 551.633 245.41 551.906 246.352 552.007C246.401 566.157 248.425 578.341 252.861 591.781C254.805 597.671 257.233 603.486 258.694 609.518C255.812 614.823 265.498 655.016 267.805 662.888C268.582 665.544 269.385 668.311 270.807 670.701C278.493 695.703 289.663 718.881 303.883 740.841C346.148 806.112 413.296 848.371 488.888 864.381C570.549 881.677 658.019 866.821 728.147 820.976C788.168 781.738 834.421 716.064 849.235 645.718C849.007 645.935 848.777 646.15 848.552 646.369C845.668 649.178 843.189 652.888 840.698 656.064C835.804 662.306 830.927 668.548 825.43 674.278C796.297 704.644 760.366 730.492 718.715 739.848C711.291 741.516 702.819 743.05 695.193 743.136C692.573 743.165 689.755 742.764 687.878 740.751C683.797 736.375 685.202 728.055 684.77 722.501L686.184 721.862C690.423 724.723 691.208 732.817 698.337 731.218C701.037 730.613 703.279 728.725 705.106 726.737L702.984 725.796C706.8 720.934 709.309 714.45 709.414 708.224C709.457 707.091 709.428 705.958 709.85 704.888C710.155 704.112 710.727 704.186 711.458 703.941C711.597 708.021 711.551 711.968 710.967 716.013C711.286 715.973 711.605 715.937 711.923 715.893C723.027 714.359 734.643 709.477 744.699 704.646C777.469 688.903 806.695 665.816 828.954 636.97C853.238 605.5 863.174 573.811 858.072 534.048ZM188.819 656.009C189.275 656.768 189.706 657.538 190.154 658.3C190.646 659.138 190.42 658.843 191.313 659.404C195.212 647.645 198.546 635.955 203.603 624.583L202.359 624.085L201.958 621.869C199.705 627.21 197.632 632.605 195.726 638.08C193.706 643.884 192.287 650.904 188.819 656.009Z"/>
	<path fill="#04041F" d="M232.441 567.117C235.498 561.711 239.165 555.825 243.559 551.414C244.481 551.633 245.41 551.906 246.352 552.007C243.806 555.308 237.066 566.304 232.986 567.048C232.806 567.081 232.623 567.094 232.441 567.117Z"/>
	<path fill="#0E0D18" fill-opacity="0.98823529" d="M188.819 656.009C192.287 650.904 193.706 643.884 195.726 638.08C197.632 632.605 199.705 627.21 201.958 621.869L202.359 624.085L203.603 624.583C198.546 635.955 195.212 647.645 191.313 659.404C190.42 658.843 190.646 659.138 190.154 658.3C189.706 657.538 189.275 656.768 188.819 656.009Z"/>
	<path fill="#04041F" d="M201.958 621.869C208.467 606.007 217.907 587.096 228.233 573.528C228.524 577.273 223.113 583.913 221.268 587.53C215.056 599.706 209.819 612.415 203.603 624.583L202.359 624.085L201.958 621.869Z"/>
	<path fill="#FEFEFE" d="M183.566 698.937C187.151 697.412 231.567 709.84 237.621 712.252C219.39 713.152 201.098 713.242 182.889 714.247C183.293 709.164 183.371 704.033 183.566 698.937Z"/>
	<path fill="#FEFEFE" d="M878.243 709.069C886.159 706.34 918.366 695.6 925.364 695.534C925.775 703.199 926.22 710.864 926.447 718.538C922.616 718.603 918.119 717.243 914.343 716.527C902.256 714.237 890.291 711.518 878.243 709.069Z"/>
	<path fill="#FEFEFE" d="M872.467 741.68C882.859 738.133 893.512 735.468 904.152 732.787C911.491 730.937 918.928 728.739 926.473 727.991C926.139 736.564 925.554 745.092 924.866 753.644C921.421 752.813 917.985 751.901 914.47 751.417C912.814 750.606 910.163 750.279 908.314 749.758C896.473 746.415 884.659 743.481 872.467 741.68Z"/>
	<path fill="#FEFEFE" d="M182.697 728.157C190.71 726.877 233.362 738.142 243.664 740.501C227.413 745.055 201.881 751.601 185.476 753.133C184.683 744.854 184.224 736.327 182.697 728.157Z"/>
	<defs>
		<linearGradient id="gradient_3" gradientUnits="userSpaceOnUse" x1="737.15466" y1="571.16345" x2="879.38287" y2="944.44617">
			<stop offset="0" stop-color="black"/>
			<stop offset="1" stop-color="#030321"/>
		</linearGradient>
	</defs>
	<path fill="url(#gradient_3)" d="M858.072 534.048C858.13 533.795 858.196 533.543 858.244 533.287C858.649 531.131 857.743 528.22 857.14 526.119L857.765 525.77C861.33 527.507 868.872 545.327 874.328 547.49C880.805 555.444 885.82 564.795 890.82 573.705C914.148 615.271 928.767 665.141 930.557 712.844C931.018 725.123 930.189 737.215 928.938 749.42C923.715 800.344 903.505 847.885 870.337 886.864C859.218 899.931 847.02 911.564 834.453 923.196C840.535 930.15 845.892 937.964 845.104 947.692C844.713 952.524 842.737 956.911 838.95 960.013C836.034 962.402 832.376 963.839 828.665 964.384C823.533 965.137 818.129 964.851 812.945 964.847L785.414 964.734C770.911 964.742 755.735 966.347 741.343 964.483C737.383 963.97 733.06 962.803 730.456 959.547C728.263 956.806 727.69 952.591 725.542 950.19C724.688 949.219 724.153 949.139 722.917 948.697L726.622 948.372C729.973 941.073 733.663 935.067 739.223 929.217C753.32 914.387 772.301 905.925 792.781 905.44C807.826 905.085 820.485 910.752 831.275 921.011C869.74 887.138 900.317 845.522 915.516 796.203C919.725 782.544 922.279 768.742 924.787 754.708C921.351 753.543 917.586 753.418 914.47 751.417C917.985 751.901 921.421 752.813 924.866 753.644C925.554 745.092 926.139 736.564 926.473 727.991C926.771 724.836 926.579 721.697 926.447 718.538C926.22 710.864 925.775 703.199 925.364 695.534C925.585 685.509 922.843 675.215 920.687 665.471C910.345 618.737 890.738 573.248 861.631 535.049C862.856 543.803 863.269 553.085 862.601 561.89C862.098 568.516 861.019 575.107 860.658 581.742C859.849 596.616 860.043 611.479 857.066 626.153C856.173 630.552 854.732 638.063 850.802 640.658L849.235 645.718C849.007 645.935 848.777 646.15 848.552 646.369C845.668 649.178 843.189 652.888 840.698 656.064C835.804 662.306 830.927 668.548 825.43 674.278C796.297 704.644 760.366 730.492 718.715 739.848C711.291 741.516 702.819 743.05 695.193 743.136C692.573 743.165 689.755 742.764 687.878 740.751C683.797 736.375 685.202 728.055 684.77 722.501L686.184 721.862C690.423 724.723 691.208 732.817 698.337 731.218C701.037 730.613 703.279 728.725 705.106 726.737L702.984 725.796C706.8 720.934 709.309 714.45 709.414 708.224C709.457 707.091 709.428 705.958 709.85 704.888C710.155 704.112 710.727 704.186 711.458 703.941C711.597 708.021 711.551 711.968 710.967 716.013C711.286 715.973 711.605 715.937 711.923 715.893C723.027 714.359 734.643 709.477 744.699 704.646C777.469 688.903 806.695 665.816 828.954 636.97C853.238 605.5 863.174 573.811 858.072 534.048Z"/>
	<path fill="#94B0B4" d="M772.271 960.167C772.141 960.208 772.014 960.258 771.882 960.291C765.044 962.031 741.69 961.399 735.892 957.488C733.68 955.996 732.016 953.8 731.618 951.117C730.77 945.406 735.095 940.254 738.181 935.938C745.372 942.879 760.201 946.421 770.01 945.984C771.241 945.93 772.454 945.75 773.654 945.475C773.604 950.509 773.069 955.21 772.271 960.167Z"/>
	<path fill="#FEFEFE" d="M738.181 935.938C752.833 920.329 769.3 909.579 791.346 908.869C805.243 908.421 818.165 913.748 828.208 923.288C834.182 928.963 837.957 935.444 840.895 943.066C841.221 947.589 841.24 951.46 838.082 955.102C834.353 959.405 828.192 960.889 822.703 961.12C819.995 961.234 815.534 961.442 813.043 960.508L811.918 959.828C808.863 961.834 778.852 961.591 774.038 960.605C773.889 960.575 773.744 960.529 773.597 960.491L772.271 960.167C773.069 955.21 773.604 950.509 773.654 945.475C772.454 945.75 771.241 945.93 770.01 945.984C760.201 946.421 745.372 942.879 738.181 935.938Z"/>
	<path fill="#000001" d="M770.107 924.614C774.981 931.3 776.58 936.786 776.972 944.936C776.298 950.156 775.753 955.638 773.597 960.491L772.271 960.167C773.069 955.21 773.604 950.509 773.654 945.475L773.544 942.493C773.373 936.458 771.56 930.459 770.107 924.614Z"/>
	<path fill="#000001" d="M806.748 922.821C811.199 927.974 816.729 934.463 816.42 941.75C817.103 948.565 815.384 954.169 813.043 960.508L811.918 959.828C812.783 955.14 813.657 950.65 813.681 945.864C813.188 937.503 810.532 930.208 806.748 922.821Z"/>
	<path fill="#94B0B4" d="M816.42 941.75C816.795 942.985 816.826 943.954 817.861 944.775C823.062 944.9 836.402 944.774 840.895 943.066C841.221 947.589 841.24 951.46 838.082 955.102C834.353 959.405 828.192 960.889 822.703 961.12C819.995 961.234 815.534 961.442 813.043 960.508C815.384 954.169 817.103 948.565 816.42 941.75Z"/>
	<path fill="#94B0B4" d="M776.972 944.936C786.273 948.911 803.953 947.709 813.681 945.864C813.657 950.65 812.783 955.14 811.918 959.828C808.863 961.834 778.852 961.591 774.038 960.605C773.889 960.575 773.744 960.529 773.597 960.491C775.753 955.638 776.298 950.156 776.972 944.936Z"/>
	<path fill="#94B0B4" d="M857.574 588.231C857.375 605.852 853.672 623.342 850.802 640.658L849.235 645.718C849.007 645.935 848.777 646.15 848.552 646.369C845.668 649.178 843.189 652.888 840.698 656.064C835.804 662.306 830.927 668.548 825.43 674.278C796.297 704.644 760.366 730.492 718.715 739.848C711.291 741.516 702.819 743.05 695.193 743.136C692.573 743.165 689.755 742.764 687.878 740.751C683.797 736.375 685.202 728.055 684.77 722.501L686.184 721.862C690.423 724.723 691.208 732.817 698.337 731.218C701.037 730.613 703.279 728.725 705.106 726.737C707.367 724.815 708.956 722.161 710.538 719.692C719.512 716.116 729.052 714.435 738.02 710.6C779.942 692.674 819.632 661.86 842.556 621.888C848.709 611.159 852.988 599.674 857.574 588.231Z"/>
</svg>
