<?xml version="1.0" encoding="utf-8" ?>
<svg xmlns="http://www.w3.org/2000/svg" xmlns:xlink="http://www.w3.org/1999/xlink" width="1024" height="1024">
	<path fill="#638294" d="M488.364 62.343C487.887 60.1617 487.61 58.0082 487.662 55.7691C487.817 49.0831 490.529 42.8929 495.369 38.2792C500.288 33.5909 507.103 30.7584 513.936 31.0775C520.8 31.3982 527.464 35.0202 532.043 40.0731C537.256 45.8261 539.351 52.9762 538.963 60.6035C536.896 66.3551 534.714 71.1405 530.517 75.6705L531.301 76.6793C529.382 79.1932 527.235 81.2429 524.514 82.8724C519.901 84.3496 515.375 85.1553 510.515 84.5388C504.545 83.7816 498.526 80.9268 494.79 76.1085L495.163 75.3045C492.123 71.0849 489.999 67.2964 488.364 62.343Z"/>
	<path fill="#B8CCD8" d="M503.154 33.9962C504.617 33.9626 506.039 33.966 507.484 34.236C509.164 34.5501 511.054 35.1611 511.888 36.8074C512.526 38.0664 512.318 39.5178 511.903 40.8023C509.779 47.3709 503.883 51.2879 498.133 54.371C496.497 54.7458 494.772 55.1475 493.084 54.9234C491.764 54.7481 490.989 54.2278 490.143 53.2157C489.705 51.9417 489.649 51.0983 489.966 49.8105C491.739 42.6124 497.181 37.7847 503.154 33.9962Z"/>
	<path fill="#246B97" d="M488.364 62.343C495.433 61.2985 502.313 57.821 509.471 56.5275C518.735 54.8531 530.943 55.0459 538.963 60.6035C536.896 66.3551 534.714 71.1405 530.517 75.6705L531.301 76.6793C529.382 79.1932 527.235 81.2429 524.514 82.8724C519.901 84.3496 515.375 85.1553 510.515 84.5388C504.545 83.7816 498.526 80.9268 494.79 76.1085L495.163 75.3045C492.123 71.0849 489.999 67.2964 488.364 62.343Z"/>
	<path fill="#294D73" d="M495.163 75.3045C495.328 75.3304 495.493 75.3547 495.658 75.3822C498.606 75.8752 501.338 76.94 504.236 77.6098C513.324 79.7106 521.729 78.5367 530.517 75.6705L531.301 76.6793C529.382 79.1932 527.235 81.2429 524.514 82.8724C519.901 84.3496 515.375 85.1553 510.515 84.5388C504.545 83.7816 498.526 80.9268 494.79 76.1085L495.163 75.3045Z"/>
	<path fill="#294D73" d="M363.542 318.017C359.156 310.764 356.391 301.885 353.611 293.886C348.156 278.19 343.288 262.23 339.566 246.027C336.599 233.111 334.451 219.956 331.27 207.097C329.895 201.539 325.204 192.898 326.07 187.354C326.868 186.528 327.527 186.102 328.662 185.833C334.526 184.441 342.588 186.756 348.438 187.976C366.862 191.82 384.093 196.475 401.29 204.197C404.892 205.815 408.639 207.299 412.05 209.29C413.626 214.173 416.602 218.842 418.474 223.703C416.812 227.697 415.775 231.954 414.611 236.114C412.847 240.078 412.206 245.014 409.783 248.565L409.128 254.29C403.825 256.667 392.05 260.696 390.076 266.565C389.448 268.429 389.882 270.294 390.847 271.954C393.139 275.897 397.737 278.706 401.572 281.004C399.514 281.026 397.465 280.914 395.411 280.818L394.192 281.959C387.508 288.045 382.147 294.7 376.025 301.253C371.233 306.339 368.601 313.243 363.542 318.017Z"/>
	<path fill="#8EADC2" d="M348.122 207.01C375.771 212.406 391.573 219.663 414.611 236.114C412.847 240.078 412.206 245.014 409.783 248.565L409.128 254.29C403.825 256.667 392.05 260.696 390.076 266.565C389.448 268.429 389.882 270.294 390.847 271.954C393.139 275.897 397.737 278.706 401.572 281.004C399.514 281.026 397.465 280.914 395.411 280.818L394.192 281.959C387.508 288.045 382.147 294.7 376.025 301.253C373.054 293.674 368.669 286.713 365.811 278.992C357.188 255.695 352.781 231.327 348.122 207.01Z"/>
	<path fill="#246B97" d="M409.783 248.565L409.128 254.29C403.825 256.667 392.05 260.696 390.076 266.565C389.448 268.429 389.882 270.294 390.847 271.954C393.139 275.897 397.737 278.706 401.572 281.004C399.514 281.026 397.465 280.914 395.411 280.818C391.405 277.856 388.191 277.365 386.052 272.215C385.003 269.688 385.017 267.015 386.073 264.494C389.777 255.656 401.62 251.823 409.783 248.565Z"/>
	<path fill="#246B97" d="M531.301 76.6793C538.7 83.4483 546.478 89.7833 553.889 96.5437C567.875 109.302 581.447 122.473 595.188 135.489C603.551 143.411 613.223 151.051 620.285 160.134C623.045 163.683 625.434 167.599 625.583 172.208C625.904 182.129 620.359 191.52 616.548 200.337C614.831 204.307 613.471 208.409 611.692 212.355C611.875 215.269 606.255 223.922 605.001 227.122C600.294 226.804 588.838 230.685 583.43 231.593C565.055 234.676 537.324 238.049 518.967 236.606C520.506 236.61 522.561 236.797 523.952 236.067C534.698 230.425 544.304 215.692 547.758 204.358C558.223 170.023 540.662 113.583 524.514 82.8724C527.235 81.2429 529.382 79.1932 531.301 76.6793Z"/>
	<path fill="#294D73" d="M611.692 212.355C611.922 212.266 612.152 212.179 612.38 212.087C617.572 209.995 622.318 206.24 627.431 203.819C646.107 194.977 662.263 189.761 682.49 185.914C686.054 185.236 692.401 183.272 695.788 184.607C696.815 185.012 697.552 185.678 697.79 186.783C699.089 192.796 669.857 303.286 665.507 317.631C670.888 324.711 677.441 330.215 681.738 338.14C681.2 341.762 679.588 344.431 676.677 346.693C670.073 351.825 658.116 352.047 650.177 350.857C640.397 349.391 630.783 345.215 622.329 340.191L621.154 339.227C621.289 327.414 616.42 313.276 610.962 302.847C609.208 299.496 606.228 296.806 605.046 293.136C609.771 292.065 614.712 290.665 619.164 288.733C623.729 286.753 626.164 285 627.966 280.366L628.139 279.963L627.141 278.197C628.807 276.796 630.49 275.36 631.948 273.74C634.889 270.475 635.138 267.797 634.951 263.663C634.359 262.521 633.734 261.422 632.896 260.439C628.004 254.704 619.62 252.232 612.373 251.673C611.613 250.029 611.417 248.251 611.125 246.48C610.595 243.717 609.553 241.084 608.621 238.436C607.087 234.875 606.503 230.807 605.001 227.122C606.255 223.922 611.875 215.269 611.692 212.355Z"/>
	<path fill="#B8CCD8" d="M611.974 236.016C630.697 221.99 652.548 208.408 676.371 206.259L661.982 262.938C657.9 256.632 653.774 250.604 648.24 245.465C641.917 239.594 633.438 234.63 624.565 234.899C620.563 235.02 616.636 235.899 612.615 236.004L611.974 236.016Z"/>
	<path fill="#8EADC2" d="M611.974 236.016L612.615 236.004C616.636 235.899 620.563 235.02 624.565 234.899C633.438 234.63 641.917 239.594 648.24 245.465C653.774 250.604 657.9 256.632 661.982 262.938C658.644 276.078 655.051 289.347 652.589 302.682C644.694 294.444 637.24 287.078 627.966 280.366L628.139 279.963L627.141 278.197C628.807 276.796 630.49 275.36 631.948 273.74C634.889 270.475 635.138 267.797 634.951 263.663C634.359 262.521 633.734 261.422 632.896 260.439C628.004 254.704 619.62 252.232 612.373 251.673C611.613 250.029 611.417 248.251 611.125 246.48C610.595 243.717 609.553 241.084 608.621 238.436C609.431 237.515 610.939 236.719 611.974 236.016Z"/>
	<path fill="#294D73" d="M611.125 246.48C611.359 246.596 611.592 246.715 611.828 246.829C620.311 250.919 635.182 252.004 638.873 262.607C639.844 265.397 639.315 268.568 637.912 271.122C635.968 274.659 631.843 278.279 628.139 279.963L627.141 278.197C628.807 276.796 630.49 275.36 631.948 273.74C634.889 270.475 635.138 267.797 634.951 263.663C634.359 262.521 633.734 261.422 632.896 260.439C628.004 254.704 619.62 252.232 612.373 251.673C611.613 250.029 611.417 248.251 611.125 246.48Z"/>
	<path fill="#638294" d="M494.79 76.1085C498.526 80.9268 504.545 83.7816 510.515 84.5388C515.375 85.1553 519.901 84.3496 524.514 82.8724C540.662 113.583 558.223 170.023 547.758 204.358C544.304 215.692 534.698 230.425 523.952 236.067C522.561 236.797 520.506 236.61 518.967 236.606C491.484 236.524 464.217 235.371 437.188 230.067C431.093 228.871 423.106 228.107 418.474 223.703C416.602 218.842 413.626 214.173 412.05 209.29C409.828 196.474 399.266 188.419 400.469 172.955C400.857 167.973 403.167 163.468 406.161 159.55C416.707 145.751 431.734 134.158 444.441 122.377C461.107 106.925 477.434 90.7706 494.79 76.1085Z"/>
	<path fill="#8EADC2" d="M493.193 102.538C498.251 102.235 503.307 103.465 507.662 106.057C513.814 109.718 518.034 115.894 519.805 122.767C521.783 130.443 520.79 138.767 516.56 145.53C512.198 152.506 506.027 155.61 498.326 157.503C492.928 157.634 487.889 157.308 483.024 154.688C476.852 151.363 472.553 145.316 470.726 138.614C468.6 130.812 469.907 122.309 474.072 115.405C478.516 108.038 485.211 104.625 493.193 102.538Z"/>
	<path fill="#8EADC2" d="M553.358 343.545C560.451 335.793 567.336 330.359 577.849 328.123C593.833 324.724 607.943 330.741 621.154 339.227L622.329 340.191C630.783 345.215 640.397 349.391 650.177 350.857C658.116 352.047 670.073 351.825 676.677 346.693C679.588 344.431 681.2 341.762 681.738 338.14C691.457 342.834 699.945 341.281 709.773 338.041C702.53 361.807 695.743 363.071 682.52 380.802C693.464 378.662 704.58 376.819 715.3 373.71C703.686 400.752 688.093 420.985 667.319 441.578C663.241 445.621 652.757 453.443 650.284 457.402C649.067 458.658 648.039 459.514 646.503 460.357C640.532 462.76 632.878 468.395 628.528 473.182C581.625 501.183 531.273 522.789 475.89 508.93C474.522 508.588 473.159 508.223 471.799 507.848C476.388 505.099 481.464 503.223 486.202 500.736C497.251 494.936 517.861 482.255 523.677 471.25C525.231 472.244 526.795 473.205 528.437 474.046C535.386 477.605 543.5 479.338 551.088 476.722C557.983 474.345 561.412 469.394 564.381 463.114C558.355 468.653 551.695 472.39 543.314 472.692C535.885 472.96 528.413 470.643 523.038 465.355C516.622 459.045 515.627 451.524 515.539 443.035C520.607 439.55 538.052 425.239 538.859 419.773C539.008 418.768 538.884 418.913 538.343 418.168C539.601 415.226 539.156 394.889 539.655 389.162C540.759 376.5 543.3 351.968 553.358 343.545Z"/>
	<path fill="#B8CCD8" d="M553.358 343.545C560.451 335.793 567.336 330.359 577.849 328.123C593.833 324.724 607.943 330.741 621.154 339.227L622.329 340.191C626.638 351.627 628.823 361.451 623.589 373.04C619.084 383.014 610.395 391.351 600.095 395.133C589.899 398.878 578.184 398.32 568.35 393.709C560.096 389.839 553.451 382.945 550.44 374.285C547.495 365.819 548.355 358.673 551.15 350.317C551.894 348.09 552.884 345.84 553.358 343.545Z"/>
	<defs>
		<linearGradient id="gradient_0" gradientUnits="userSpaceOnUse" x1="598.25055" y1="378.97983" x2="571.55542" y2="340.46161">
			<stop offset="0" stop-color="#0C223A"/>
			<stop offset="1" stop-color="#293846"/>
		</linearGradient>
	</defs>
	<path fill="url(#gradient_0)" d="M580.865 335.545C586.195 335.369 590.934 335.705 595.807 338.182C601.469 341.062 605.848 346.191 607.707 352.274C609.694 358.772 609.131 366.367 605.822 372.337C602.257 378.768 596.469 382.405 589.597 384.422C584.31 385.126 579.174 384.639 574.394 382.097C568.744 379.092 564.559 373.734 562.767 367.617C560.838 361.035 561.444 353.248 564.799 347.234C568.371 340.831 574.055 337.546 580.865 335.545Z"/>
	<path fill="#294D73" d="M593.269 341.068C596.541 342.151 599.628 343.292 601.345 346.542C602.19 348.141 602.468 349.776 602.577 351.563C603.703 353.528 604.344 355.438 604.69 357.682C605.465 362.705 604.021 367.737 601.034 371.809C597.621 376.464 592.222 379.614 586.483 380.263C581.151 380.866 575.838 379.149 571.718 375.747C569.102 373.587 565.36 369.535 565.082 365.994C564.937 364.16 565.434 362.634 566.717 361.274C569.397 358.432 573.49 358.46 577.073 358.483C577.534 356.916 578.006 355.259 578.733 353.794C579.963 351.317 582.022 350.129 584.57 349.341C585.383 346.816 586.043 344.247 588.558 342.872C589.997 342.085 591.718 341.598 593.269 341.068Z"/>
	<path fill="#FEFEFE" d="M593.269 341.068C596.541 342.151 599.628 343.292 601.345 346.542C602.19 348.141 602.468 349.776 602.577 351.563C601.83 353.571 600.661 355.481 599.651 357.371C597.67 358.658 595.448 359.502 593.284 360.431C592.605 360.099 591.936 359.771 591.289 359.38C587.192 356.906 585.758 353.819 584.57 349.341C585.383 346.816 586.043 344.247 588.558 342.872C589.997 342.085 591.718 341.598 593.269 341.068Z"/>
	<path fill="#B8CCD8" d="M400.871 342.142C411.484 335.492 422.594 328.816 435.342 327.669C447.137 326.607 456.738 329.992 465.691 337.531C475.949 344.01 479.888 357.332 482.378 368.505C485.946 384.519 486.879 401.799 486.309 418.169C491.466 418.013 496.65 416.741 501.806 416.274C513.675 415.198 526.698 415.603 538.343 418.168C538.884 418.913 539.008 418.768 538.859 419.773C538.052 425.239 520.607 439.55 515.539 443.035C515.627 451.524 516.622 459.045 523.038 465.355C528.413 470.643 535.885 472.96 543.314 472.692C551.695 472.39 558.355 468.653 564.381 463.114C561.412 469.394 557.983 474.345 551.088 476.722C543.5 479.338 535.386 477.605 528.437 474.046C526.795 473.205 525.231 472.244 523.677 471.25C517.861 482.255 497.251 494.936 486.202 500.736C481.464 503.223 476.388 505.099 471.799 507.848C447.247 500.126 424.407 489.813 402.601 476.059C400.459 473.416 383.83 462.842 380.044 460.419L375.391 457.027C369.249 450.971 362.426 445.567 356.222 439.539C342.827 426.524 330.208 411.487 320.959 395.23C316.85 388.008 313.434 380.374 309.904 372.859C321.069 375.241 332.551 377.153 343.48 380.45C329.155 369.042 319.958 356.191 312.766 339.481C319.962 341.56 327.157 343.387 334.671 342.35C347.76 350.738 368.531 351.485 383.298 348.224C389.393 346.878 395.164 344.633 400.871 342.142Z"/>
	<path fill="#294D73" d="M486.309 418.169C491.466 418.013 496.65 416.741 501.806 416.274C513.675 415.198 526.698 415.603 538.343 418.168C538.884 418.913 539.008 418.768 538.859 419.773C538.052 425.239 520.607 439.55 515.539 443.035C515.627 451.524 516.622 459.045 523.038 465.355C528.413 470.643 535.885 472.96 543.314 472.692C551.695 472.39 558.355 468.653 564.381 463.114C561.412 469.394 557.983 474.345 551.088 476.722C543.5 479.338 535.386 477.605 528.437 474.046C526.795 473.205 525.231 472.244 523.677 471.25C519.659 468.177 516.427 464.417 513.408 460.39C509.853 464.204 506.349 468.021 501.892 470.804C496.124 474.405 488.695 476.78 481.937 475.034C475.757 473.437 472.125 468.659 469.186 463.374C474.249 467.664 479.611 470.528 486.375 470.822C492.681 471.095 499.025 469.041 503.645 464.662C509.765 458.861 509.958 451.558 510.029 443.706C503.265 437.197 487.289 427.545 486.309 418.169Z"/>
	<path fill="#FEFEFE" d="M400.871 342.142C411.484 335.492 422.594 328.816 435.342 327.669C447.137 326.607 456.738 329.992 465.691 337.531C465.749 337.657 465.806 337.784 465.865 337.91C467.464 341.281 469.847 344.204 471.426 347.582C475.061 355.355 474.604 365.461 471.822 373.454C468.706 382.406 462.096 389.849 453.527 393.922C444.242 398.335 433.308 398.627 423.699 395.052C413.965 391.431 406.187 383.817 401.934 374.392C397.211 363.924 398.133 353.028 400.871 342.142Z"/>
	<path fill="#0A2046" d="M434.871 334.554C439.608 334.316 444.036 334.744 448.355 336.912C453.965 339.728 457.994 344.836 459.942 350.753C462.218 357.668 461.754 365.308 458.291 371.763C454.42 378.982 448.448 382.256 440.903 384.462C436.594 384.654 432.291 384.095 428.315 382.358C422.553 379.84 417.914 374.917 415.771 369.002C413.431 362.541 413.636 354.673 416.605 348.469C420.396 340.545 427.028 337.215 434.871 334.554Z"/>
	<path fill="#FEFEFE" d="M448.276 359.778C445.801 359.244 443.41 358.264 441.595 356.457C439.755 354.625 438.759 352.16 438.844 349.561C438.929 346.981 440.122 344.422 442.052 342.707C443.972 340.999 446.465 340.113 449.038 340.441C451.668 340.776 454.458 342.578 455.973 344.734C457.75 347.263 457.78 350.506 457.22 353.423C454.416 356.912 452.297 357.981 448.276 359.778Z"/>
	<path fill="#294D73" d="M432.543 343.656C433.04 345.953 433.528 348.252 434.074 350.537C431.673 353.458 429.246 356.141 429.537 360.21C429.653 361.834 430.517 363.286 431.796 364.263C434.181 366.086 437.479 366.392 440.352 365.889C443.216 365.387 446.274 363.83 447.741 361.198C447.922 360.874 448.253 360.201 448.276 359.778C452.297 357.981 454.416 356.912 457.22 353.423C458.024 360.016 457.072 367.135 452.871 372.5C449.84 376.37 445.451 378.746 440.581 379.315C435.026 379.965 429.011 378.288 424.676 374.732C420.974 371.696 418.773 367.297 418.472 362.526C418.174 357.802 419.424 353.001 422.733 349.518C425.44 346.668 428.973 345.135 432.543 343.656Z"/>
	<path fill="#246B97" d="M418.474 223.703C423.106 228.107 431.093 228.871 437.188 230.067C464.217 235.371 491.484 236.524 518.967 236.606C537.324 238.049 565.055 234.676 583.43 231.593C588.838 230.685 600.294 226.804 605.001 227.122C606.503 230.807 607.087 234.875 608.621 238.436C609.553 241.084 610.595 243.717 611.125 246.48C611.417 248.251 611.613 250.029 612.373 251.673C619.62 252.232 628.004 254.704 632.896 260.439C633.734 261.422 634.359 262.521 634.951 263.663C635.138 267.797 634.889 270.475 631.948 273.74C630.49 275.36 628.807 276.796 627.141 278.197L628.139 279.963L627.966 280.366C626.164 285 623.729 286.753 619.164 288.733C614.712 290.665 609.771 292.065 605.046 293.136C606.228 296.806 609.208 299.496 610.962 302.847C616.42 313.276 621.289 327.414 621.154 339.227C607.943 330.741 593.833 324.724 577.849 328.123C567.336 330.359 560.451 335.793 553.358 343.545C543.3 351.968 540.759 376.5 539.655 389.162C539.156 394.889 539.601 415.226 538.343 418.168C526.698 415.603 513.675 415.198 501.806 416.274C496.65 416.741 491.466 418.013 486.309 418.169C486.879 401.799 485.946 384.519 482.378 368.505C479.888 357.332 475.949 344.01 465.691 337.531C456.738 329.992 447.137 326.607 435.342 327.669C422.594 328.816 411.484 335.492 400.871 342.142C395.164 344.633 389.393 346.878 383.298 348.224C368.531 351.485 347.76 350.738 334.671 342.35C345.581 339.749 355.809 329.623 362.176 320.858C362.85 319.929 363.727 319.189 363.542 318.017C368.601 313.243 371.233 306.339 376.025 301.253C382.147 294.7 387.508 288.045 394.192 281.959L395.411 280.818C397.465 280.914 399.514 281.026 401.572 281.004C397.737 278.706 393.139 275.897 390.847 271.954C389.882 270.294 389.448 268.429 390.076 266.565C392.05 260.696 403.825 256.667 409.128 254.29L409.783 248.565C412.206 245.014 412.847 240.078 414.611 236.114C415.775 231.954 416.812 227.697 418.474 223.703Z"/>
	<path fill="#0A2046" d="M627.141 278.197L628.139 279.963L627.966 280.366C626.164 285 623.729 286.753 619.164 288.733C614.712 290.665 609.771 292.065 605.046 293.136C575.921 302.442 543.882 304.598 513.468 304.668C485.773 304.731 413.617 301.267 394.192 281.959L395.411 280.818C397.465 280.914 399.514 281.026 401.572 281.004C426.251 290.166 448.749 293.013 474.878 295.02C483.665 297.322 496.403 296.997 505.585 297.029C542.617 297.161 593.62 294.589 627.141 278.197Z"/>
	<path fill="#246B97" d="M612.373 251.673C619.62 252.232 628.004 254.704 632.896 260.439C633.734 261.422 634.359 262.521 634.951 263.663C635.138 267.797 634.889 270.475 631.948 273.74C630.49 275.36 628.807 276.796 627.141 278.197C593.62 294.589 542.617 297.161 505.585 297.029C496.403 296.997 483.665 297.322 474.878 295.02C480.206 293.638 487.054 294.281 492.63 294.145C510.909 293.699 531.554 294.051 549.053 288.23C557.511 285.417 566.375 280.119 570.28 271.715C571.078 269.997 571.31 268.465 570.667 266.713C579.035 264.529 607.1 262.6 611.877 255.79C612.954 254.254 612.572 253.409 612.373 251.673Z"/>
	<path fill="#638294" d="M409.128 254.29C445.208 273.938 530.298 273.498 570.667 266.713C571.31 268.465 571.078 269.997 570.28 271.715C566.375 280.119 557.511 285.417 549.053 288.23C531.554 294.051 510.909 293.699 492.63 294.145C487.054 294.281 480.206 293.638 474.878 295.02C448.749 293.013 426.251 290.166 401.572 281.004C397.737 278.706 393.139 275.897 390.847 271.954C389.882 270.294 389.448 268.429 390.076 266.565C392.05 260.696 403.825 256.667 409.128 254.29Z"/>
	<path fill="#0A2046" d="M418.474 223.703C423.106 228.107 431.093 228.871 437.188 230.067C464.217 235.371 491.484 236.524 518.967 236.606C537.324 238.049 565.055 234.676 583.43 231.593C588.838 230.685 600.294 226.804 605.001 227.122C606.503 230.807 607.087 234.875 608.621 238.436C609.553 241.084 610.595 243.717 611.125 246.48C611.417 248.251 611.613 250.029 612.373 251.673C612.572 253.409 612.954 254.254 611.877 255.79C607.1 262.6 579.035 264.529 570.667 266.713C530.298 273.498 445.208 273.938 409.128 254.29L409.783 248.565C412.206 245.014 412.847 240.078 414.611 236.114C415.775 231.954 416.812 227.697 418.474 223.703Z"/>
	<path fill="#294D73" d="M375.391 457.027L380.044 460.419C383.83 462.842 400.459 473.416 402.601 476.059C424.407 489.813 447.247 500.126 471.799 507.848C473.159 508.223 474.522 508.588 475.89 508.93C531.273 522.789 581.625 501.183 628.528 473.182C632.878 468.395 640.532 462.76 646.503 460.357C648.039 459.514 649.067 458.658 650.284 457.402C659.55 470.919 668.714 488.241 670.714 504.631C665.683 510.164 659.828 514.901 654.479 520.12C664.94 529.934 679.028 539.362 687.51 550.722C680.354 554.863 673.123 558.911 666.044 563.179C666.228 567.222 666.056 571.809 667.201 575.693C670.19 576.411 673.086 577.201 675.995 578.194C711.611 589.627 742.901 616.369 760.038 649.616C762.622 654.63 764.835 659.865 767.02 665.063C783.041 714.181 779.732 756.956 756.208 803.263C754.002 807.604 751.722 811.906 749.734 816.353C751.864 818.256 756.09 819.022 758.592 820.724C770.108 828.557 774.133 839.949 776.811 853.042C777.325 853.206 777.84 853.37 778.352 853.545C784.448 855.625 789.126 859.814 791.826 865.695C795.437 873.56 795.346 884.036 792.128 892.015C789.448 898.661 784.713 902.929 778.205 905.657L777.697 935.296C786.79 937.319 795.287 941.054 802.304 947.277C815.877 959.316 818.318 973.654 819.331 990.915L204.219 990.95C203.662 975.811 208.893 960.536 219.124 949.302C226.609 941.084 236.991 936.481 248.031 935.983L248.002 906.108C246.171 905.213 244.225 904.341 242.534 903.199C236.674 899.24 232.815 893.412 231.423 886.483C229.879 878.795 230.588 869.355 235.12 862.774C238.494 857.874 243.409 855.048 249.172 853.948C250.363 844.801 252.585 835.274 258.282 827.798C264.558 819.563 272.453 817.064 282.271 815.758C286.902 807.563 292.126 799.695 296.868 791.56C301.941 782.86 306.567 773.792 311.029 764.767C328.81 728.803 341.64 690.25 349.004 650.815C354.286 622.528 357.203 593.616 360.997 565.084C355.354 561.924 349.021 559.661 343.646 556.081C342.26 555.158 340.855 554.209 340.478 552.502C341.784 543.952 360.841 526.363 367.568 519.621C363.594 515.832 354.494 510.954 353.976 505.038C353.22 496.397 362.368 476.424 366.703 469.109C369.261 464.792 372.204 460.895 375.391 457.027Z"/>
	<path fill="#638294" d="M515.894 644.933C525.978 643.727 548.147 643.31 557.685 645.4C559.365 647.233 561.517 649.696 561.406 652.387C561.347 653.813 560.792 654.871 559.727 655.801C553.365 661.356 533.42 659.432 525.076 659.01C524.278 654.386 524.153 649.602 523.439 644.939C520.923 645.027 518.411 644.974 515.894 644.933Z"/>
	<path fill="#B8CCD8" d="M525.076 659.01L486.903 658.98C479.901 659 472.22 659.728 465.306 658.72C463.101 658.399 460.609 657.793 458.972 656.169C457.849 655.055 457.475 653.488 457.453 651.957C457.428 650.281 457.992 648.798 459.189 647.613C460.979 645.844 463.718 645.063 466.158 644.795C472.903 644.052 480.399 644.875 487.191 645C496.748 645.176 506.334 644.967 515.894 644.933C518.411 644.974 520.923 645.027 523.439 644.939C524.153 649.602 524.278 654.386 525.076 659.01Z"/>
	<path fill="#638294" d="M539.009 609.235C545.499 617.771 547.514 624.873 547.807 635.483L501.143 635.534C495.032 635.538 485.221 636.546 479.437 635.089C485.865 632.741 492.126 629.783 498.452 627.157C512.161 621.465 525.695 615.814 539.009 609.235Z"/>
	<path fill="#B8CCD8" d="M471.552 636.166C471.525 635.864 471.493 635.562 471.47 635.26C470.717 625.538 473.716 616.161 480.255 608.91C487.109 601.309 497.344 596.957 507.495 596.517C519.625 595.991 530.216 601.218 539.009 609.235C525.695 615.814 512.161 621.465 498.452 627.157C492.126 629.783 485.865 632.741 479.437 635.089L471.552 636.166Z"/>
	<path fill="#246B97" d="M667.201 575.693C670.19 576.411 673.086 577.201 675.995 578.194C676.531 581.13 686.984 591.718 689.632 596.323C691.775 600.049 693.147 604.571 694.338 608.688C702.934 638.393 694.394 670.976 686.406 699.86C682.508 688.467 680.936 676.321 678.852 664.482C673.654 634.947 669.947 605.544 667.201 575.693Z"/>
	<path fill="#B8CCD8" d="M371.091 522.911C375.397 525.598 379.503 529.373 383.501 532.53L409.56 553.32L447.428 583.501C455.653 589.957 464.083 596.179 472.156 602.821C469.139 607.04 466.906 610.833 465.228 615.755C461.694 613.677 458.203 611.519 454.696 609.396C419.41 588.644 382.771 569.34 346.347 550.648C355.112 541.874 363.082 532.367 371.091 522.911Z"/>
	<path fill="#B8CCD8" d="M649.324 524.046C653.936 525.765 674.779 544.646 679.137 549.163C667.332 556.308 654.83 562.171 642.744 568.81L570.848 608.968C565.608 611.81 560.603 614.865 555.06 617.109C553.132 612.97 550.824 609.229 548.265 605.451C558.039 596.946 568.779 589.254 578.976 581.251C602.607 562.706 626.809 543.926 649.324 524.046Z"/>
	<path fill="#638294" d="M678.052 863.488C695.903 863.542 713.73 863.794 731.582 863.566C743.659 863.411 758.808 862.403 770.645 863.605C773.708 863.916 778.417 864.501 780.633 866.733C784.135 870.262 784.361 876.25 784.169 880.916C783.995 885.159 783.505 890.769 780.035 893.702C777.695 895.679 774.683 896.348 771.722 896.655C764.345 897.42 756.632 897.035 749.215 897.031L712.057 897.009L673.96 897.073C662.655 897.183 651.304 897.577 640.009 896.912C648.974 892.958 670.637 871.226 678.052 863.488Z"/>
	<path fill="#638294" d="M380.044 460.419C383.83 462.842 400.459 473.416 402.601 476.059C402.585 476.211 402.561 476.361 402.554 476.513C402.362 480.857 403.924 486.277 405.09 490.434C416.023 529.399 457.637 563.673 485.232 592.397C481.924 594.469 478.84 596.517 475.792 598.967C465.257 589.045 452.819 580.748 441.458 571.739C413.911 549.894 386.016 528.334 358.976 505.871C362.065 488.75 368.775 473.662 380.044 460.419Z"/>
	<path fill="#638294" d="M628.528 473.182C632.878 468.395 640.532 462.76 646.503 460.357C654.075 474.265 660.346 487.937 664.997 503.094C652.592 515.198 639.08 525.99 625.64 536.904L578.84 574.542C567.788 583.306 554.863 591.691 545.156 601.884C542.172 599.143 539.089 596.742 535.796 594.382C544.649 583.724 554.85 574.404 564.479 564.471C584.914 543.389 609.717 514.686 622.682 488.317C624.661 484.293 628.312 477.573 628.528 473.182Z"/>
	<path fill="#246B97" d="M422.81 824.755L431.395 824.489C429.506 834.297 426.966 843.983 425.214 853.82C409.668 853.52 394.014 854.013 378.455 854.019L268.75 854.023L259.742 854.032C261.211 845.595 262.981 837.141 269.359 830.909C272.981 827.371 277.215 825.958 282.113 825.274C288.181 824.427 294.512 824.743 300.629 824.74L327.678 824.735L422.81 824.755Z"/>
	<path fill="#638294" d="M621.547 906.942C670.166 907.198 718.886 905.485 767.488 906.847C767.49 916.455 767.254 926.136 767.812 935.729L630.781 936.01L589.273 936.114C582.055 936.125 574.528 936.511 567.352 935.926C570.74 935.358 574.405 935.562 577.844 935.532C583.581 931.709 589.974 928.603 595.918 925.069C605.008 919.665 613.335 913.595 621.547 906.942Z"/>
	<path fill="#0A2046" d="M699.284 749.127C725.277 736.354 748 711.938 758.691 684.837C761.149 678.606 762.205 669.878 767.02 665.063C783.041 714.181 779.732 756.956 756.208 803.263C754.002 807.604 751.722 811.906 749.734 816.353C744.872 813.731 737.629 814.319 732.207 814.324C727.7 806.095 722.26 798.408 717.851 790.066C710.788 776.703 705.379 762.92 699.284 749.127Z"/>
	<path fill="#638294" d="M521.974 668.508L549.75 668.518L571.007 796.251C574.152 815.158 579.169 834.436 580.698 853.526L542.072 853.501L528.567 728.729C526.404 708.716 522.802 688.612 521.974 668.508Z"/>
	<path fill="#246B97" d="M264.78 944.22C279.223 943.773 293.818 944.471 308.283 944.478L409.994 944.477L499.02 944.929C514.191 945.074 529.144 944.573 544.307 945.722C524.073 951.988 502.987 954.494 482.126 957.817C409.459 968.8 335.886 973.196 262.415 972.817C247.752 972.741 233.197 971.789 218.565 971.481C221.357 965.512 224.117 959.744 228.73 954.925C238.862 944.338 251.122 944.564 264.78 944.22Z"/>
	<path fill="#B8CCD8" d="M257.765 906.76C272.564 907.232 287.354 906.848 302.154 906.83L382.054 906.808L621.547 906.942C613.335 913.595 605.008 919.665 595.918 925.069C589.974 928.603 583.581 931.709 577.844 935.532C574.405 935.562 570.74 935.358 567.352 935.926C542.949 936.482 518.459 935.87 494.043 936.014L258.005 936.265C257.79 926.423 257.688 916.606 257.765 906.76Z"/>
	<path fill="#246B97" d="M655.864 571.458C657.3 575.748 657.052 582.035 657.434 586.604C658.26 596.467 659.081 606.346 660.089 616.192C661.034 625.426 662.782 634.589 663.595 643.828C645.468 680.671 627.698 703.948 596.691 731.162C589.202 737.735 581.848 744.514 573.26 749.64L570.202 732.405C568.809 721.551 566.486 710.654 564.61 699.864C562.765 689.259 561.332 678.352 558.89 667.877C564.023 665.216 567.875 661.995 569.7 656.311C571.013 652.221 570.723 647.704 568.687 643.899C566.311 639.463 562.318 636.806 557.579 635.429C557.509 632.507 557.24 629.568 557.045 626.65C574.121 618.604 590.546 607.843 606.922 598.454C617.588 592.339 628.303 586.307 639.106 580.437C644.677 577.41 650.386 574.654 655.864 571.458Z"/>
	<path fill="#B8CCD8" d="M249.226 863.597C265.852 862.825 282.353 863.219 298.979 863.228L392.574 863.5L678.052 863.488C670.637 871.226 648.974 892.958 640.009 896.912C629.563 897.389 619.175 897.024 608.73 897.014L552.105 896.995L376.579 896.993L291.832 897.005C280.661 897.008 259.977 898.481 249.808 896.047C247.368 895.462 244.917 893.116 243.61 891.061C240.684 886.461 240.382 879.374 241.572 874.178C242.719 869.17 245.016 866.339 249.226 863.597Z"/>
	<path fill="#B8CCD8" d="M473.994 668.493L521.974 668.508C522.802 688.612 526.404 708.716 528.567 728.729L542.072 853.501L434.026 853.498C437.03 835.862 441.744 818.262 445.481 800.731L473.994 668.493Z"/>
	<path fill="#246B97" d="M370.629 572.13C382.04 577.388 392.871 584.762 403.888 590.874L440.641 611.531C447.882 615.621 455.423 619.493 462.344 624.105C462.073 628 462.065 631.883 462.057 635.785C459.944 636.477 457.733 637.144 455.856 638.359C452.174 640.744 449.455 644.394 448.579 648.721C447.741 652.866 448.569 657.312 450.965 660.809C454.586 666.094 459.637 667.284 465.548 668.239C462.207 680.963 459.697 694.052 456.835 706.902C452.473 726.484 447.93 746.046 443.846 765.688C440.456 781.99 437.496 798.413 433.172 814.504C423.533 814.45 413.888 814.656 404.25 814.806C367.759 814.794 331.188 814.265 294.707 814.933C298.078 808.397 302.253 802.214 305.914 795.831C312.743 783.926 319.18 771.789 325.06 759.384C348.689 709.53 360.783 655.868 367.344 601.363C368.513 591.651 369.918 581.886 370.629 572.13Z"/>
</svg>
