<?xml version="1.0" encoding="utf-8" ?>
<svg xmlns="http://www.w3.org/2000/svg" xmlns:xlink="http://www.w3.org/1999/xlink" width="1024" height="1023">
	<path fill="#7B1A19" d="M405.624 53.684C420.334 67.3815 434.378 81.6667 448.869 95.5722C458.656 104.964 470.417 114.904 479.145 125.077C467.309 128.08 455.273 130.31 443.392 133.141C440.245 125.845 436.304 118.749 432.738 111.642C426.807 99.8207 420.975 87.9656 415.282 76.0272C411.871 68.8754 407.697 61.3498 405.624 53.684Z"/>
	<path fill="#FE3232" d="M401.512 49.7094L405.624 53.684C407.697 61.3498 411.871 68.8754 415.282 76.0272C420.975 87.9656 426.807 99.8207 432.738 111.642C436.304 118.749 440.245 125.845 443.392 133.141C431.592 136.543 419.759 139.937 408.422 144.707C406.574 136.728 406.749 126.685 406.146 118.385C404.487 95.5167 403.531 72.5408 401.512 49.7094Z"/>
	<path fill="#CC0200" d="M562.213 141.226C576.044 146.841 589.95 152.124 603.573 158.247C636.247 172.933 669.059 191.387 698.074 212.441C681.813 213.179 666.34 215.096 650.397 218.382C663.334 225.643 676.67 231.78 689.332 239.614C733.083 266.683 770.496 305.125 795.716 350.008C773.235 341.985 751.193 335.332 727.478 332.15C719.628 331.097 711.767 330.863 703.92 330.009C714.948 336.499 725.822 342.947 735.892 350.888C746.05 358.899 754.975 368.129 763.723 377.629C794.802 411.383 815.915 447.861 830.444 491.308C815.208 480.621 800.883 471.857 784.003 463.98C775.264 459.903 765.996 456.569 757.436 452.207C764.554 459.187 771.667 466.086 778.027 473.778C807.788 509.768 829.48 557.452 833.649 604.174C816.624 588.284 797.663 574.586 776.564 564.592C805.7 610.216 821.029 669.002 809.066 722.691C808.166 726.729 807.143 730.762 806.054 734.753C800.927 707.11 792.105 680.651 772.097 659.998C770.793 648.219 773.328 636.586 769.793 624.909C770.121 621.454 769.086 616.385 768.832 612.774C767.403 592.445 765.835 571.992 761.142 552.116C754.551 513.974 742.971 478.635 729.903 442.351C729.685 441.541 729.448 440.748 729.179 439.953C723.66 423.689 715.95 407.814 708.765 392.216C699.057 371.139 688.796 349.899 677.405 329.677C649.629 280.367 600.197 208.127 548.055 182.295C552.45 168.831 560.334 155.412 562.213 141.226Z"/>
	<path fill="#FE6600" d="M483.319 122.022C487.163 114.65 530.587 49.1784 533.399 47.6054L533.484 49.925C535.091 68.5068 535.978 87.1913 537.106 105.811C537.659 114.952 537.448 124.639 539.426 133.606C547.049 135.95 554.827 138.197 562.213 141.226C560.334 155.412 552.45 168.831 548.055 182.295L542.549 180.368C542.773 184.725 543.015 189.072 542.996 193.436C531.711 193.401 520.479 193.555 509.202 194.002C513.381 212.62 518.038 231.133 522.139 249.764C509.875 268.432 495.775 285.704 483.022 304.013C478.41 310.634 473.959 317.381 469.795 324.294C467.21 328.588 464.919 333.16 462.136 337.319C436.708 337.391 411.261 336.814 385.843 336.99C360.092 362.967 335.098 389.8 309.89 416.305C297.908 428.904 286.122 441.93 273.639 454.028L237.002 433.583C231.246 430.296 205.27 413.937 200.646 413.05C194.63 406.177 189.688 398.653 184.84 390.942C201.71 373.881 221.44 359.061 239.474 343.237C255.827 328.888 270.627 313.491 285.73 297.882C291.161 292.269 300.099 285.013 303.778 278.219C307.258 271.791 307.971 263.548 309.832 256.521C311.326 250.88 313.418 245.331 315.492 239.882C332.078 196.295 366.314 163.615 408.422 144.707C419.759 139.937 431.592 136.543 443.392 133.141C455.273 130.31 467.309 128.08 479.145 125.077L480.413 125.568L483.319 122.022Z"/>
	<path fill="#CC0200" d="M483.319 122.022C484.14 125.195 480.552 130.281 478.912 133.064C469.628 148.819 459.035 164.517 451.27 181.08C448.24 180.233 445.372 179.338 442.479 178.093C450.14 166.586 457.994 155.222 466.245 144.129C470.851 137.937 476.128 131.952 480.413 125.568L483.319 122.022Z"/>
	<path fill="#CC0200" d="M253.698 374.673C254.693 374.534 254.836 374.381 255.787 374.815C254.125 378.108 243.644 384.099 240.232 386.422C240.939 392.35 241.966 398.239 242.919 404.131L230.99 402.34C228.058 401.89 225.164 401.356 222.26 400.748C223.798 393.308 224.373 385.615 225.085 378.063C234.74 377.685 244.174 376.189 253.698 374.673Z"/>
	<path fill="#230201" d="M391.569 252.061C394.463 251.419 397.939 251.64 400.885 251.87C403.627 255.638 404.459 257.889 403.739 262.552L403.622 263.274C403.603 263.397 403.588 263.52 403.57 263.643C404.253 267.72 403.746 271.682 402 275.446C399.284 281.303 393.949 285.651 387.945 287.829C381.76 290.073 375.29 289.736 369.376 286.845C363.147 283.799 358.8 278.752 356.613 272.219C358.388 265.483 360.038 258.778 361.385 251.943C371.438 251.957 381.52 251.857 391.569 252.061Z"/>
	<path fill="#FEFE23" d="M391.569 252.061C394.463 251.419 397.939 251.64 400.885 251.87C403.627 255.638 404.459 257.889 403.739 262.552L403.622 263.274C403.603 263.397 403.588 263.52 403.57 263.643C401.934 265.572 399.684 267.149 397.11 267.405C394.993 267.616 392.883 266.947 391.273 265.557C389.485 264.014 388.481 261.878 388.32 259.528C388.1 256.316 389.547 254.379 391.569 252.061Z"/>
	<path fill="#CC0200" d="M354.053 208.865C371.217 216.308 388.142 224.276 405.233 231.878C419.258 238.116 433.564 243.847 447.211 250.887C437.817 251.282 428.442 251.216 419.042 251.203C413.357 251.196 406.421 250.597 400.885 251.87C397.939 251.64 394.463 251.419 391.569 252.061C381.52 251.857 371.438 251.957 361.385 251.943C358.532 247.362 355.234 216.209 354.053 208.865Z"/>
	<path fill="#CC0200" d="M533.484 49.925C535.091 68.5068 535.978 87.1913 537.106 105.811C537.659 114.952 537.448 124.639 539.426 133.606C547.049 135.95 554.827 138.197 562.213 141.226C560.334 155.412 552.45 168.831 548.055 182.295L542.549 180.368C542.773 184.725 543.015 189.072 542.996 193.436C531.711 193.401 520.479 193.555 509.202 194.002L488.924 193.954C496.18 172.044 503.006 149.979 509.538 127.843C512.961 116.243 529.22 56.2051 533.484 49.925Z"/>
	<path fill="#7B1A19" d="M539.426 133.606C547.049 135.95 554.827 138.197 562.213 141.226C560.334 155.412 552.45 168.831 548.055 182.295L542.549 180.368C540.202 165.07 539.89 149.07 539.426 133.606Z"/>
	<path fill="#7B1A19" d="M286.365 801.182C294.385 802.097 302.953 801.173 311.027 801.051C323.8 800.859 336.6 800.94 349.375 801L417.471 801.624C437.255 801.877 456.979 802.293 476.761 801.526C498.714 800.183 521.024 800.996 543.023 801.006C533.475 807.882 522.966 812.811 512.629 818.322C512.695 819.271 512.524 818.926 512.904 819.446C535.06 818.316 557.498 818.774 579.688 818.76L681.401 818.775C694.862 818.809 708.367 819.474 721.82 819.08C725.202 818.981 731.252 819.539 733.948 817.401C743.87 815.957 758.689 816.456 769.063 816.479C775.325 830.54 780.974 844.865 787.086 858.99C791.918 870.157 797.503 881.299 801.27 892.877L839.264 892.916C839.694 902.185 839.339 911.648 839.363 920.938L839.437 976.948C813.709 976.44 787.907 976.785 762.173 976.759L619.444 976.658L182.997 976.364L183.045 893.62C188.865 893.472 216.345 895.254 219.501 892.846C223.305 882.844 228.242 873.301 232.809 863.636L254.318 817.991C264.438 818.091 274.407 818.685 284.54 818.296L285.991 817.883C286.643 813.973 284.612 805.88 283.967 801.551L286.365 801.182Z"/>
	<path fill="#FE3232" d="M733.948 817.401C743.87 815.957 758.689 816.456 769.063 816.479C775.325 830.54 780.974 844.865 787.086 858.99C791.918 870.157 797.503 881.299 801.27 892.877C789.07 892.062 776.619 892.489 764.388 892.495L703.255 892.509L510.48 892.506C511.042 868.2 510.392 843.737 510.382 819.399L512.904 819.446C535.06 818.316 557.498 818.774 579.688 818.76L681.401 818.775C694.862 818.809 708.367 819.474 721.82 819.08C725.202 818.981 731.252 819.539 733.948 817.401Z"/>
	<path fill="#FE6600" d="M286.365 801.182C294.385 802.097 302.953 801.173 311.027 801.051C323.8 800.859 336.6 800.94 349.375 801L417.471 801.624C437.255 801.877 456.979 802.293 476.761 801.526C498.714 800.183 521.024 800.996 543.023 801.006C533.475 807.882 522.966 812.811 512.629 818.322C512.695 819.271 512.524 818.926 512.904 819.446L510.382 819.399C510.392 843.737 511.042 868.2 510.48 892.506L462.497 892.799C381.525 892.502 300.448 891.762 219.501 892.846C223.305 882.844 228.242 873.301 232.809 863.636L254.318 817.991C264.438 818.091 274.407 818.685 284.54 818.296L285.991 817.883C286.643 813.973 284.612 805.88 283.967 801.551L286.365 801.182Z"/>
	<path fill="#CC0200" d="M286.365 801.182C294.385 802.097 302.953 801.173 311.027 801.051C323.8 800.859 336.6 800.94 349.375 801L417.471 801.624C437.255 801.877 456.979 802.293 476.761 801.526C498.714 800.183 521.024 800.996 543.023 801.006C533.475 807.882 522.966 812.811 512.629 818.322C512.695 819.271 512.524 818.926 512.904 819.446L510.382 819.399C492.235 818.926 474.143 819.424 456 819.432L341.372 819.002C329.88 818.911 318.382 819.241 306.888 819.278C299.407 819.302 291.942 819.57 284.54 818.296L285.991 817.883C286.643 813.973 284.612 805.88 283.967 801.551L286.365 801.182Z"/>
	<path fill="#FE3232" d="M542.549 180.368L548.055 182.295C600.197 208.127 649.629 280.367 677.405 329.677C688.796 349.899 699.057 371.139 708.765 392.216C715.95 407.814 723.66 423.689 729.179 439.953C729.448 440.748 729.685 441.541 729.903 442.351C685.052 488.923 637.217 529.6 582.571 564.316C569.778 572.443 557.121 580.98 543.235 587.154C523.273 599.409 501.804 609.576 480.515 619.297C469.072 621.836 453.186 629.952 441.644 634.32C411.358 645.782 342.86 667.659 312.085 667.01C316.835 658.463 322.994 650.382 328.655 642.413L357.08 602.489C364.584 591.757 371.895 580.814 379.026 569.83C384.597 561.252 389.948 552.53 396.069 544.327C411.727 519.616 428.614 496.551 436.269 467.824C438.968 457.351 439.441 446.401 439.388 435.637C414.216 434.794 388.797 435.575 363.595 435.493L270.429 506.647C264.907 499.377 258.784 492.039 254 484.283C236.958 459.947 217.785 437.257 200.646 413.05C205.27 413.937 231.246 430.296 237.002 433.583L273.639 454.028C286.122 441.93 297.908 428.904 309.89 416.305C335.098 389.8 360.092 362.967 385.843 336.99C411.261 336.814 436.708 337.391 462.136 337.319C464.919 333.16 467.21 328.588 469.795 324.294C473.959 317.381 478.41 310.634 483.022 304.013C495.775 285.704 509.875 268.432 522.139 249.764C518.038 231.133 513.381 212.62 509.202 194.002C520.479 193.555 531.711 193.401 542.996 193.436C543.015 189.072 542.773 184.725 542.549 180.368Z"/>
	<path fill="#7B1A19" d="M507.649 404.375C514.052 399.544 518.7 393.687 523.376 387.236C538.826 365.92 547.89 341.367 551.55 315.393C553.961 298.284 553.788 281.338 552.564 264.141C565.088 304.245 566.333 350.343 546.529 388.441C527.436 425.174 486.987 452.577 448.182 464.802C444.347 466.01 440.243 467.269 436.269 467.824C438.968 457.351 439.441 446.401 439.388 435.637C464.654 430.949 487.66 420.52 507.649 404.375Z"/>
	<path fill="#CC0200" d="M367.935 385.424C370.072 391.596 372.086 397.804 374.086 404.021L461.936 403.983C477.109 404.01 492.506 403.455 507.649 404.375C487.66 420.52 464.654 430.949 439.388 435.637C414.216 434.794 388.797 435.575 363.595 435.493L270.429 506.647C264.907 499.377 258.784 492.039 254 484.283C265.518 473.417 278.149 463.513 290.194 453.227C316.34 430.898 342.584 408.658 367.935 385.424Z"/>
	<path fill="#FE6600" d="M567.419 372.394C568.734 428.306 563.311 478.659 553.817 533.577C550.728 551.451 545.799 569.241 543.235 587.154C523.273 599.409 501.804 609.576 480.515 619.297C469.072 621.836 453.186 629.952 441.644 634.32C411.358 645.782 342.86 667.659 312.085 667.01C316.835 658.463 322.994 650.382 328.655 642.413L357.08 602.489C364.584 591.757 371.895 580.814 379.026 569.83C384.597 561.252 389.948 552.53 396.069 544.327C404.167 543.15 412.967 538.6 420.418 535.224C463.637 515.64 502.279 484.698 530.687 446.661C542.501 430.842 552.847 412.954 559.937 394.505C562.73 387.236 564.746 379.698 567.419 372.394Z"/>
	<path fill="#7B1A19" d="M543.235 587.154C557.121 580.98 569.778 572.443 582.571 564.316C637.217 529.6 685.052 488.923 729.903 442.351C742.971 478.635 754.551 513.974 761.142 552.116C765.835 571.992 767.403 592.445 768.832 612.774C769.086 616.385 770.121 621.454 769.793 624.909C773.328 636.586 770.793 648.219 772.097 659.998C771.789 668.146 771.802 676.263 771.185 684.401C768.703 717.162 761.097 748.111 750.119 779.015C745.519 791.967 740.647 805.358 733.948 817.401C731.252 819.539 725.202 818.981 721.82 819.08C708.367 819.474 694.862 818.809 681.401 818.775L579.688 818.76C557.498 818.774 535.06 818.316 512.904 819.446C512.524 818.926 512.695 819.271 512.629 818.322C522.966 812.811 533.475 807.882 543.023 801.006C521.024 800.996 498.714 800.183 476.761 801.526C456.979 802.293 437.255 801.877 417.471 801.624L349.375 801C336.6 800.94 323.8 800.859 311.027 801.051C302.953 801.173 294.385 802.097 286.365 801.182L283.967 801.551C282.955 793.643 283.017 785.375 283.053 777.412C283.207 742.944 290.134 710.594 305.037 679.491C307.252 675.225 309.547 671.097 312.085 667.01C342.86 667.659 411.358 645.782 441.644 634.32C453.186 629.952 469.072 621.836 480.515 619.297C501.804 609.576 523.273 599.409 543.235 587.154Z"/>
	<path fill="#FE3232" d="M312.085 667.01C342.86 667.659 411.358 645.782 441.644 634.32C453.186 629.952 469.072 621.836 480.515 619.297C474.237 625.459 460.398 629.779 452.11 633.234C412.761 649.639 373.342 663.748 331.924 674.073C323.369 676.206 313.855 679.475 305.037 679.491C307.252 675.225 309.547 671.097 312.085 667.01Z"/>
	<path fill="#FE6600" d="M499.35 740.467C497.786 750.99 486.319 776.15 481.813 787.188C480.014 791.595 477.282 796.81 476.761 801.526C456.979 802.293 437.255 801.877 417.471 801.624L349.375 801C336.6 800.94 323.8 800.859 311.027 801.051C302.953 801.173 294.385 802.097 286.365 801.182C293.054 798.799 301.694 800.007 308.756 799.045C325.588 796.753 342.314 793.481 358.906 789.869C372.364 786.939 385.503 782.814 398.625 778.669C433.021 767.803 466.2 754.662 499.35 740.467Z"/>
	<path fill="#FE3232" d="M499.35 740.467C506.651 736.509 514.331 733.26 521.606 729.189C531.838 723.465 541.782 717.157 551.849 711.144C601.478 681.499 649.284 649.204 693.893 612.356C708.911 599.952 723.57 587.103 737.882 573.891C745.684 566.689 753.093 559.044 761.142 552.116C765.835 571.992 767.403 592.445 768.832 612.774C769.086 616.385 770.121 621.454 769.793 624.909C773.328 636.586 770.793 648.219 772.097 659.998C771.789 668.146 771.802 676.263 771.185 684.401C768.703 717.162 761.097 748.111 750.119 779.015C745.519 791.967 740.647 805.358 733.948 817.401C731.252 819.539 725.202 818.981 721.82 819.08C708.367 819.474 694.862 818.809 681.401 818.775L579.688 818.76C557.498 818.774 535.06 818.316 512.904 819.446C512.524 818.926 512.695 819.271 512.629 818.322C522.966 812.811 533.475 807.882 543.023 801.006C521.024 800.996 498.714 800.183 476.761 801.526C477.282 796.81 480.014 791.595 481.813 787.188C486.319 776.15 497.786 750.99 499.35 740.467Z"/>
	<path fill="#7B1A19" d="M769.793 624.909C773.328 636.586 770.793 648.219 772.097 659.998C771.789 668.146 771.802 676.263 771.185 684.401C768.703 717.162 761.097 748.111 750.119 779.015C745.519 791.967 740.647 805.358 733.948 817.401C731.252 819.539 725.202 818.981 721.82 819.08C708.367 819.474 694.862 818.809 681.401 818.775L579.688 818.76C557.498 818.774 535.06 818.316 512.904 819.446C512.524 818.926 512.695 819.271 512.629 818.322C522.966 812.811 533.475 807.882 543.023 801.006C559.186 793.305 574.914 782.929 590.06 773.376C646.154 737.995 699.111 698.009 745.972 650.991C752.736 644.205 764.991 632.674 769.793 624.909Z"/>
</svg>
